<?xml version="1.0" encoding="UTF-8" standalone="no"?>
<!-- Created with Inkscape (http://www.inkscape.org/) -->

<svg
   width="322"
   height="200"
   viewBox="0 0 85.195834 52.916666"
   version="1.1"
   id="svg1"
   inkscape:version="1.4 (e7c3feb100, 2024-10-09)"
   sodipodi:docname="amoneta.svg"
   xml:space="preserve"
   xmlns:inkscape="http://www.inkscape.org/namespaces/inkscape"
   xmlns:sodipodi="http://sodipodi.sourceforge.net/DTD/sodipodi-0.dtd"
   xmlns="http://www.w3.org/2000/svg"
   xmlns:svg="http://www.w3.org/2000/svg"><sodipodi:namedview
     id="namedview1"
     pagecolor="#ffffff"
     bordercolor="#000000"
     borderopacity="0.25"
     inkscape:showpageshadow="2"
     inkscape:pageopacity="0.0"
     inkscape:pagecheckerboard="0"
     inkscape:deskcolor="#d1d1d1"
     inkscape:document-units="mm"
     inkscape:zoom="2"
     inkscape:cx="147.75"
     inkscape:cy="4"
     inkscape:window-width="2556"
     inkscape:window-height="1383"
     inkscape:window-x="0"
     inkscape:window-y="36"
     inkscape:window-maximized="1"
     inkscape:current-layer="layer1" /><defs
     id="defs1" /><g
     inkscape:label="Layer 1"
     inkscape:groupmode="layer"
     id="layer1"><g
       inkscape:label="Layer 1"
       id="layer1-8"
       transform="matrix(0.49287,0,0,0.49287,-4.6509657,-44.671873)"><path
         style="fill:#cb81f0;fill-opacity:1;stroke:none;stroke-width:0.264583"
         d="m 24.372381,167.03569 c 0,0 6.749236,-3.07697 8.149519,-9.64315 1.399204,-6.56111 -4.155374,-18.6149 0.457485,-27.78714 2.889101,-5.74471 7.941255,-8.16525 13.687946,-8.69101 0,0 -1.423452,1.67981 -2.383473,4.43092 -2.276396,6.52345 -1.062427,14.82285 -0.339643,18.76638 2.137091,9.63848 1.210604,17.69512 -8.948686,22.44336 -4.718359,2.20527 -10.065321,0.63815 -10.623148,0.48064 z"
         id="path2-5-0"
         sodipodi:nodetypes="csscsssc" /><path
         id="path3-6-4-7"
         style="fill:#9724d9;fill-opacity:1;stroke:none;stroke-width:0.264583"
         d="m 35.261345,124.77879 c -0.03962,0.008 -3.980582,0.75539 -5.344417,1.50431 -8.23461,4.52182 -8.003566,11.93803 -6.708172,20.02272 0.688258,5.33426 2.062513,10.94825 -0.204129,14.9868 -1.13544,2.02307 -5.644142,5.07777 -5.644142,5.07777 4.660072,0.53542 7.412845,-0.33481 9.69406,-2.21487 1.68936,-1.57853 3.394163,-3.81645 4.022527,-6.76295 1.399204,-6.56111 -4.154998,-18.61494 0.457861,-27.78717 1.001256,-1.99091 2.26669,-3.57472 3.726412,-4.82661 z" /><path
         id="path35-8"
         style="font-weight:bold;font-size:37.3333px;font-family:'Tafel Sans Pro';-inkscape-font-specification:'Tafel Sans Pro Bold';fill:#000000;stroke-width:0.22;stroke-miterlimit:7.1"
         d="m 163.50826,134.801 -6.07654,17.71453 h 4.23516 l 1.10002,-3.4264 h 6.01035 l 1.10001,3.4264 h 4.23517 L 168.03588,134.801 Z m 2.28066,5.02106 1.93164,5.97665 h -3.89698 z" /><path
         style="font-weight:bold;font-size:37.3333px;font-family:'Tafel Sans Pro';-inkscape-font-specification:'Tafel Sans Pro Bold';fill:#000000;stroke-width:0.22;stroke-miterlimit:7.1"
         d="m 155.69309,134.80145 v 3.44847 h -3.68436 v 14.26565 h -4.2123 v -14.26565 h -3.70682 v -3.44847 z"
         id="path34-6" /><path
         style="font-weight:bold;font-size:37.3333px;font-family:'Tafel Sans Pro';-inkscape-font-specification:'Tafel Sans Pro Bold';fill:#000000;stroke-width:0.22;stroke-miterlimit:7.1"
         d="m 141.69732,138.24992 h -5.93091 v 3.20135 h 5.70626 v 3.14518 h -5.70626 v 4.47066 h 5.93091 v 3.44846 h -10.14321 v -17.71412 h 10.14321 z"
         id="path33-8" /><path
         style="font-weight:bold;font-size:37.3333px;font-family:'Tafel Sans Pro';-inkscape-font-specification:'Tafel Sans Pro Bold';fill:#000000;stroke-width:0.22;stroke-miterlimit:7.1"
         d="m 124.20675,134.80145 h 4.16737 v 17.71412 h -3.53833 l -7.0879,-10.53636 v 10.53636 h -4.16737 v -17.71412 h 3.50463 l 7.1216,10.53637 z"
         id="path32-8" /><path
         id="path30-4"
         style="font-weight:bold;font-size:37.3333px;font-family:'Tafel Sans Pro';-inkscape-font-specification:'Tafel Sans Pro Bold';fill:#000000;stroke-width:0.22;stroke-miterlimit:7.1"
         d="m 102.94046,134.47604 c -0.99597,0 -1.94622,0.12691 -2.85233,0.38152 -0.90611,0.25461 -1.741887,0.63987 -2.505722,1.15658 -0.763822,0.51671 -1.426564,1.13906 -1.988205,1.86545 -0.561635,0.7189 -0.999716,1.57593 -1.314237,2.57191 -0.314514,0.98848 -0.471781,2.05895 -0.471781,3.21218 0,1.14574 0.157267,2.21287 0.471781,3.20135 0.314521,0.98849 0.752602,1.84672 1.314237,2.57311 0.561641,0.71891 1.224383,1.33671 1.988205,1.85342 0.763835,0.51671 1.599612,0.90531 2.505722,1.16741 0.90611,0.25461 1.85636,0.38272 2.85233,0.38272 0.99598,0 1.94743,-0.12811 2.85354,-0.38272 0.90611,-0.2621 1.74068,-0.6507 2.50451,-1.16741 0.76383,-0.51671 1.42657,-1.13451 1.9882,-1.85342 0.56165,-0.72639 0.99973,-1.58462 1.31424,-2.57311 0.31452,-0.98848 0.47178,-2.05561 0.47178,-3.20135 0,-1.15323 -0.15726,-2.2237 -0.47178,-3.21218 -0.31451,-0.99598 -0.75259,-1.85301 -1.31424,-2.57191 -0.56163,-0.72639 -1.22437,-1.34874 -1.9882,-1.86545 -0.76383,-0.51671 -1.5984,-0.90197 -2.50451,-1.15658 -0.90611,-0.25461 -1.85756,-0.38152 -2.85354,-0.38152 z m 0,3.63943 c 1.47524,0 2.62554,0.46724 3.44927,1.40331 0.83123,0.92857 1.24685,2.31022 1.24685,4.1449 0,1.81223 -0.41562,3.19052 -1.24685,4.13407 -0.83122,0.93607 -1.98152,1.40451 -3.44927,1.40451 -1.46775,0 -2.61684,-0.46844 -3.448073,-1.40451 -0.831223,-0.94355 -1.246837,-2.32184 -1.246837,-4.13407 0,-1.83468 0.412269,-3.21633 1.23601,-4.1449 0.83122,-0.93607 1.98366,-1.40331 3.4589,-1.40331 z" /><path
         style="font-weight:bold;font-size:37.3333px;font-family:'Tafel Sans Pro';-inkscape-font-specification:'Tafel Sans Pro Bold';fill:#000000;stroke-width:0.22;stroke-miterlimit:7.1"
         d="m 92.515891,152.51555 h -4.144904 l -0.842456,-9.50295 -3.594496,9.50295 h -2.718334 l -3.583263,-9.50295 -0.853696,9.50295 h -4.133671 l 1.583825,-17.71412 h 3.796689 l 4.571746,12.09772 4.582979,-12.09772 h 3.751757 z"
         id="path29-3" /><path
         id="text27-1"
         style="font-weight:bold;font-size:37.3333px;font-family:'Tafel Sans Pro';-inkscape-font-specification:'Tafel Sans Pro Bold';fill:#000000;stroke-width:0.22;stroke-miterlimit:7.1"
         d="m 60.636892,134.801 -6.076548,17.71453 h 4.233969 l 1.101217,-3.4264 h 6.009149 l 1.101216,3.4264 h 4.235172 L 65.16331,134.801 Z m 2.28066,5.02106 1.931644,5.97665 h -3.898184 z" /></g></g></svg>
