<?xml version="1.0" encoding="UTF-8" standalone="no"?>
<!-- Created with Inkscape (http://www.inkscape.org/) -->

<svg
   width="322"
   height="200"
   viewBox="0 0 85.195834 52.916666"
   version="1.1"
   id="svg1"
   inkscape:version="1.4 (e7c3feb100, 2024-10-09)"
   sodipodi:docname="ccmar.svg"
   xml:space="preserve"
   xmlns:inkscape="http://www.inkscape.org/namespaces/inkscape"
   xmlns:sodipodi="http://sodipodi.sourceforge.net/DTD/sodipodi-0.dtd"
   xmlns="http://www.w3.org/2000/svg"
   xmlns:svg="http://www.w3.org/2000/svg"><sodipodi:namedview
     id="namedview1"
     pagecolor="#ffffff"
     bordercolor="#000000"
     borderopacity="0.25"
     inkscape:showpageshadow="2"
     inkscape:pageopacity="0.0"
     inkscape:pagecheckerboard="0"
     inkscape:deskcolor="#d1d1d1"
     inkscape:document-units="mm"
     inkscape:zoom="2.8284271"
     inkscape:cx="177.30703"
     inkscape:cy="54.447223"
     inkscape:window-width="2556"
     inkscape:window-height="1383"
     inkscape:window-x="0"
     inkscape:window-y="36"
     inkscape:window-maximized="1"
     inkscape:current-layer="layer1"
     showgrid="false" /><defs
     id="defs1" /><g
     inkscape:label="Layer 1"
     inkscape:groupmode="layer"
     id="layer1"><g
       style="fill:none"
       id="g1"
       transform="matrix(0.32274655,0,0,0.32274655,3.9054966,18.735475)"><g
         id="g32"
         style="fill:#41b7b9;fill-opacity:1"><path
           d="m 59.3825,11.9786 c 2.8994,-2.78074 6.8725,-4.49197 11.2752,-4.49197 4.4027,0 8.4832,1.71123 11.5973,4.70587 0.7517,0.6417 1.6108,1.0695 2.5772,1.0695 2.0403,0 3.7584,-1.6042 3.7584,-3.74328 V 9.41177 C 88.4832,8.02139 87.7315,7.16578 87.5168,6.95187 83.1141,2.45989 77.1007,0 70.6577,0 66.255,0 62.0671,1.28342 58.5235,3.31551 c -0.3222,0.2139 -0.7517,0.42781 -1.0738,0.64171 -0.1074,0.10695 -0.2148,0.10695 -0.3222,0.2139 -0.3221,0.21391 -0.6443,0.42781 -0.9664,0.74867 -2.792,2.13903 -5.047,4.81283 -6.6577,7.91441 -9.4497,19.8931 -14.8188,23.2086 -14.8188,23.2086 -3.0067,2.5668 -6.8725,4.0641 -10.8457,4.0641 -9.0201,0 -16.4295,-7.3796 -16.4295,-16.3636 0,-8.9839 7.4094,-16.25667 16.4295,-16.25667 4.4027,0 8.4832,1.71123 11.5973,4.70587 0.7517,0.6417 1.6108,1.0695 2.5772,1.0695 2.0403,0 3.7584,-1.6042 3.7584,-3.74328 V 9.41177 C 41.6644,8.02139 40.9128,7.16578 40.698,6.95187 36.2953,2.45989 30.2819,0 23.8389,0 10.7383,0 0,10.6952 0,23.8503 c 0,13.155 10.7383,23.7433 23.8389,23.7433 6.3356,0 12.349,-2.4599 16.8591,-6.9519 0.2148,-0.2139 3.7584,-3.6364 7.1946,-9.8396 3.0067,9.6257 12.1342,16.6845 22.7651,16.6845 6.3356,0 12.349,-2.4599 16.8591,-6.9518 0.7517,-0.7487 1.0738,-1.6043 1.0738,-2.6738 0,-2.0321 -1.6107,-3.7434 -3.7584,-3.7434 -0.9664,0 -1.9329,0.4279 -2.6845,1.0696 C 79.0336,38.1818 74.8456,40 70.5503,40 61.5302,40 54.1208,32.6203 54.1208,23.6364 c 0,-2.8877 0.7517,-5.6685 2.1477,-8.0214 1.0738,-1.2834 2.0402,-2.5669 3.114,-3.6364 z"
           fill="#ffffff"
           id="path1"
           style="fill:#41b7b9;fill-opacity:1" /><path
           d="m 138.524,0 c -1.396,0 -2.685,0.748663 -3.544,2.03209 L 117.906,27.7005 100.725,2.13904 C 99.9732,0.855615 98.6846,0 97.1812,0 95.3557,0 93.4229,1.39037 93.4229,3.95722 V 44.7059 c 0,2.5668 2.0402,3.7433 3.8657,3.7433 1.8255,0 3.8654,-1.1765 3.8654,-3.7433 V 16.5775 l 12.994,19.3583 c 0.751,1.3904 2.04,2.1391 3.543,2.1391 1.504,0 2.9,-0.8556 3.544,-2.0321 l 13.101,-19.5722 v 28.2353 c 0,2.4599 1.932,3.7433 3.865,3.7433 1.933,0 3.866,-1.2834 3.866,-3.7433 V 3.95722 C 142.282,1.71123 140.671,0 138.524,0 Z"
           fill="#ffffff"
           id="path2"
           style="fill:#41b7b9;fill-opacity:1" /><path
           d="M 173.96,2.45988 C 173.852,2.24597 173.745,2.13902 173.638,1.92512 173.53,1.81816 173.53,1.71121 173.423,1.60426 173.315,1.49731 173.208,1.39036 173.101,1.2834 172.993,1.17645 172.886,1.0695 172.779,1.0695 172.671,0.962549 172.564,0.962549 172.456,0.855597 172.349,0.748645 172.242,0.641693 172.134,0.641693 l -0.107,-0.106952 c -0.107,0 -0.107,-0.106952 -0.215,-0.106952 -0.107,-0.106952 -0.215,-0.106952 -0.429,-0.106952 -0.215,0 -0.215,-0.106952 -0.43,-0.106952 -0.107,0 -0.215,0 -0.429,-0.106951 -0.108,0 -0.215,0 -0.43,0 -0.215,0 -0.215,0 -0.43,0 -0.107,0 -0.214,0 -0.429,0.106951 -0.107,0 -0.215,0.106952 -0.43,0.106952 -0.107,0 -0.214,0.106952 -0.429,0.106952 -0.107,0 -0.107,0.106952 -0.215,0.106952 l -0.107,0.106952 c -0.108,0.106952 -0.215,0.106952 -0.322,0.213904 -0.108,0.106952 -0.215,0.106952 -0.323,0.213903 -0.107,0.10695 -0.214,0.2139 -0.322,0.2139 -0.107,0.10696 -0.214,0.21391 -0.322,0.32086 -0.107,0.10695 -0.107,0.2139 -0.215,0.32086 -0.107,0.10695 -0.214,0.2139 -0.214,0.4278 0,0 0,0.10696 -0.108,0.10696 L 146.47,42.4599 c -0.967,2.0321 -0.108,4.492 1.933,5.4545 0.644,0.3209 1.181,0.4278 1.825,0.4278 1.504,0 3.007,-0.8556 3.651,-2.3529 l 16,-32.5134 16,32.5134 c 0.752,1.4973 2.148,2.3529 3.651,2.3529 0.645,0 1.181,-0.1069 1.826,-0.4278 2.04,-0.9625 2.899,-3.4224 1.933,-5.4545 z"
           fill="#ffffff"
           id="path3"
           style="fill:#41b7b9;fill-opacity:1" /><path
           d="m 220.563,31.5508 11.168,14.9733 c 1.289,1.6043 2.685,1.9251 3.651,1.9251 1.503,0 2.899,-0.8556 3.544,-2.139 0.751,-1.2834 0.537,-2.8877 -0.43,-4.385 l -10.094,-12.2995 0.967,-0.3208 c 7.624,-3.1016 9.879,-10.5883 8.698,-16.6845 C 236.993,6.95192 232.375,0.427856 222.926,0.427856 h -20.51 c -2.041,0 -3.544,1.604274 -3.544,3.636364 V 44.492 c 0,2.6738 1.933,3.8503 3.973,3.8503 2.04,0 4.188,-1.2834 4.188,-4.0642 V 7.70058 h 16 c 2.47,0 4.51,0.85562 6.014,2.56682 1.288,1.4974 1.932,3.4225 1.932,5.4546 0,4.1711 -2.684,8.3422 -7.946,8.3422 -0.107,0 -2.362,0 -3.329,2.1391 -0.537,1.2834 -0.751,2.9946 0.752,5.1336 0.107,0.107 0.107,0.2139 0.107,0.2139 z"
           fill="#ffffff"
           id="path4"
           style="fill:#41b7b9;fill-opacity:1" /></g></g></g></svg>
