<?xml version="1.0" encoding="UTF-8" standalone="no"?>
<!-- Created with Inkscape (http://www.inkscape.org/) -->

<svg
   width="322"
   height="200"
   viewBox="0 0 85.195834 52.916666"
   version="1.1"
   id="svg1"
   inkscape:version="1.4 (e7c3feb100, 2024-10-09)"
   sodipodi:docname="cdisc.svg"
   xml:space="preserve"
   xmlns:inkscape="http://www.inkscape.org/namespaces/inkscape"
   xmlns:sodipodi="http://sodipodi.sourceforge.net/DTD/sodipodi-0.dtd"
   xmlns="http://www.w3.org/2000/svg"
   xmlns:svg="http://www.w3.org/2000/svg"><sodipodi:namedview
     id="namedview1"
     pagecolor="#ffffff"
     bordercolor="#000000"
     borderopacity="0.25"
     inkscape:showpageshadow="2"
     inkscape:pageopacity="0.0"
     inkscape:pagecheckerboard="0"
     inkscape:deskcolor="#d1d1d1"
     inkscape:document-units="mm"
     inkscape:zoom="2.8284271"
     inkscape:cx="177.4838"
     inkscape:cy="54.447223"
     inkscape:window-width="2556"
     inkscape:window-height="1329"
     inkscape:window-x="0"
     inkscape:window-y="90"
     inkscape:window-maximized="1"
     inkscape:current-layer="layer1" /><defs
     id="defs1" /><g
     inkscape:label="Layer 1"
     inkscape:groupmode="layer"
     id="layer1"><g
       id="logo"
       style="fill:none;fill-rule:evenodd;stroke:none;stroke-width:1"
       transform="matrix(0.4129877,0,0,0.4129877,3.7150089,13.906566)"><g
         id="Group"
         transform="translate(0.461243,17.263616)"
         fill="#0f4678"
         fill-rule="nonzero"><path
           d="M 32.756681,16.429544 C 31.045373,12.109941 26.9713,9.3400156 21.674512,9.3400156 c -7.088295,0 -11.8964904,5.0524924 -11.8964904,12.1407864 0,7.089528 4.8081954,12.14202 11.8964904,12.14202 5.296788,0 9.370861,-2.771159 11.082169,-7.089528 h 9.778021 C 40.579098,36.067019 32.593817,42.666721 21.674512,42.666721 8.9637005,42.666721 0,33.70302 0,21.480802 0,9.2585835 8.9637005,0.29611674 21.674512,0.29611674 c 10.919305,0 18.904586,6.59970186 20.86019,16.13342726 z"
           id="Shape" /></g><g
         id="g1"
         transform="translate(44.878754,1.104538)"
         fill="#0f4678"
         fill-rule="nonzero"><path
           d="m 33.952252,37.638905 c 0,-7.089528 -4.72553,-12.140786 -11.815058,-12.140786 -7.089528,0 -11.89649,5.051258 -11.89649,12.140786 0,7.089529 4.806962,12.140787 11.89649,12.140787 7.089528,0 11.815058,-5.051258 11.815058,-12.140787 z m 9.69659,-0.325728 c 0,13.037774 -8.799603,21.511648 -21.511648,21.511648 -12.710811,0 -21.67451159,-8.963701 -21.67451159,-21.18592 0,-14.259254 10.26661459,-21.184685 19.88177159,-21.184685 6.029677,0 10.837873,2.607061 13.444934,6.681134 h 0.162864 V 0.29611674 h 9.69659 z"
           id="path1" /></g><g
         id="g2"
         transform="translate(94.231544,18.494475)"
         fill="#0f4678"><rect
           id="Rectangle-path"
           x="0.93400156"
           y="0.12214816"
           width="9.6965895"
           height="40.252136" /></g><g
         id="g3"
         transform="translate(109.03738,17.263616)"
         fill="#0f4678"
         fill-rule="nonzero"><path
           d="m 23.305621,12.925496 c -0.244296,-2.444197 -2.525629,-4.1555052 -6.273973,-4.1555052 -4.318369,0 -6.436838,1.9556042 -6.436838,4.6440972 0,7.089529 23.222956,-0.488592 23.222956,16.051995 0,7.659553 -6.600936,13.200638 -16.86755,13.200638 -10.2666144,0 -16.70345205,-5.459652 -16.94898218,-12.955107 H 9.7792554 c 0.081432,2.688493 2.4441966,4.481233 7.0080966,4.481233 5.133924,0 7.251158,-1.955604 7.251158,-4.726764 0,-7.088294 -23.22172132,0.896987 -23.22172132,-16.051995 0,-7.5768867 6.27397342,-13.11797126 16.05199532,-13.11797126 9.778021,0 15.807698,5.54108456 16.051995,12.62937926 z"
           id="path2" /></g><g
         id="g4"
         transform="translate(144.81815,17.263616)"
         fill="#0f4678"
         fill-rule="nonzero"><path
           d="M 32.936818,16.429544 C 31.22551,12.109941 27.151438,9.3400156 21.855883,9.3400156 c -7.090762,0 -11.8977237,5.0524924 -11.8977237,12.1407864 0,7.089528 4.8069617,12.14202 11.8977237,12.14202 5.295555,0 9.369627,-2.771159 11.080935,-7.089528 h 9.778022 c -1.955604,9.533725 -9.940886,16.133427 -20.858957,16.133427 -12.7120448,0 -21.67574532,-8.963701 -21.67574532,-21.185919 0,-12.2222185 8.96370052,-21.18468526 21.67574532,-21.18468526 10.918071,0 18.903353,6.59970186 20.858957,16.13342726 z"
           id="path3" /></g><g
         id="g5"
         transform="translate(92.997725,0.262617)"
         fill="#0f4678"
         fill-rule="nonzero"><path
           d="m 13.580654,7.1561546 c 0,3.6249624 -2.938959,6.5639214 -6.563921,6.5639214 -3.6249625,0 -6.56392115,-2.938959 -6.56392115,-6.5639214 0,-3.6249624 2.93895865,-6.56392112 6.56392115,-6.56392112 3.624962,0 6.563921,2.93895872 6.563921,6.56392112"
           id="path4" /></g><g
         id="g6"
         transform="translate(112.73884,0.262617)"
         fill="#cb4543"
         fill-rule="nonzero"><path
           d="m 13.531301,7.1561546 c 0,3.6249624 -2.938958,6.5639214 -6.5639208,6.5639214 -3.6249625,0 -6.56392114,-2.938959 -6.56392114,-6.5639214 0,-3.6249624 2.93895864,-6.56392112 6.56392114,-6.56392112 3.6249628,0 6.5639208,2.93895872 6.5639208,6.56392112"
           id="path5" /></g><g
         id="g7"
         transform="translate(132.47996,0.262617)"
         fill="#eba921"
         fill-rule="nonzero"><path
           d="m 13.481949,7.1561546 c 0,3.6249624 -2.938959,6.5639214 -6.5639216,6.5639214 -3.6249625,0 -6.56392113,-2.938959 -6.56392113,-6.5639214 0,-3.6249624 2.93895863,-6.56392112 6.56392113,-6.56392112 3.6249626,0 6.5639216,2.93895872 6.5639216,6.56392112"
           id="path6" /></g><g
         id="g8"
         transform="translate(152.22107,0.262617)"
         fill="#9dcfca"
         fill-rule="nonzero"><path
           d="m 13.432596,7.1561546 c 0,3.6249624 -2.938959,6.5639214 -6.5639214,6.5639214 -3.6249625,0 -6.56392112,-2.938959 -6.56392112,-6.5639214 0,-3.6249624 2.93895862,-6.56392112 6.56392112,-6.56392112 3.6249624,0 6.5639214,2.93895872 6.5639214,6.56392112"
           id="path7" /></g></g></g></svg>
