<?xml version="1.0" encoding="UTF-8" standalone="no"?>
<!-- Created with Inkscape (http://www.inkscape.org/) -->

<svg
   width="322"
   height="200"
   viewBox="0 0 85.195834 52.916666"
   version="1.1"
   id="svg1"
   inkscape:version="1.4 (e7c3feb100, 2024-10-09)"
   sodipodi:docname="coop-tech-viana.svg"
   xml:space="preserve"
   xmlns:inkscape="http://www.inkscape.org/namespaces/inkscape"
   xmlns:sodipodi="http://sodipodi.sourceforge.net/DTD/sodipodi-0.dtd"
   xmlns="http://www.w3.org/2000/svg"
   xmlns:svg="http://www.w3.org/2000/svg"><sodipodi:namedview
     id="namedview1"
     pagecolor="#ffffff"
     bordercolor="#000000"
     borderopacity="0.25"
     inkscape:showpageshadow="2"
     inkscape:pageopacity="0.0"
     inkscape:pagecheckerboard="0"
     inkscape:deskcolor="#d1d1d1"
     inkscape:document-units="mm"
     inkscape:zoom="2.8284271"
     inkscape:cx="177.4838"
     inkscape:cy="54.447223"
     inkscape:window-width="2556"
     inkscape:window-height="1383"
     inkscape:window-x="0"
     inkscape:window-y="36"
     inkscape:window-maximized="1"
     inkscape:current-layer="layer1" /><defs
     id="defs1" /><g
     inkscape:label="Layer 1"
     inkscape:groupmode="layer"
     id="layer1"><g
       style="fill:none"
       id="g1"
       transform="matrix(0.6490824,0,0,0.6490824,3.9054966,14.125768)"><path
         fill-rule="evenodd"
         clip-rule="evenodd"
         d="m 36.1088,21.7679 0.3818,1.6835 c -0.734,0.2932 -1.4978,0.4968 -2.1496,0.5469 -0.4312,0.0331 -0.8624,-0.012 -1.2904,-0.074 -0.2041,-0.4905 -0.4181,-0.9711 -0.6057,-1.4696 0.7176,-0.0945 1.4419,-0.1204 2.1595,-0.2583 0.4674,-0.0906 0.9843,-0.2358 1.5044,-0.4285 z m 0.5036,2.2247 0.0362,0.1592 -1.771,2.2394 c -0.2238,0.0358 -0.4477,0.0653 -0.6683,0.0902 -0.2896,-0.6411 -0.6221,-1.2799 -0.8789,-1.9336 0.3687,0.0206 0.7209,0.0392 1.0896,-0.002 0.6551,-0.0732 1.4353,-0.2696 2.1924,-0.5532 z M 8.58525,34.9984 6.28751,32.0977 c 0.26994,0.1271 0.52999,0.2664 0.78018,0.4322 0.64192,0.4229 1.15874,0.9863 1.76445,1.444 -0.07901,0.3397 -0.1613,0.6833 -0.24689,1.0245 z M 5.54354,31.1572 2.99562,27.9394 c 0.02304,0.005 0.04277,0.0099 0.06252,0.0149 0.46416,0.1128 0.93493,0.2166 1.38592,0.3715 0.55304,0.1907 1.0896,0.4441 1.62947,0.6776 0.54975,0.2384 1.10938,0.4799 1.61963,0.7996 0.52999,0.332 0.99084,0.7648 1.46158,1.1741 -0.04938,0.7734 -0.08889,1.577 -0.21398,2.3425 C 8.40747,32.8516 7.88409,32.3664 7.28167,31.9876 6.73521,31.6434 6.13937,31.3979 5.54354,31.1572 Z M 2.42283,27.2154 0.826269,25.1982 c 1.915881,-0.1731 3.838331,0.0816 5.619251,0.8653 0.98756,0.4332 1.86981,0.921 2.69278,1.6242 0.12839,0.8563 0.10205,1.7216 0.0856,2.5846 C 8.79266,29.9081 8.36469,29.5493 7.88078,29.2557 7.38041,28.9503 6.84711,28.7284 6.31054,28.4946 5.78712,28.2664 5.27032,28.023 4.73045,27.8352 4.22021,27.6581 3.69021,27.5381 3.1668,27.4074 2.91991,27.3457 2.67301,27.2777 2.42283,27.2154 Z m 31.11497,0.8669 -0.1086,0.1397 c -0.6189,-0.2737 -1.2016,-0.604 -1.8501,-0.8119 -0.8493,-0.2723 -1.7249,-0.2773 -2.6071,-0.347 -0.823,-0.0653 -1.6263,-0.1495 -2.4525,-0.129 -2.2484,0.1088 -4.7206,0.3503 -6.8274,1.1671 -0.4378,0.1695 -0.8098,0.4673 -1.2411,0.6511 l -0.0395,0.0169 c -0.2403,-0.6348 -0.4839,-1.2659 -0.6945,-1.9114 0.0131,-0.0155 0.023,-0.0311 0.0395,-0.0457 0.2896,-0.3178 0.7242,-0.533 1.1093,-0.7217 0.3621,-0.1801 0.7341,-0.3605 1.116,-0.4988 1.3595,-0.4915 2.9232,-0.6637 4.3617,-0.7297 2.1299,-0.1234 5.5041,0.2919 7.443,1.2096 1.083,0.5134 1.376,0.993 1.7513,2.0108 z m -0.4345,0.5506 -1.274,1.6089 c -1.7315,-0.5556 -3.045,-0.5824 -4.9543,-0.6438 -0.7374,0.0057 -1.4649,0.0916 -2.1957,0.1768 -1.1061,0.129 -2.1957,0.2716 -3.2787,0.5555 -0.5991,0.1579 -1.1917,0.3695 -1.7776,0.5728 -0.3325,-0.5396 -0.6749,-1.0759 -0.9876,-1.6261 0.3588,-0.2216 0.7209,-0.4388 1.1094,-0.6099 2.0706,-0.9178 4.7699,-1.0859 7.015,-1.2322 0.6551,-0.0361 1.2608,0.07 1.906,0.1281 0.6913,0.062 1.3991,0.0862 2.0805,0.2109 0.7538,0.137 1.6064,0.466 2.357,0.859 z m -1.6098,2.0317 -1.5175,1.9167 c -0.0724,-0.0166 -0.1448,-0.0325 -0.2173,-0.0481 -0.6024,-0.1174 -1.2279,-0.1363 -1.8369,-0.1718 -0.5991,-0.0345 -1.1982,-0.0846 -1.7973,-0.0683 -1.6229,0.0441 -3.2491,0.4517 -4.7865,0.9558 -0.5168,-0.6016 -0.9875,-1.2377 -1.4549,-1.8792 0.5563,-0.186 1.1159,-0.3946 1.6821,-0.5422 1.5669,-0.409 3.1635,-0.5559 4.77,-0.6948 0.576,-0.0475 1.1587,0.0228 1.7315,0.0474 0.6946,0.0292 1.3957,0.0504 2.0838,0.1615 0.4509,0.0736 0.9019,0.1854 1.343,0.323 z m -1.8796,2.3764 -1.511,1.9074 c -0.4345,-0.0219 -0.8789,-0.0312 -1.3497,-0.0322 -0.5003,-0.001 -1.004,-0.0163 -1.4978,0.0424 -0.7505,0.0886 -1.5143,0.2869 -2.2253,0.5393 -0.4839,-0.597 -0.9283,-1.1996 -1.3596,-1.8367 0.5893,-0.129 1.1621,-0.3181 1.748,-0.4624 0.8296,-0.2049 1.7118,-0.3382 2.5644,-0.3933 0.1547,-0.0219 0.3292,-0.0143 0.4872,-0.0143 0.474,-3e-4 0.9448,0.0345 1.4188,0.0694 0.5761,0.0427 1.1522,0.0815 1.725,0.1804 z M 27.7144,35.4402 26.48,37 h -2.2286 c -0.27,-0.3751 -0.5498,-0.7429 -0.8098,-1.1217 0.6781,-0.1336 1.3431,-0.3751 2.0344,-0.4262 0.7736,-0.0391 1.5109,-0.0444 2.2384,-0.0119 z M 21.6606,37 H 19.33 c 0.102,-0.0425 0.2041,-0.0859 0.3062,-0.13 0.6583,-0.2856 1.2673,-0.6441 1.8829,-1.0099 0.2239,0.0156 0.6452,0.5476 0.7999,0.7101 -0.214,0.1419 -0.4345,0.2879 -0.6584,0.4298 z m -3.9403,0 H 10.1687 L 9.64193,36.3337 c 0.26335,0.0534 0.52997,0.1094 0.79667,0.1486 0.4477,0.0656 0.9053,0.066 1.3562,0.0879 0.428,0.0209 0.8559,0.0474 1.2839,0.0321 0.5234,-0.0185 1.0435,-0.0988 1.5603,-0.1854 2.1562,-0.3631 3.8022,-1.1565 5.5502,-2.4615 0.0099,0.0013 0.023,0.001 0.0329,0.0036 0.2502,0.0627 0.8756,1.1658 1.0402,1.4341 -1.1554,0.6995 -2.324,1.2215 -3.542,1.6069 z M 0.434512,24.7024 0,24.1518 0.207391,23.2321 c 0.404903,-0.1562 0.816389,-0.2855 1.237759,-0.3654 0.60241,-0.1148 1.22457,-0.1413 1.83686,-0.1831 1.21471,-0.076 2.6039,0.19 3.71327,0.7028 0.55633,0.2573 1.07973,0.586 1.59985,0.9051 0.17118,0.8467 0.35552,1.7047 0.4444,2.5644 C 7.86762,26.097 6.65621,25.447 5.30983,25.0593 3.46307,24.6145 2.14959,24.4842 0.434512,24.7024 Z M 0.34892,22.6023 0.753817,20.8147 C 1.62946,20.4349 2.61706,20.2326 3.53879,20.1334 c 0.26993,-0.0461 0.58924,-3e-4 0.86247,0.017 1.36943,0.0872 2.05085,0.3097 3.2458,0.9478 0.26336,0.8352 0.5596,1.6587 0.83941,2.4882 C 8.13424,23.4136 7.80179,23.2003 7.44956,23.0255 6.55087,22.5801 5.60936,22.342 4.62179,22.1997 3.4005,22.0713 1.83688,22.1383 0.658379,22.4988 0.553038,22.5307 0.450969,22.5655 0.34892,22.6023 Z m 0.53658,-2.366 0.35226,-1.5565 c 0.96452,-0.5131 1.85661,-0.802 2.98902,-0.9479 0.79335,-0.1254 1.69534,0.3565 2.39651,0.6769 0.15801,0.3522 0.26993,0.7217 0.40819,1.0816 0.11522,0.3084 0.26005,0.6079 0.39501,0.9077 C 5.97477,19.7573 5.08597,19.6041 3.5289,19.6121 2.594,19.6575 1.74468,19.9225 0.8855,20.2363 Z m 0.50697,-2.2368 0.44769,-1.9713 c 0.5662,-0.3572 1.17191,-0.5314 1.89284,-0.596 0.58266,-0.1052 1.35956,0.2547 1.90272,0.462 0.28311,0.588 0.52998,1.2129 0.7637,1.8231 C 5.03329,17.2268 4.81933,17.1051 3.3676,17.3313 2.57755,17.4818 2.04755,17.7097 1.39247,17.9995 Z m 0.5991,-2.6526 0.36869,-1.6138 C 2.67628,13.6253 3.00877,13.56 3.39063,13.5268 3.88112,13.5016 4.26629,13.5052 4.72716,13.6893 4.90821,14.1954 5.10572,14.6926 5.29665,15.1944 4.5033,14.8985 3.81199,14.8179 2.97585,14.9897 2.6269,15.076 2.30759,15.2037 1.99157,15.3469 Z M 2.48865,13.1623 2.8837,11.4224 c 0.47404,0.0196 0.9283,0.1463 1.38258,0.3051 0.08888,0.4299 0.158,0.8677 0.23701,1.3001 C 3.95025,12.9981 3.42686,13.0011 2.87382,13.0654 2.74214,13.0956 2.61374,13.1278 2.48865,13.1623 Z M 3.0055,10.8861 3.39063,9.17276 C 3.63752,9.25037 3.88112,9.35849 4.1313,9.48618 4.14776,10.0294 4.18399,10.571 4.19058,11.1146 3.79884,11.0194 3.40711,10.9266 3.0055,10.8861 Z M 3.51243,8.64243 3.62767,8.13035 4.26628,7.82091 C 4.23336,8.17745 4.20373,8.53431 4.18069,8.89184 3.95355,8.79997 3.73627,8.70976 3.51243,8.64243 Z m 2.08379,-1.46726 0.2831,-0.1373 c 0.82297,0.26565 1.6196,0.59997 2.45903,0.82351 1.24434,0.33099 2.51175,0.3824 3.79225,0.37278 0.5564,-0.00398 1.116,-0.01161 1.6723,-0.07097 0.5168,-0.05539 1.0304,-0.16053 1.5439,-0.23515 0.4839,-0.07031 0.9777,-0.09187 1.455,-0.20298 0.4642,-0.10812 0.9152,-0.26798 1.3661,-0.41988 0.4642,-0.15621 0.9317,-0.30678 1.3794,-0.49981 0.6353,-0.27262 1.2377,-0.6799 1.8335,-1.0308 0.0363,0.03516 0.0823,1.62912 0.0922,1.82314 -0.3193,0.14228 -0.6254,0.30645 -0.9447,0.44973 -0.3556,0.16284 -0.7177,0.3111 -1.0864,0.44442 C 19.0765,8.62552 18.7045,8.74392 18.326,8.84707 17.8124,8.98471 17.289,9.05203 16.7656,9.12865 16.3212,9.19332 15.8768,9.27292 15.4324,9.32466 14.988,9.3764 14.5403,9.39862 14.0926,9.43875 13.5,9.49215 12.9108,9.57838 12.3182,9.60027 11.8343,9.61818 11.3505,9.58402 10.8698,9.59563 10.33,9.60856 9.7835,9.6855 9.24363,9.64803 8.90456,9.62415 8.56551,9.55616 8.22644,9.5074 7.27508,9.36976 6.3632,9.21753 5.44477,8.93396 L 5.47113,8.58605 C 5.52051,8.11642 5.55672,7.6458 5.59622,7.17517 Z M 6.5344,6.72013 9.2239,5.41472 c 0.8954,0.16683 1.8039,0.22188 2.7191,0.28689 0.5102,0.03615 1.004,0.10912 1.5143,0.06799 0.4312,-0.03516 0.846,-0.15655 1.2706,-0.23614 0.5004,-0.09453 1.0139,-0.16749 1.511,-0.28888 0.4609,-0.1121 0.8987,-0.29119 1.3464,-0.44243 C 17.9836,4.66749 18.3918,4.568 18.7868,4.4214 19.5275,4.1448 20.2221,3.76803 20.92,3.39458 l 0.0329,0.02488 c 0.214,0.54558 0.349,1.1482 0.4115,1.72894 C 20.4723,5.66513 19.702,6.19976 18.7276,6.56923 18.0593,6.82295 17.368,7.05942 16.6702,7.21564 16.206,7.31945 15.7254,7.35294 15.2546,7.41629 14.7773,7.48063 14.3,7.58212 13.8227,7.63253 13.0919,7.70848 12.3545,7.70019 11.6204,7.70251 11.0081,7.70417 10.3859,7.72639 9.77691,7.64115 8.76301,7.49954 7.5516,7.13405 6.5344,6.72013 Z m 3.496,-1.6961 3.6902,-1.78997 c 0.7933,-0.06268 1.6822,-0.18672 2.3702,-0.36018 0.4608,-0.11675 0.9085,-0.29053 1.3595,-0.43547 0.53,-0.16915 1.083,-0.31939 1.5834,-0.56714 0.1712,-0.08524 0.3358,-0.18241 0.5004,-0.2839 l 1.0304,0.49948 c 0.0921,0.28324 0.1679,0.56482 0.2172,0.76049 -0.576,0.32006 -1.1489,0.64906 -1.7513,0.90942 -0.5333,0.2305 -1.0929,0.37709 -1.6459,0.55652 -0.3358,0.10945 -0.665,0.24609 -1.0007,0.35388 C 15.8406,4.84029 15.2579,4.88937 14.6983,4.9756 14.3494,5.02967 14.0201,5.18588 13.6712,5.2217 13.049,5.28538 12.4137,5.2343 11.7915,5.19417 11.1891,5.15503 10.6032,5.10562 10.0304,5.02403 Z m 12.101,-2.17735 0.9547,0.46399 C 22.8523,3.41747 22.6219,3.53454 22.3882,3.65792 22.296,3.38928 22.2104,3.11864 22.1314,2.84668 Z m 1.6262,0.78968 2.6664,1.29348 C 25.6669,4.98456 24.9164,5.1295 24.1987,5.3726 23.6852,5.54672 23.1881,5.78651 22.6976,6.01337 22.6581,5.38819 22.6054,4.79087 22.5133,4.171 22.9544,3.95177 23.3626,3.77632 23.7576,3.63636 Z m 3.677,1.784 4.9675,2.4105 C 32.1124,8.24312 31.826,8.65338 31.5528,9.08255 30.6014,8.42785 29.7982,8.11244 28.6823,7.86403 28.3268,7.76453 27.9087,7.72838 27.5433,7.6856 25.5352,7.45111 24.4522,7.91146 22.668,8.68953 22.6976,7.99703 22.7141,7.30419 22.7108,6.61135 24.281,5.85583 25.0447,5.57591 26.7861,5.43429 27.0034,5.42401 27.2174,5.41704 27.4346,5.42036 Z m 5.8432,3.83996 0.5464,2.41908 C 33.258,11.4974 32.7017,11.2267 32.0565,10.851 l 0.9974,-1.72666 c 0.0757,0.04709 0.1514,0.09253 0.2239,0.13598 z m 0.6814,3.01018 0.5826,2.575 c -0.7143,0.0378 -1.4352,-0.0445 -2.11,-0.2902 -0.4675,-0.1712 -0.9086,-0.4096 -1.3498,-0.6435 0.214,-0.8586 0.5169,-1.7004 0.7934,-2.5411 0.3391,0.1771 0.6682,0.3797 1.0172,0.5349 0.3522,0.1566 0.7077,0.2763 1.0666,0.3649 z m 0.7011,3.1076 0.3885,1.7081 c -1.2838,0.4086 -2.6335,0.4059 -3.9898,0.0454 -0.1646,-0.8822 -0.1778,-1.7591 -0.102,-2.651 0.2337,0.0806 0.4641,0.2146 0.6847,0.3184 1.0336,0.4796 2.0179,0.6554 3.0186,0.5791 z m 0.4971,2.1847 0.3358,1.4845 c -1.2081,0.3761 -2.5315,0.4623 -3.7462,0.387 -0.0691,-0.0199 -0.1415,-0.0385 -0.1975,-0.0812 -0.2666,-0.2024 -0.3391,-1.2683 -0.3852,-1.6215 0.3984,0.067 0.7934,0.1436 1.195,0.1751 1.004,0.0789 1.9159,-0.0567 2.7981,-0.3439 z m 0.4543,2.0035 0.3819,1.6842 c -0.0231,0.0079 -0.0428,0.0162 -0.0659,0.0242 -0.102,0.0381 -0.2074,0.0739 -0.3094,0.1081 -0.1054,0.0338 -0.2074,0.066 -0.3127,0.0959 -0.1054,0.0298 -0.2107,0.0573 -0.3194,0.0832 -0.1053,0.0255 -0.2106,0.0491 -0.3193,0.0707 -0.688,0.1416 -1.4023,0.2006 -2.1002,0.2712 l -0.2732,0.007 c -0.3588,-0.6023 -0.5235,-1.3124 -0.721,-1.9807 1.33,0.1881 2.7422,0.0631 4.0392,-0.3638 z M 15.1657,2.53227 18.3227,1 18.9613,1.30844 C 18.8099,1.39036 18.6584,1.46565 18.5037,1.53099 18.0626,1.71572 17.5919,1.83413 17.1376,1.98404 16.7129,2.12433 16.2916,2.28153 15.857,2.388 15.6299,2.44372 15.3995,2.49147 15.1657,2.53227 Z m 4.9708,11.00743 c 0.0296,0.0073 0.0099,4e-4 0.0527,0.0332 -0.0165,0.3632 -1.1785,2.3093 -1.432,2.7405 -0.2271,0.0657 -0.4543,0.1091 -0.6781,0.1854 -0.3852,0.1317 -0.7572,0.2942 -1.1522,0.3897 -0.451,0.1078 -0.9283,0.136 -1.3826,0.2126 -0.339,0.0567 -0.6814,0.126 -1.0238,0.1671 -0.3818,0.0465 -0.7703,0.066 -1.1521,0.1055 -0.6222,0.0637 -1.2444,0.1549 -1.8698,0.1735 C 10.2147,17.5853 8.77289,17.373 7.52527,17.0911 7.4298,16.8059 7.30471,16.525 7.19608,16.2447 6.97223,15.6975 6.72533,15.1579 6.49161,14.6156 c 0.73409,0.1589 1.47805,0.2169 2.21214,0.3556 0.59583,0.1121 1.1884,0.3101 1.79415,0.3509 0.7703,0.0517 1.5636,-0.0551 2.3273,-0.1317 1.5176,-0.1512 3.338,-0.3469 4.793,-0.7476 0.8691,-0.2388 1.6789,-0.5837 2.5183,-0.9031 z m 5.2539,2.5618 c 1.5834,-0.0405 3.2326,0.5041 4.444,1.5452 0.1877,0.5429 0.2305,1.1143 0.3161,1.6782 0.0427,0.264 0.1053,0.5237 0.1678,0.7833 -0.6682,-0.3054 -1.3332,-0.5658 -2.0179,-0.8211 -0.4115,-0.1526 -0.823,-0.3446 -1.241,-0.463 -1.409,-0.3994 -3.0187,-0.3728 -4.4474,-0.1035 -1.6723,0.3694 -3.1898,1.0414 -4.7239,1.786 0.3391,-0.7512 0.6485,-1.602 1.195,-2.2275 0.2304,-0.2646 0.5135,-0.4769 0.8131,-0.652 0.9876,-0.5708 2.8607,-1.1383 3.9964,-1.3502 0.5003,-0.0935 0.9908,-0.1406 1.4978,-0.1754 z m -9.2272,9.3707 c 0.2008,0.2855 0.2403,1.2971 0.2765,1.6712 -0.2107,0.1343 -0.4214,0.2551 -0.6518,0.3489 -0.8658,0.3526 -2.5578,0.7588 -3.4993,0.7638 -0.5102,0.0027 -0.9941,-0.0935 -1.4912,-0.1937 -0.0889,-0.0156 -0.1646,-0.0212 -0.237,-0.0779 -0.2041,-0.406 -0.2337,-1.1472 -0.2732,-1.6095 2.008,0.1548 3.9897,-0.214 5.876,-0.9028 z M 21.3742,8.24544 21.3973,8.266 c 0.0494,0.30811 -0.1185,1.32034 -0.1712,1.67588 -0.3193,0.19132 -0.6452,0.37282 -0.9875,0.51602 -0.563,0.2355 -1.1687,0.3785 -1.7612,0.5337 -0.9184,0.2484 -1.8468,0.4567 -2.785,0.6245 -0.9382,0.1678 -1.8829,0.2948 -2.831,0.3811 -0.4279,0.0358 -0.8592,0.0464 -1.2871,0.0673 -0.5498,0.0262 -1.1094,0.0813 -1.65911,0.0574 C 9.27656,12.094 8.64121,11.9484 8.01246,11.826 7.17632,11.6625 6.43566,11.5587 5.63902,11.2284 5.60281,11.2015 5.56987,11.1717 5.54354,11.1382 5.30652,10.8476 5.39211,9.87654 5.41515,9.49016 c 0.6485,0.19369 1.29044,0.30347 1.95541,0.42286 0.52999,0.09548 1.06328,0.19998 1.60315,0.23678 0.62875,0.0428 1.25419,-0.0341 1.87969,-0.0467 0.53,-0.0106 1.0599,0.0308 1.5899,0.0089 0.665,-0.0275 1.33,-0.11971 1.9884,-0.18604 1.4517,-0.1456 2.8935,-0.28324 4.3057,-0.66465 0.9218,-0.24841 1.7777,-0.61058 2.6368,-1.01587 z m -5.448,14.80326 0.0461,0.006 c 0.1317,0.2023 0.125,1.585 0.1349,1.8951 -0.4872,0.1605 -0.9711,0.3254 -1.4649,0.4613 -0.3357,0.0932 -0.6781,0.1907 -1.0204,0.2544 -0.6123,0.1131 -2.9265,0.4206 -3.3841,0.1108 -0.0626,-0.0431 -0.0757,-0.0942 -0.0922,-0.1648 -0.17447,-0.6982 -0.28309,-1.4427 -0.40489,-2.1528 0.56619,0.0902 1.12249,0.0995 1.69199,0.1151 0.5465,0.0149 1.1028,0.0593 1.646,0.0278 0.9349,-0.054 1.9422,-0.3161 2.8475,-0.5529 z m 8.0947,-4.0034 c 0.9053,-0.13 2.3537,0.135 3.2327,0.4079 0.3456,0.1081 0.6814,0.264 1.0238,0.3897 0.4938,0.1818 0.9941,0.3622 1.4715,0.5874 0.237,0.1111 0.5431,0.2574 0.7143,0.4617 0.1613,0.1923 0.6452,1.6931 0.7703,2.0347 -2.2648,-1.1492 -4.5066,-1.5174 -7.0249,-1.5048 -1.7316,0.0558 -3.5191,0.2352 -5.1255,0.9383 -0.6189,0.2716 -1.2015,0.6176 -1.8039,0.929 0.0493,-0.6046 0.0592,-1.4447 0.4542,-1.9313 0.6123,-0.7515 3.6014,-1.7843 4.612,-2.037 0.553,-0.1387 1.1093,-0.2236 1.6755,-0.2756 z M 26.1475,8.13101 c 1.0501,-0.11176 2.6862,0.19403 3.654,0.6023 0.5267,0.22055 1.0073,0.51706 1.4945,0.80626 -0.2864,0.65043 -0.5596,1.30643 -0.8197,1.96803 -0.9447,-0.652 -1.8664,-1.1054 -3.0219,-1.2294 -1.8731,-0.2027 -3.598,0.2779 -5.2275,1.1817 0.0757,-0.3864 0.1448,-0.7738 0.2139,-1.1618 0.0494,-0.30979 0.0856,-0.6252 0.1581,-0.93132 1.1949,-0.66365 2.1792,-1.06562 3.5486,-1.23577 z m -7.443,23.87119 c 0.2601,0.2013 0.9317,1.2016 1.172,1.5303 -0.6025,0.3917 -1.1687,0.855 -1.7974,1.2036 -1.4649,0.8119 -3.2557,1.2603 -4.9181,1.3429 -0.7835,0.0388 -1.6163,-10e-4 -2.3998,-0.071 -0.3522,-0.0431 -0.7111,-0.1217 -1.06329,-0.1861 0.16459,-0.6474 0.29956,-1.2841 0.41149,-1.9422 3.4762,0.6849 5.639,-0.0235 8.5951,-1.8775 z M 17.401,29.8239 c 0.1777,0.0547 0.9348,1.4417 1.0698,1.6702 -0.0033,0.0043 -0.0099,0.0086 -0.0132,0.0126 -0.4147,0.3393 -0.9151,0.6259 -1.3825,0.8792 -1.9028,1.0265 -3.8022,1.3907 -5.9353,1.1439 -0.3095,-0.0441 -0.6156,-0.1018 -0.9218,-0.1548 0.1317,-0.7755 0.1712,-1.5403 0.2601,-2.319 0.4016,0.1108 0.7966,0.2494 1.2147,0.2799 1.7019,0.1244 4.1313,-0.8789 5.7082,-1.512 z m -0.8461,-2.1273 c 0.1547,0.071 0.5893,1.3797 0.6782,1.6142 -1.6624,0.7174 -4.3355,1.8523 -6.1361,1.3857 l -0.5958,-0.2226 c -0.0132,-0.6391 -0.0034,-1.2822 0.0098,-1.9213 0.6156,0.0999 1.2476,0.2272 1.8731,0.2246 1.0896,-0.0047 3.2195,-0.5652 4.1708,-1.0806 z m 1.6427,-10.7189 c 0.0263,-7e-4 0.0527,0.0056 0.079,0.0093 0.0263,0.1141 -0.2436,0.4643 -0.3095,0.5685 -0.4707,0.7382 -0.8097,1.5322 -1.2212,2.301 -1.2246,0.332 -2.8014,0.6955 -4.0655,0.6962 -0.5827,3e-4 -1.172,-0.0836 -1.7513,-0.1284 C 10.1588,20.3646 9.46089,20.3179 8.70705,20.1358 L 8.48322,19.6336 C 8.21658,18.9929 7.97296,18.3508 7.76886,17.6868 c 1.15875,0.2162 2.37014,0.3761 3.54864,0.3851 0.6815,0.0049 1.3629,-0.1049 2.0377,-0.1752 0.4082,-0.0428 0.8197,-0.0607 1.2312,-0.1054 0.3917,-0.0428 0.7868,-0.1247 1.1785,-0.1927 0.8625,-0.1499 1.6163,-0.2697 2.4327,-0.6209 z m -1.8073,3.4984 0.0725,0.0019 c 0.0263,0.0495 0.0164,0.068 0.0065,0.1231 -0.0395,0.2444 -0.1218,0.4918 -0.1777,0.7336 -0.0856,0.3645 -0.1613,0.7303 -0.2338,1.0971 -0.8723,0.3135 -2.2582,0.6183 -3.1799,0.6531 -0.4444,0.0169 -0.8954,-0.0265 -1.3398,-0.0338 -0.6485,-0.011 -1.2641,-0.0186 -1.90272,-0.1582 L 9.43129,22.3824 c -0.20081,-0.5343 -0.372,-1.0682 -0.51026,-1.6221 0.33248,0.0119 0.67156,0.0783 1.00404,0.1114 0.89213,0.0896 1.81383,0.1824 2.70923,0.1917 1.1785,0.0123 2.6071,-0.3313 3.756,-0.5873 z m 9.4478,-7.2465 c 0.9546,-0.0471 2.0212,-0.0909 2.9232,0.2703 0.3522,0.1413 0.6814,0.3367 1.0139,0.5211 -0.1712,0.9634 -0.1613,1.8828 -0.0724,2.8529 -0.3161,-0.1801 -0.6222,-0.3844 -0.9514,-0.5443 -1.5307,-0.7472 -3.0911,-0.8722 -4.7535,-0.6039 -1.3892,0.2338 -2.8442,0.7296 -4.1313,1.3011 0.2897,-0.5237 0.5662,-1.1124 0.9513,-1.5698 0.3128,-0.3711 0.7637,-0.5814 1.1785,-0.8119 1.1884,-0.6583 2.4722,-1.3011 3.8417,-1.4155 z m -4.7864,-2.5591 0.0296,0.0276 c -0.0165,0.4712 -0.3819,1.6258 -0.586,2.0496 -0.0493,0.0309 -0.0987,0.061 -0.1481,0.0906 -2.041,1.2099 -5.4876,1.6805 -7.8314,1.8629 -0.6321,0.0491 -1.2707,0.1161 -1.906,0.0876 C 9.97773,14.7602 9.39178,14.5526 8.77291,14.4455 7.94335,14.3006 7.11049,14.2389 6.29081,14.0269 6.17559,13.8986 6.09657,13.7596 6.02744,13.6037 5.8003,13.0605 5.6423,12.3577 5.55013,11.7746 c 0.16459,0.0508 0.32589,0.1088 0.48719,0.1609 0.52012,0.1675 1.06328,0.2341 1.59986,0.3373 0.74397,0.1433 1.48792,0.3253 2.24835,0.3582 0.69127,0.0298 1.39247,-0.0309 2.08377,-0.075 1.1226,-0.0716 2.2418,-0.1675 3.3544,-0.3442 1.116,-0.1775 2.2122,-0.4352 3.3051,-0.7194 0.8362,-0.2173 1.6525,-0.4216 2.4229,-0.8219 z m 5.6949,0.0843 c 1.3859,-0.0727 2.413,0.5661 3.5487,1.2527 -0.158,0.4835 -0.293,0.9687 -0.4214,1.4612 -0.2008,-0.1227 -0.4049,-0.2533 -0.6188,-0.3568 -1.0798,-0.523 -2.9759,-0.5396 -4.1478,-0.3151 -0.2963,0.0567 -0.5761,0.1502 -0.8592,0.2501 -0.5893,0.1976 -1.1555,0.4165 -1.7085,0.7011 -0.4444,0.2275 -0.8658,0.4885 -1.3003,0.7273 0.1844,-0.5499 0.5761,-1.8858 0.9316,-2.2887 0.2074,-0.2342 0.507,-0.3944 0.7802,-0.5357 1.1982,-0.6195 2.4722,-0.8053 3.7955,-0.8961 z m -2.6467,11.1626 c 0.2568,-0.0076 0.5136,-0.0086 0.7736,-0.0026 0.2601,0.0056 0.5169,0.0182 0.7736,0.0375 0.2601,0.0189 0.5169,0.0447 0.7737,0.0772 0.2567,0.0325 0.5102,0.0717 0.7669,0.1175 0.2535,0.0457 0.507,0.0981 0.7605,0.1568 0.2502,0.0591 0.5003,0.1244 0.7505,0.196 0.2469,0.072 0.4938,0.1503 0.7374,0.2349 0.2469,0.0845 0.4872,0.1754 0.7275,0.2722 0.8493,0.3493 1.2806,0.5887 1.6986,1.4265 0.2239,0.4497 0.4082,0.9237 0.6025,1.3873 -0.3193,-0.1528 -0.6288,-0.3127 -0.9613,-0.4397 -1.9257,-0.7403 -4.1642,-1.0083 -6.2151,-1.0497 -0.9349,-0.0116 -1.8599,0.0673 -2.7849,0.1738 -0.5958,0.0686 -1.1884,0.1339 -1.7678,0.2872 -0.5629,0.1482 -1.0797,0.3548 -1.6097,0.5844 -0.5596,0.2411 -0.9645,0.4238 -1.455,0.7979 -0.2502,-0.661 -0.2831,-1.4046 -0.3983,-2.0994 1.6657,-1.5717 4.6218,-2.0712 6.8273,-2.1578 z"
         fill="#FFEC9E"
         id="path1"
         style="fill:#000000" /><path
         d="m 48.879,14.1912 h 1.2555 v 2.2578 c -0.2435,0.1731 -0.5555,0.3086 -0.9359,0.4064 -0.3729,0.0979 -0.7571,0.1468 -1.1528,0.1468 -0.5022,0 -0.9816,-0.0715 -1.4381,-0.2145 -0.4489,-0.1505 -0.8446,-0.3876 -1.187,-0.7112 -0.3424,-0.3312 -0.6163,-0.7564 -0.8218,-1.2757 -0.2054,-0.5268 -0.3081,-1.1628 -0.3081,-1.9078 0,-0.7752 0.1141,-1.4225 0.3424,-1.9417 0.2359,-0.5269 0.5364,-0.9483 0.9016,-1.26442 0.3653,-0.32362 0.7723,-0.55317 1.2213,-0.68864 0.4489,-0.14299 0.8902,-0.21449 1.3239,-0.21449 0.4566,0 0.8408,0.03763 1.1528,0.11289 0.3196,0.07526 0.5821,0.16181 0.7875,0.25965 V 11.5044 H 48.7648 V 10.2175 C 48.529,10.1798 48.2855,10.161 48.0344,10.161 c -0.2968,0 -0.5745,0.0565 -0.8332,0.1694 -0.2511,0.1053 -0.4718,0.2709 -0.662,0.4967 -0.1902,0.2258 -0.3386,0.5117 -0.4451,0.8579 -0.1065,0.3387 -0.1598,0.7414 -0.1598,1.208 0,0.4064 0.0495,0.7789 0.1484,1.1176 0.0989,0.3311 0.2435,0.6171 0.4337,0.858 0.1902,0.2408 0.4223,0.4289 0.6962,0.5644 0.2739,0.128 0.5859,0.1919 0.9359,0.1919 0.2511,0 0.4946,-0.0226 0.7305,-0.0677 z"
         fill="#DBE2EA"
         id="path2"
         style="fill:#000000" /><path
         d="m 51.0659,12.893 c 0,-0.6397 0.0609,-1.2155 0.1826,-1.7273 0.1218,-0.5117 0.3082,-0.9407 0.5593,-1.28691 0.2511,-0.35372 0.563,-0.62466 0.9359,-0.81281 0.3804,-0.18815 0.8255,-0.28223 1.3353,-0.28223 0.5479,0 1.012,0.1016 1.3925,0.30481 0.3804,0.2032 0.6886,0.48543 0.9245,0.84668 0.2435,0.36126 0.4185,0.79396 0.525,1.29826 0.1141,0.5042 0.1712,1.0574 0.1712,1.6595 0,1.2869 -0.2511,2.2954 -0.7533,3.0254 -0.4946,0.7225 -1.2479,1.0838 -2.2599,1.0838 -0.5478,0 -1.0158,-0.1016 -1.4038,-0.3048 -0.3805,-0.2032 -0.6924,-0.4854 -0.9359,-0.8467 -0.2359,-0.3612 -0.4071,-0.794 -0.5136,-1.2982 -0.1065,-0.5043 -0.1598,-1.0574 -0.1598,-1.6595 z m 1.6435,0 c 0,0.3838 0.0153,0.7413 0.0457,1.0724 0.038,0.3312 0.1027,0.6209 0.194,0.8693 0.0989,0.2408 0.2359,0.4327 0.4109,0.5757 0.1826,0.143 0.4223,0.2145 0.719,0.2145 0.2664,0 0.487,-0.0527 0.662,-0.158 0.175,-0.1129 0.3158,-0.2822 0.4223,-0.508 0.1065,-0.2258 0.1788,-0.508 0.2169,-0.8467 0.0456,-0.3462 0.0685,-0.7526 0.0685,-1.2192 0,-0.3688 -0.0153,-0.7188 -0.0457,-1.0499 -0.0228,-0.3312 -0.0837,-0.6209 -0.1826,-0.8693 -0.0913,-0.2483 -0.2283,-0.444 -0.4109,-0.587 -0.1826,-0.1505 -0.4261,-0.2258 -0.7305,-0.2258 -0.5326,0 -0.894,0.2296 -1.0842,0.6887 -0.1903,0.459 -0.2854,1.1401 -0.2854,2.0433 z"
         fill="#DBE2EA"
         id="path3"
         style="fill:#000000" /><path
         d="m 57.9095,12.893 c 0,-0.6397 0.0609,-1.2155 0.1826,-1.7273 0.1218,-0.5117 0.3082,-0.9407 0.5593,-1.28691 0.2511,-0.35372 0.563,-0.62466 0.9359,-0.81281 0.3804,-0.18815 0.8256,-0.28223 1.3354,-0.28223 0.5478,0 1.0119,0.1016 1.3924,0.30481 0.3804,0.2032 0.6886,0.48543 0.9245,0.84668 0.2435,0.36126 0.4185,0.79396 0.525,1.29826 0.1141,0.5042 0.1712,1.0574 0.1712,1.6595 0,1.2869 -0.2511,2.2954 -0.7533,3.0254 -0.4946,0.7225 -1.2479,1.0838 -2.2598,1.0838 -0.5479,0 -1.0158,-0.1016 -1.4039,-0.3048 -0.3804,-0.2032 -0.6924,-0.4854 -0.9359,-0.8467 -0.2359,-0.3612 -0.4071,-0.794 -0.5136,-1.2982 -0.1065,-0.5043 -0.1598,-1.0574 -0.1598,-1.6595 z m 1.6435,0 c 0,0.3838 0.0153,0.7413 0.0457,1.0724 0.038,0.3312 0.1027,0.6209 0.194,0.8693 0.0989,0.2408 0.2359,0.4327 0.4109,0.5757 0.1826,0.143 0.4223,0.2145 0.7191,0.2145 0.2663,0 0.4869,-0.0527 0.6619,-0.158 0.175,-0.1129 0.3158,-0.2822 0.4223,-0.508 0.1066,-0.2258 0.1788,-0.508 0.2169,-0.8467 0.0456,-0.3462 0.0685,-0.7526 0.0685,-1.2192 0,-0.3688 -0.0153,-0.7188 -0.0457,-1.0499 -0.0228,-0.3312 -0.0837,-0.6209 -0.1826,-0.8693 -0.0913,-0.2483 -0.2283,-0.444 -0.4109,-0.587 -0.1826,-0.1505 -0.4261,-0.2258 -0.7304,-0.2258 -0.5327,0 -0.8941,0.2296 -1.0843,0.6887 -0.1902,0.459 -0.2854,1.1401 -0.2854,2.0433 z"
         fill="#DBE2EA"
         id="path4"
         style="fill:#000000" /><path
         d="m 65.1754,9.02082 c 0.3196,-0.06021 0.6696,-0.10536 1.05,-0.13547 0.3881,-0.03763 0.7724,-0.05644 1.1528,-0.05644 0.3957,0 0.7913,0.03387 1.187,0.1016 0.4033,0.06021 0.7647,0.18815 1.0843,0.38383 0.3196,0.18815 0.5783,0.45532 0.7761,0.80156 0.2054,0.3386 0.3082,0.7827 0.3082,1.3321 0,0.4816 -0.0875,0.8956 -0.2626,1.2418 -0.175,0.3386 -0.407,0.6209 -0.6962,0.8466 -0.2891,0.2183 -0.6201,0.3801 -0.9929,0.4855 -0.3653,0.0978 -0.7457,0.1467 -1.1414,0.1467 -0.038,0 -0.0989,0 -0.1826,0 -0.0837,0 -0.1712,0 -0.2625,0 C 67.1043,14.1611 67.013,14.1536 66.9217,14.1461 66.838,14.1385 66.7771,14.131 66.739,14.1235 v 2.7206 h -1.5636 z m 2.3283,1.14018 c -0.1521,0 -0.2967,0.0075 -0.4337,0.0226 -0.1369,0.0075 -0.2473,0.0188 -0.331,0.0339 v 2.5626 c 0.0305,0.0075 0.0761,0.015 0.137,0.0226 0.0609,0.0075 0.1256,0.015 0.194,0.0225 0.0685,0 0.1332,0 0.1941,0 0.0684,0 0.1179,0 0.1483,0 0.2055,0 0.4071,-0.0188 0.605,-0.0564 0.2054,-0.0376 0.388,-0.1054 0.5478,-0.2032 0.1598,-0.1054 0.2853,-0.2484 0.3766,-0.429 0.099,-0.1806 0.1484,-0.4177 0.1484,-0.7112 0,-0.2484 -0.0456,-0.4516 -0.1369,-0.6096 C 68.8619,10.6502 68.7402,10.5185 68.588,10.4207 68.4435,10.3228 68.2761,10.2551 68.0858,10.2175 67.8956,10.1798 67.7016,10.161 67.5037,10.161 Z"
         fill="#DBE2EA"
         id="path5"
         style="fill:#000000" /><path
         d="m 71.9848,8.9418 h 5.2387 v 1.3773 h -3.6751 v 1.8401 h 3.3898 v 1.3772 h -3.3898 v 1.9305 h 3.7322 v 1.3772 h -5.2958 z"
         fill="#DBE2EA"
         id="path6"
         style="fill:#000000" /><path
         d="M 78.7371,9.02082 C 78.9121,8.99072 79.0985,8.96438 79.2963,8.9418 79.5018,8.9117 79.7034,8.88912 79.9012,8.87407 80.1067,8.85901 80.3045,8.84772 80.4947,8.8402 80.685,8.83267 80.86,8.82891 81.0198,8.82891 c 0.3728,0 0.738,0.03763 1.0957,0.11289 0.3652,0.06773 0.6886,0.18815 0.9701,0.36125 0.2891,0.1731 0.5174,0.40641 0.6848,0.69995 0.175,0.2935 0.2625,0.6585 0.2625,1.095 0,0.3236 -0.0342,0.6059 -0.1027,0.8467 -0.0609,0.2333 -0.1484,0.4403 -0.2625,0.6209 -0.1141,0.1806 -0.2549,0.3387 -0.4223,0.4741 -0.1598,0.128 -0.3348,0.2446 -0.525,0.35 l 1.9288,3.4544 h -1.8033 l -1.6093,-3.0932 h -0.9359 v 3.0932 h -1.5636 z m 2.3968,1.18538 c -0.1598,0 -0.3196,0.0037 -0.4794,0.0113 -0.1521,0.0075 -0.2701,0.0225 -0.3538,0.0451 v 2.2917 h 0.6163 c 0.4338,0 0.7876,-0.0978 1.0615,-0.2935 0.2739,-0.1957 0.4109,-0.5193 0.4109,-0.9709 0,-0.3386 -0.1065,-0.6021 -0.3196,-0.7902 -0.213,-0.1957 -0.525,-0.2935 -0.9359,-0.2935 z"
         fill="#DBE2EA"
         id="path7"
         style="fill:#000000" /><path
         d="M 89.4384,15.0943 H 87.053 l -0.5478,1.7498 H 84.9415 L 87.521,8.9418 h 1.5636 l 2.568,7.9023 h -1.6435 z m -2.0202,-1.2418 h 1.7121 l -0.8104,-2.6416 h -0.1027 z"
         fill="#DBE2EA"
         id="path8"
         style="fill:#000000" /><path
         d="m 93.0634,15.6023 h 1.3012 v -5.4187 h -1.0957 v 1.366 H 92.0134 V 8.9418 h 6.2546 v 2.6078 h -1.2555 v -1.366 h -1.0843 v 5.4187 h 1.2897 v 1.2418 h -4.1545 z"
         fill="#DBE2EA"
         id="path9"
         style="fill:#000000" /><path
         d="m 99.1766,15.4669 h 2.0204 V 10.3191 H 99.1766 V 8.9418 h 5.6154 v 1.3773 h -2.032 v 5.1478 h 2.032 v 1.3772 h -5.6154 z"
         fill="#DBE2EA"
         id="path10"
         style="fill:#000000" /><path
         d="m 108.896,14.7331 h 0.057 l 1.576,-5.7913 h 1.62 l -2.397,7.9023 h -1.78 l -2.465,-7.9023 h 1.746 z"
         fill="#DBE2EA"
         id="path11"
         style="fill:#000000" /><path
         d="m 116.813,15.0943 h -2.386 l -0.547,1.7498 h -1.564 l 2.579,-7.9023 h 1.564 l 2.568,7.9023 h -1.643 z m -2.02,-1.2418 h 1.712 l -0.811,-2.6416 h -0.102 z"
         fill="#DBE2EA"
         id="path12"
         style="fill:#000000" /><path
         d="m 45.1582,27.2331 h 1.3011 v -5.4187 h -1.0957 v 1.366 h -1.2554 v -2.6078 h 6.2545 v 2.6078 h -1.2555 v -1.366 H 48.023 v 5.4187 h 1.2897 v 1.2418 h -4.1545 z"
         fill="#DBE2EA"
         id="path13"
         style="fill:#000000" /><path
         d="m 51.454,20.5726 h 5.2387 v 1.3772 H 53.0176 V 23.79 h 3.3898 v 1.3772 h -3.3898 v 1.9305 h 3.7322 v 1.3772 H 51.454 Z"
         fill="#DBE2EA"
         id="path14"
         style="fill:#000000" /><path
         d="m 62.5662,25.822 h 1.2555 v 2.2578 c -0.2435,0.1731 -0.5555,0.3086 -0.9359,0.4064 -0.3729,0.0979 -0.7571,0.1468 -1.1528,0.1468 -0.5022,0 -0.9815,-0.0715 -1.4381,-0.2145 -0.4489,-0.1505 -0.8446,-0.3876 -1.187,-0.7112 -0.3424,-0.3312 -0.6163,-0.7564 -0.8218,-1.2757 -0.2054,-0.5268 -0.3081,-1.1628 -0.3081,-1.9078 0,-0.7752 0.1141,-1.4225 0.3424,-1.9418 0.2359,-0.5268 0.5364,-0.9482 0.9016,-1.2643 0.3653,-0.3237 0.7724,-0.5532 1.2213,-0.6887 0.4489,-0.143 0.8902,-0.2145 1.3239,-0.2145 0.4566,0 0.8408,0.0377 1.1528,0.1129 0.3196,0.0753 0.5821,0.1618 0.7875,0.2597 v 2.3481 h -1.2554 v -1.287 c -0.2359,-0.0376 -0.4794,-0.0564 -0.7305,-0.0564 -0.2968,0 -0.5745,0.0564 -0.8332,0.1693 -0.2511,0.1054 -0.4717,0.271 -0.662,0.4968 -0.1902,0.2257 -0.3386,0.5117 -0.4451,0.8579 -0.1065,0.3387 -0.1598,0.7413 -0.1598,1.208 0,0.4064 0.0495,0.7789 0.1484,1.1176 0.0989,0.3311 0.2435,0.6171 0.4337,0.8579 0.1902,0.2409 0.4223,0.429 0.6962,0.5645 0.2739,0.1279 0.5859,0.1919 0.9359,0.1919 0.2511,0 0.4946,-0.0226 0.7305,-0.0677 z"
         fill="#DBE2EA"
         id="path15"
         style="fill:#000000" /><path
         d="m 66.4537,23.8013 h -0.0571 l 0.0685,0.9369 v 3.7367 h -1.4837 v -7.9023 h 1.3696 l 2.762,4.8317 h 0.0571 L 69.0674,24.456 v -3.8834 h 1.4837 v 7.9023 h -1.3696 z"
         fill="#DBE2EA"
         id="path16"
         style="fill:#000000" /><path
         d="m 71.5967,24.5238 c 0,-0.6398 0.0609,-1.2155 0.1826,-1.7273 0.1218,-0.5117 0.3082,-0.9407 0.5593,-1.2869 0.2511,-0.3538 0.5631,-0.6247 0.9359,-0.8128 0.3804,-0.1882 0.8256,-0.2823 1.3354,-0.2823 0.5478,0 1.012,0.1016 1.3924,0.3048 0.3805,0.2032 0.6886,0.4855 0.9245,0.8467 0.2435,0.3613 0.4185,0.794 0.525,1.2983 0.1142,0.5042 0.1712,1.0574 0.1712,1.6595 0,1.2869 -0.2511,2.2954 -0.7533,3.0254 -0.4946,0.7225 -1.2478,1.0838 -2.2598,1.0838 -0.5479,0 -1.0158,-0.1016 -1.4039,-0.3048 C 72.8256,28.125 72.5136,27.8427 72.2701,27.4815 72.0342,27.1202 71.863,26.6875 71.7565,26.1832 71.65,25.679 71.5967,25.1258 71.5967,24.5238 Z m 1.6436,0 c 0,0.3838 0.0152,0.7413 0.0456,1.0724 0.0381,0.3312 0.1027,0.6209 0.194,0.8693 0.099,0.2408 0.2359,0.4327 0.4109,0.5757 0.1826,0.143 0.4223,0.2145 0.7191,0.2145 0.2663,0 0.4869,-0.0527 0.6619,-0.158 0.1751,-0.1129 0.3158,-0.2823 0.4223,-0.508 0.1066,-0.2258 0.1789,-0.5081 0.2169,-0.8467 0.0457,-0.3462 0.0685,-0.7526 0.0685,-1.2192 0,-0.3688 -0.0152,-0.7188 -0.0457,-1.0499 -0.0228,-0.3312 -0.0837,-0.6209 -0.1826,-0.8693 -0.0913,-0.2483 -0.2283,-0.444 -0.4109,-0.587 -0.1826,-0.1505 -0.4261,-0.2258 -0.7304,-0.2258 -0.5327,0 -0.8941,0.2295 -1.0843,0.6886 -0.1902,0.4591 -0.2853,1.1402 -0.2853,2.0434 z"
         fill="#DBE2EA"
         id="path17"
         style="fill:#000000" /><path
         d="m 82.7546,25.2575 h 1.4153 v 3.2174 h -5.2502 v -7.9023 h 1.5636 v 6.5251 h 2.2713 z"
         fill="#DBE2EA"
         id="path18"
         style="fill:#000000" /><path
         d="m 85.2839,24.5238 c 0,-0.6398 0.0609,-1.2155 0.1826,-1.7273 0.1218,-0.5117 0.3082,-0.9407 0.5593,-1.2869 0.2511,-0.3538 0.5631,-0.6247 0.9359,-0.8128 0.3805,-0.1882 0.8256,-0.2823 1.3354,-0.2823 0.5478,0 1.012,0.1016 1.3924,0.3048 0.3805,0.2032 0.6886,0.4855 0.9245,0.8467 0.2435,0.3613 0.4185,0.794 0.525,1.2983 0.1142,0.5042 0.1712,1.0574 0.1712,1.6595 0,1.2869 -0.2511,2.2954 -0.7533,3.0254 -0.4945,0.7225 -1.2478,1.0838 -2.2598,1.0838 -0.5479,0 -1.0158,-0.1016 -1.4039,-0.3048 -0.3804,-0.2032 -0.6924,-0.4855 -0.9359,-0.8467 -0.2359,-0.3613 -0.4071,-0.794 -0.5136,-1.2983 -0.1065,-0.5042 -0.1598,-1.0574 -0.1598,-1.6594 z m 1.6436,0 c 0,0.3838 0.0152,0.7413 0.0456,1.0724 0.0381,0.3312 0.1027,0.6209 0.1941,0.8693 0.0989,0.2408 0.2358,0.4327 0.4108,0.5757 0.1826,0.143 0.4223,0.2145 0.7191,0.2145 0.2663,0 0.487,-0.0527 0.662,-0.158 0.175,-0.1129 0.3157,-0.2823 0.4223,-0.508 0.1065,-0.2258 0.1788,-0.5081 0.2168,-0.8467 0.0457,-0.3462 0.0685,-0.7526 0.0685,-1.2192 0,-0.3688 -0.0152,-0.7188 -0.0457,-1.0499 -0.0228,-0.3312 -0.0837,-0.6209 -0.1826,-0.8693 -0.0913,-0.2483 -0.2282,-0.444 -0.4109,-0.587 -0.1826,-0.1505 -0.4261,-0.2258 -0.7304,-0.2258 -0.5326,0 -0.8941,0.2295 -1.0843,0.6886 -0.1902,0.4591 -0.2853,1.1402 -0.2853,2.0434 z m 1.7462,-5.8704 h 1.8148 v 0.3387 l -1.8262,0.9934 h -1.1756 z"
         fill="#DBE2EA"
         id="path19"
         style="fill:#000000" /><path
         d="m 95.4032,24.3544 h 2.7278 v 3.5674 c -0.2587,0.2333 -0.5973,0.4101 -1.0158,0.5305 -0.4109,0.1205 -0.8332,0.1807 -1.2669,0.1807 -0.5098,0 -0.9891,-0.0866 -1.4381,-0.2597 -0.4413,-0.1731 -0.8255,-0.4327 -1.1527,-0.7789 -0.3272,-0.3537 -0.5859,-0.7865 -0.7761,-1.2983 -0.1903,-0.5193 -0.2854,-1.1251 -0.2854,-1.8175 0,-0.73 0.1142,-1.3509 0.3424,-1.8627 0.2283,-0.5118 0.5212,-0.9295 0.8789,-1.2531 0.3652,-0.3311 0.7723,-0.572 1.2212,-0.7225 0.4489,-0.1505 0.894,-0.2258 1.3354,-0.2258 0.4565,0 0.837,0.0377 1.1413,0.1129 0.3044,0.0678 0.5821,0.1581 0.8332,0.271 v 2.3368 h -1.2555 v -1.2531 c -0.0609,-0.015 -0.1217,-0.0301 -0.1826,-0.0451 -0.1522,-0.0301 -0.3196,-0.0452 -0.5022,-0.0452 -0.312,0 -0.6011,0.0527 -0.8674,0.158 -0.2663,0.1054 -0.4984,0.271 -0.6962,0.4968 -0.1903,0.2182 -0.3386,0.5004 -0.4452,0.8466 -0.1065,0.3462 -0.1597,0.7602 -0.1597,1.2418 0,0.429 0.0532,0.8129 0.1597,1.1515 0.1066,0.3387 0.2549,0.6247 0.4452,0.858 0.1902,0.2333 0.4147,0.4102 0.6734,0.5306 0.2663,0.1204 0.5516,0.1806 0.856,0.1806 0.1978,0 0.3766,-0.0226 0.5364,-0.0677 0.1674,-0.0452 0.2815,-0.0903 0.3424,-0.1355 v -1.5692 h -1.4495 z"
         fill="#DBE2EA"
         id="path20"
         style="fill:#000000" /><path
         d="m 99.1766,27.0977 h 2.0204 v -5.1479 h -2.0204 v -1.3772 h 5.6154 v 1.3772 h -2.032 v 5.1479 h 2.032 v 1.3772 h -5.6154 z"
         fill="#DBE2EA"
         id="path21"
         style="fill:#000000" /><path
         d="m 110.471,25.822 h 1.256 v 2.2578 c -0.244,0.1731 -0.556,0.3086 -0.936,0.4064 -0.373,0.0979 -0.757,0.1468 -1.153,0.1468 -0.502,0 -0.981,-0.0715 -1.438,-0.2145 -0.449,-0.1505 -0.844,-0.3876 -1.187,-0.7112 -0.342,-0.3312 -0.616,-0.7564 -0.822,-1.2757 -0.205,-0.5268 -0.308,-1.1628 -0.308,-1.9078 0,-0.7752 0.114,-1.4225 0.343,-1.9418 0.236,-0.5268 0.536,-0.9482 0.901,-1.2643 0.366,-0.3237 0.773,-0.5532 1.222,-0.6887 0.448,-0.143 0.89,-0.2145 1.323,-0.2145 0.457,0 0.841,0.0377 1.153,0.1129 0.32,0.0753 0.582,0.1618 0.788,0.2597 v 2.3481 h -1.256 v -1.287 c -0.236,-0.0376 -0.479,-0.0564 -0.73,-0.0564 -0.297,0 -0.575,0.0564 -0.833,0.1693 -0.251,0.1054 -0.472,0.271 -0.662,0.4968 -0.191,0.2257 -0.339,0.5117 -0.445,0.8579 -0.107,0.3387 -0.16,0.7413 -0.16,1.208 0,0.4064 0.049,0.7789 0.148,1.1176 0.099,0.3311 0.244,0.6171 0.434,0.8579 0.19,0.2409 0.422,0.429 0.696,0.5645 0.274,0.1279 0.586,0.1919 0.936,0.1919 0.251,0 0.495,-0.0226 0.73,-0.0677 z"
         fill="#DBE2EA"
         id="path22"
         style="fill:#000000" /><path
         d="m 116.813,26.7251 h -2.386 l -0.547,1.7498 h -1.564 l 2.579,-7.9023 h 1.564 l 2.568,7.9023 h -1.643 z m -2.02,-1.2418 h 1.712 l -0.811,-2.6416 h -0.102 z"
         fill="#DBE2EA"
         id="path23"
         style="fill:#000000" /><path
         d="m 46.1216,32.3317 h 1.0724 v 3.4636 c 0,0.0392 0.0022,0.0894 0.0066,0.1505 0.0044,0.0568 0.0088,0.1179 0.0132,0.1834 0.0088,0.0654 0.0177,0.1309 0.0265,0.1964 0.0088,0.0611 0.0176,0.1157 0.0265,0.1637 h 0.4435 v 0.4256 h -0.8804 l -0.0662,-0.5042 h -0.0265 c -0.0971,0.1659 -0.2427,0.3055 -0.4369,0.419 -0.1897,0.1092 -0.4104,0.1637 -0.6619,0.1637 -0.4987,0 -0.8672,-0.1375 -1.1055,-0.4125 -0.2339,-0.2793 -0.3508,-0.7114 -0.3508,-1.2963 0,-0.275 0.0397,-0.5173 0.1191,-0.7268 0.0795,-0.2139 0.192,-0.3906 0.3376,-0.5303 0.1501,-0.1441 0.3288,-0.2532 0.5362,-0.3274 0.2074,-0.0742 0.4391,-0.1113 0.6951,-0.1113 0.0926,0 0.1743,0.0022 0.2449,0.0066 0.075,0.0043 0.1434,0.0109 0.2052,0.0196 0.0618,0.0087 0.1191,0.0218 0.1721,0.0393 0.0574,0.0131 0.1191,0.0284 0.1853,0.0458 v -0.9297 h -0.556 z m -0.3972,4.2231 c 0.2692,0 0.481,-0.0677 0.6355,-0.203 0.1545,-0.1397 0.2604,-0.347 0.3177,-0.622 v -1.519 c -0.097,-0.0655 -0.2074,-0.1135 -0.3309,-0.144 -0.1192,-0.0306 -0.2781,-0.0459 -0.4766,-0.0459 -0.3531,0 -0.6311,0.1026 -0.8341,0.3078 -0.203,0.2007 -0.3045,0.5194 -0.3045,0.9559 0,0.1789 0.0155,0.347 0.0463,0.5041 0.0354,0.1528 0.0905,0.2859 0.1655,0.3994 0.0795,0.1135 0.1832,0.203 0.3111,0.2684 0.128,0.0655 0.2847,0.0983 0.47,0.0983 z"
         fill="#DBE2EA"
         id="path24"
         style="fill:#000000" /><path
         d="m 51.2822,36.5024 c -0.0794,0.0698 -0.1743,0.1353 -0.2846,0.1964 -0.1059,0.0611 -0.2229,0.1135 -0.3509,0.1571 -0.1279,0.0437 -0.2625,0.0764 -0.4038,0.0982 -0.1368,0.0262 -0.2758,0.0393 -0.417,0.0393 -0.2648,0 -0.4986,-0.0393 -0.7016,-0.1178 -0.203,-0.083 -0.3729,-0.1986 -0.5097,-0.347 -0.1368,-0.1528 -0.2406,-0.334 -0.3112,-0.5435 -0.0706,-0.2095 -0.1059,-0.4452 -0.1059,-0.7071 0,-0.275 0.0375,-0.5194 0.1126,-0.7333 0.0794,-0.2139 0.1919,-0.3928 0.3376,-0.5369 0.1456,-0.144 0.3221,-0.2531 0.5295,-0.3273 0.2074,-0.0786 0.4391,-0.1179 0.6951,-0.1179 0.1853,0 0.3684,0.024 0.5494,0.072 0.1809,0.0481 0.3398,0.1397 0.4766,0.275 0.1412,0.131 0.2493,0.3143 0.3243,0.55 0.075,0.2313 0.1015,0.5325 0.0795,0.9035 h -2.5618 c 0,0.3929 0.1059,0.6875 0.3178,0.8839 0.2162,0.1921 0.503,0.2881 0.8605,0.2881 0.1191,0 0.2361,-0.0131 0.3508,-0.0393 0.1192,-0.0305 0.2317,-0.0655 0.3376,-0.1047 0.1059,-0.0393 0.1986,-0.083 0.278,-0.131 0.0839,-0.048 0.1479,-0.0916 0.192,-0.1309 z m -1.3967,-2.5077 c -0.1456,0 -0.2846,0.0153 -0.417,0.0459 -0.128,0.0305 -0.2427,0.0829 -0.3442,0.1571 -0.0971,0.0698 -0.1788,0.1637 -0.245,0.2815 -0.0617,0.1135 -0.1015,0.2554 -0.1191,0.4256 h 2.0586 c -0.022,-0.2881 -0.1169,-0.5107 -0.2846,-0.6678 -0.1633,-0.1615 -0.3795,-0.2423 -0.6487,-0.2423 z"
         fill="#DBE2EA"
         id="path25"
         style="fill:#000000" /><path
         d="m 57.7178,36.2405 h 0.0728 l 1.2577,-3.9088 h 0.5494 l -1.5556,4.5832 H 57.4 l -1.5886,-4.5832 h 0.6023 z"
         fill="#DBE2EA"
         id="path26"
         style="fill:#000000" /><path
         d="m 60.3828,36.9149 v -0.4387 h 1.1518 v -2.3963 h -1.1518 v -0.4387 h 1.6814 v 2.835 h 1.1253 v 0.4387 z m 0.9731,-4.2034 c 0,-0.1179 0.0397,-0.2183 0.1191,-0.3012 0.0795,-0.0873 0.181,-0.131 0.3045,-0.131 0.128,0 0.2339,0.0437 0.3178,0.131 0.0882,0.0829 0.1324,0.1833 0.1324,0.3012 0,0.1134 -0.0442,0.2095 -0.1324,0.288 -0.0839,0.0786 -0.1898,0.1179 -0.3178,0.1179 -0.1235,0 -0.225,-0.0393 -0.3045,-0.1179 -0.0794,-0.0785 -0.1191,-0.1746 -0.1191,-0.288 z"
         fill="#DBE2EA"
         id="path27"
         style="fill:#000000" /><path
         d="m 64.3718,33.8965 c 0.1898,-0.1091 0.4038,-0.1877 0.6421,-0.2357 0.2383,-0.048 0.4722,-0.072 0.7016,-0.072 0.2251,0 0.4082,0.0349 0.5495,0.1048 0.1456,0.0698 0.2581,0.1615 0.3376,0.275 0.0838,0.1091 0.139,0.2357 0.1654,0.3797 0.0309,0.1397 0.0464,0.2815 0.0464,0.4256 0,0.1658 -0.0044,0.3426 -0.0133,0.5303 -0.0088,0.1877 -0.0154,0.3754 -0.0198,0.5631 0,0.2182 0.0132,0.4256 0.0397,0.622 h 0.4435 v 0.4256 h -0.8804 l -0.0596,-0.4911 h -0.0331 c -0.0264,0.0393 -0.0662,0.0895 -0.1191,0.1506 -0.053,0.0611 -0.1236,0.1222 -0.2118,0.1833 -0.0839,0.0568 -0.1876,0.107 -0.3111,0.1506 -0.1236,0.0437 -0.2692,0.0655 -0.4369,0.0655 -0.3266,0 -0.5848,-0.083 -0.7745,-0.2488 -0.1898,-0.1659 -0.2846,-0.3929 -0.2846,-0.6809 0,-0.2227 0.0485,-0.4082 0.1456,-0.5566 0.1015,-0.1484 0.2449,-0.2619 0.4302,-0.3404 0.1854,-0.0786 0.4082,-0.1244 0.6686,-0.1375 0.2648,-0.0131 0.5605,0.0043 0.887,0.0524 0.0221,-0.2008 0.0243,-0.3667 0.0066,-0.4976 -0.0132,-0.1354 -0.0485,-0.2423 -0.1059,-0.3209 -0.0529,-0.0785 -0.1302,-0.1331 -0.2317,-0.1636 -0.097,-0.035 -0.2184,-0.0524 -0.364,-0.0524 -0.1986,0 -0.3884,0.0284 -0.5693,0.0851 -0.1809,0.0524 -0.342,0.1069 -0.4832,0.1637 z m 0.9731,2.6386 c 0.1235,0 0.2383,-0.0196 0.3442,-0.0589 0.1059,-0.0393 0.1986,-0.0895 0.278,-0.1506 0.0794,-0.0611 0.1456,-0.1266 0.1986,-0.1964 0.0529,-0.0742 0.0926,-0.1441 0.1191,-0.2095 v -0.4584 c -0.2295,-0.0392 -0.4413,-0.0589 -0.6354,-0.0589 -0.1942,0 -0.3619,0.0218 -0.5031,0.0655 -0.1412,0.0393 -0.2516,0.1026 -0.331,0.1899 -0.0794,0.0873 -0.1192,0.2007 -0.1192,0.3404 0,0.1441 0.0486,0.2707 0.1457,0.3798 0.1015,0.1047 0.2692,0.1571 0.5031,0.1571 z"
         fill="#DBE2EA"
         id="path28"
         style="fill:#000000" /><path
         d="m 68.2416,34.787 c 0,-0.0393 -0.0022,-0.0895 -0.0066,-0.1506 0,-0.0655 -0.0022,-0.131 -0.0066,-0.1964 -0.0045,-0.0699 -0.0111,-0.1375 -0.0199,-0.203 -0.0044,-0.0655 -0.011,-0.1222 -0.0199,-0.1702 h -0.4435 v -0.4256 h 0.887 l 0.0596,0.5303 h 0.0331 c 0.0442,-0.0742 0.1015,-0.1462 0.1721,-0.216 0.075,-0.0742 0.1611,-0.1397 0.2582,-0.1965 0.0971,-0.0611 0.2052,-0.1091 0.3243,-0.144 0.1192,-0.0349 0.245,-0.0524 0.3774,-0.0524 0.2029,0 0.3817,0.0218 0.5361,0.0655 0.1589,0.0436 0.2891,0.1222 0.3906,0.2357 0.1059,0.1091 0.1853,0.2597 0.2383,0.4518 0.0529,0.1876 0.0794,0.4277 0.0794,0.7202 v 1.8791 H 70.5849 V 35.134 c 0,-0.3623 -0.0596,-0.6351 -0.1787,-0.8184 -0.1192,-0.1834 -0.3354,-0.275 -0.6487,-0.275 -0.1148,0 -0.2273,0.024 -0.3376,0.072 -0.1059,0.0436 -0.203,0.1026 -0.2913,0.1768 -0.0883,0.0742 -0.1655,0.1615 -0.2317,0.2619 -0.0662,0.096 -0.1147,0.1986 -0.1456,0.3077 v 2.0559 h -0.5097 z"
         fill="#DBE2EA"
         id="path29"
         style="fill:#000000" /><path
         d="m 72.31,33.8965 c 0.1897,-0.1091 0.4038,-0.1877 0.6421,-0.2357 0.2383,-0.048 0.4722,-0.072 0.7016,-0.072 0.2251,0 0.4082,0.0349 0.5495,0.1048 0.1456,0.0698 0.2581,0.1615 0.3376,0.275 0.0838,0.1091 0.139,0.2357 0.1654,0.3797 0.0309,0.1397 0.0464,0.2815 0.0464,0.4256 0,0.1658 -0.0044,0.3426 -0.0133,0.5303 -0.0088,0.1877 -0.0154,0.3754 -0.0198,0.5631 0,0.2182 0.0132,0.4256 0.0397,0.622 h 0.4435 v 0.4256 h -0.8804 l -0.0596,-0.4911 h -0.0331 c -0.0264,0.0393 -0.0662,0.0895 -0.1191,0.1506 -0.053,0.0611 -0.1236,0.1222 -0.2118,0.1833 -0.0839,0.0568 -0.1876,0.107 -0.3112,0.1506 -0.1235,0.0437 -0.2691,0.0655 -0.4368,0.0655 -0.3266,0 -0.5848,-0.083 -0.7745,-0.2488 -0.1898,-0.1659 -0.2847,-0.3929 -0.2847,-0.6809 0,-0.2227 0.0486,-0.4082 0.1457,-0.5566 0.1015,-0.1484 0.2449,-0.2619 0.4302,-0.3404 0.1854,-0.0786 0.4082,-0.1244 0.6686,-0.1375 0.2648,-0.0131 0.5605,0.0043 0.887,0.0524 0.0221,-0.2008 0.0243,-0.3667 0.0066,-0.4976 -0.0132,-0.1354 -0.0485,-0.2423 -0.1059,-0.3209 -0.0529,-0.0785 -0.1302,-0.1331 -0.2317,-0.1636 -0.097,-0.035 -0.2184,-0.0524 -0.364,-0.0524 -0.1986,0 -0.3884,0.0284 -0.5693,0.0851 -0.1809,0.0524 -0.342,0.1069 -0.4832,0.1637 z m 0.9731,2.6386 c 0.1235,0 0.2383,-0.0196 0.3442,-0.0589 0.1059,-0.0393 0.1985,-0.0895 0.278,-0.1506 0.0794,-0.0611 0.1456,-0.1266 0.1986,-0.1964 0.0529,-0.0742 0.0926,-0.1441 0.1191,-0.2095 v -0.4584 c -0.2295,-0.0392 -0.4413,-0.0589 -0.6355,-0.0589 -0.1941,0 -0.3618,0.0218 -0.503,0.0655 -0.1412,0.0393 -0.2516,0.1026 -0.331,0.1899 -0.0794,0.0873 -0.1192,0.2007 -0.1192,0.3404 0,0.1441 0.0486,0.2707 0.1457,0.3798 0.1015,0.1047 0.2692,0.1571 0.5031,0.1571 z"
         fill="#DBE2EA"
         id="path30"
         style="fill:#000000" /><path
         d="m 81.8435,32.3317 h 1.0723 v 3.4636 c 0,0.0392 0.0022,0.0894 0.0066,0.1505 0.0045,0.0568 0.0089,0.1179 0.0133,0.1834 0.0088,0.0654 0.0176,0.1309 0.0265,0.1964 0.0088,0.0611 0.0176,0.1157 0.0264,0.1637 h 0.4435 v 0.4256 h -0.8803 l -0.0662,-0.5042 h -0.0265 c -0.0971,0.1659 -0.2427,0.3055 -0.4369,0.419 -0.1898,0.1092 -0.4104,0.1637 -0.6619,0.1637 -0.4987,0 -0.8672,-0.1375 -1.1055,-0.4125 -0.2339,-0.2793 -0.3508,-0.7114 -0.3508,-1.2963 0,-0.275 0.0397,-0.5173 0.1191,-0.7268 0.0795,-0.2139 0.192,-0.3906 0.3376,-0.5303 0.1501,-0.1441 0.3288,-0.2532 0.5362,-0.3274 0.2074,-0.0742 0.4391,-0.1113 0.695,-0.1113 0.0927,0 0.1743,0.0022 0.245,0.0066 0.075,0.0043 0.1434,0.0109 0.2052,0.0196 0.0617,0.0087 0.1191,0.0218 0.1721,0.0393 0.0573,0.0131 0.1191,0.0284 0.1853,0.0458 v -0.9297 h -0.556 z m -0.3972,4.2231 c 0.2692,0 0.481,-0.0677 0.6355,-0.203 0.1544,-0.1397 0.2603,-0.347 0.3177,-0.622 v -1.519 c -0.0971,-0.0655 -0.2074,-0.1135 -0.331,-0.144 -0.1191,-0.0306 -0.278,-0.0459 -0.4766,-0.0459 -0.353,0 -0.631,0.1026 -0.834,0.3078 -0.203,0.2007 -0.3045,0.5194 -0.3045,0.9559 0,0.1789 0.0154,0.347 0.0463,0.5041 0.0353,0.1528 0.0905,0.2859 0.1655,0.3994 0.0794,0.1135 0.1831,0.203 0.3111,0.2684 0.128,0.0655 0.2847,0.0983 0.47,0.0983 z"
         fill="#DBE2EA"
         id="path31"
         style="fill:#000000" /><path
         d="m 83.8797,35.278 c 0,-0.5281 0.139,-0.945 0.417,-1.2505 0.278,-0.3099 0.6752,-0.4649 1.1915,-0.4649 0.278,0 0.5163,0.0458 0.7149,0.1375 0.203,0.0873 0.3707,0.2073 0.5031,0.3601 0.1324,0.1528 0.2295,0.3339 0.2913,0.5434 0.0662,0.2096 0.0993,0.4343 0.0993,0.6744 0,0.2619 -0.0354,0.4998 -0.106,0.7137 -0.0706,0.2095 -0.1743,0.3885 -0.3111,0.5369 -0.1368,0.1484 -0.3067,0.264 -0.5097,0.347 -0.1986,0.0785 -0.4258,0.1178 -0.6818,0.1178 -0.2736,0 -0.5119,-0.0436 -0.7149,-0.1309 -0.203,-0.0917 -0.3707,-0.2139 -0.5031,-0.3667 -0.1324,-0.1527 -0.2316,-0.3339 -0.2978,-0.5434 -0.0618,-0.2095 -0.0927,-0.4343 -0.0927,-0.6744 z m 0.5494,0 c 0,0.1528 0.0177,0.3056 0.053,0.4583 0.0397,0.1528 0.1015,0.2903 0.1853,0.4125 0.0839,0.1222 0.192,0.2204 0.3244,0.2946 0.1368,0.0742 0.3022,0.1114 0.4964,0.1114 0.3531,0 0.6178,-0.107 0.7944,-0.3209 0.1809,-0.2182 0.2714,-0.5369 0.2714,-0.9559 0,-0.1571 -0.0199,-0.3099 -0.0596,-0.4583 -0.0353,-0.1528 -0.0971,-0.2903 -0.1854,-0.4125 -0.0838,-0.1222 -0.1941,-0.2204 -0.3309,-0.2946 -0.1324,-0.0742 -0.2957,-0.1113 -0.4899,-0.1113 -0.353,0 -0.6178,0.1069 -0.7943,0.3208 -0.1765,0.2139 -0.2648,0.5325 -0.2648,0.9559 z"
         fill="#DBE2EA"
         id="path32"
         style="fill:#000000" /><path
         d="m 94.4723,32.8293 c -0.075,-0.0305 -0.1589,-0.0524 -0.2516,-0.0655 -0.0882,-0.0174 -0.1963,-0.0261 -0.3243,-0.0261 -0.1809,0 -0.3597,0.0327 -0.5362,0.0982 -0.1721,0.0654 -0.3265,0.1724 -0.4633,0.3208 -0.1324,0.1484 -0.2406,0.3426 -0.3244,0.5827 -0.0794,0.2401 -0.1191,0.5347 -0.1191,0.8839 0,0.3143 0.0353,0.5892 0.1059,0.825 0.075,0.2357 0.1765,0.4321 0.3045,0.5892 0.1323,0.1571 0.289,0.275 0.4699,0.3536 0.1854,0.0785 0.3906,0.1178 0.6157,0.1178 0.1147,0 0.2206,-0.0087 0.3177,-0.0262 0.1015,-0.0218 0.1942,-0.0502 0.278,-0.0851 v -0.6547 h 0.4898 v 0.8839 l 0.0067,0.0131 c -0.1324,0.1004 -0.3001,0.1855 -0.5031,0.2553 -0.203,0.0655 -0.4501,0.0982 -0.7414,0.0982 -0.278,0 -0.5362,-0.0458 -0.7745,-0.1375 -0.2339,-0.096 -0.4369,-0.24 -0.609,-0.4321 -0.1721,-0.192 -0.3067,-0.4365 -0.4038,-0.7333 -0.0926,-0.3012 -0.139,-0.6569 -0.139,-1.0672 0,-0.4278 0.053,-0.7901 0.1589,-1.0869 0.1059,-0.3011 0.2493,-0.5456 0.4303,-0.7333 0.1809,-0.192 0.3905,-0.3317 0.6288,-0.419 0.2427,-0.0873 0.5009,-0.1309 0.7745,-0.1309 0.15,0 0.2802,0.0065 0.3905,0.0196 0.1104,0.0087 0.2075,0.024 0.2913,0.0458 0.0838,0.0175 0.1567,0.0415 0.2184,0.072 0.0662,0.0306 0.1302,0.0655 0.192,0.1048 h 0.0066 v 1.0345 h -0.4898 z"
         fill="#DBE2EA"
         id="path33"
         style="fill:#000000" /><path
         d="m 96.1246,33.8965 c 0.1897,-0.1091 0.4038,-0.1877 0.6421,-0.2357 0.2383,-0.048 0.4721,-0.072 0.7016,-0.072 0.2251,0 0.4082,0.0349 0.5494,0.1048 0.1457,0.0698 0.2582,0.1615 0.3376,0.275 0.0839,0.1091 0.139,0.2357 0.1655,0.3797 0.0309,0.1397 0.0464,0.2815 0.0464,0.4256 0,0.1658 -0.0045,0.3426 -0.0133,0.5303 -0.0088,0.1877 -0.0154,0.3754 -0.0198,0.5631 0,0.2182 0.0132,0.4256 0.0397,0.622 h 0.4435 v 0.4256 h -0.8804 l -0.0596,-0.4911 h -0.0331 c -0.0265,0.0393 -0.0662,0.0895 -0.1191,0.1506 -0.053,0.0611 -0.1236,0.1222 -0.2119,0.1833 -0.0838,0.0568 -0.1875,0.107 -0.3111,0.1506 -0.1235,0.0437 -0.2692,0.0655 -0.4369,0.0655 -0.3265,0 -0.5847,-0.083 -0.7744,-0.2488 -0.1898,-0.1659 -0.2847,-0.3929 -0.2847,-0.6809 0,-0.2227 0.0486,-0.4082 0.1457,-0.5566 0.1015,-0.1484 0.2449,-0.2619 0.4302,-0.3404 0.1854,-0.0786 0.4082,-0.1244 0.6686,-0.1375 0.2648,-0.0131 0.5604,0.0043 0.887,0.0524 0.0221,-0.2008 0.0243,-0.3667 0.0066,-0.4976 -0.0132,-0.1354 -0.0485,-0.2423 -0.1059,-0.3209 -0.053,-0.0785 -0.1302,-0.1331 -0.2317,-0.1636 -0.0971,-0.035 -0.2184,-0.0524 -0.364,-0.0524 -0.1986,0 -0.3884,0.0284 -0.5693,0.0851 -0.181,0.0524 -0.342,0.1069 -0.4832,0.1637 z m 0.973,2.6386 c 0.1236,0 0.2383,-0.0196 0.3442,-0.0589 0.106,-0.0393 0.1986,-0.0895 0.2781,-0.1506 0.0794,-0.0611 0.1456,-0.1266 0.1985,-0.1964 0.053,-0.0742 0.0927,-0.1441 0.1192,-0.2095 v -0.4584 c -0.2295,-0.0392 -0.4413,-0.0589 -0.6355,-0.0589 -0.1941,0 -0.3618,0.0218 -0.5031,0.0655 -0.1412,0.0393 -0.2515,0.1026 -0.3309,0.1899 -0.0795,0.0873 -0.1192,0.2007 -0.1192,0.3404 0,0.1441 0.0486,0.2707 0.1457,0.3798 0.1015,0.1047 0.2691,0.1571 0.503,0.1571 z"
         fill="#DBE2EA"
         id="path34"
         style="fill:#000000" /><path
         d="m 102.278,36.031 c 0,-0.1397 -0.055,-0.2467 -0.165,-0.3209 -0.111,-0.0785 -0.248,-0.1396 -0.411,-0.1833 -0.163,-0.048 -0.342,-0.0916 -0.536,-0.1309 -0.19,-0.0393 -0.366,-0.0917 -0.53,-0.1572 -0.163,-0.0654 -0.3,-0.1527 -0.41,-0.2619 -0.11,-0.1134 -0.165,-0.2706 -0.165,-0.4714 0,-0.1658 0.035,-0.3077 0.105,-0.4255 0.076,-0.1179 0.173,-0.2139 0.292,-0.2881 0.119,-0.0786 0.258,-0.1353 0.417,-0.1703 0.159,-0.0392 0.324,-0.0589 0.496,-0.0589 0.309,0 0.574,0.0393 0.795,0.1179 0.225,0.0742 0.403,0.1527 0.536,0.2357 l -0.212,0.4125 c -0.146,-0.0786 -0.305,-0.1528 -0.477,-0.2227 -0.167,-0.0742 -0.379,-0.1113 -0.635,-0.1113 -0.097,0 -0.194,0.011 -0.291,0.0328 -0.093,0.0174 -0.179,0.0458 -0.259,0.0851 -0.075,0.0393 -0.136,0.0917 -0.185,0.1571 -0.044,0.0611 -0.066,0.1375 -0.066,0.2292 0,0.1135 0.055,0.2008 0.165,0.2619 0.111,0.0611 0.248,0.1135 0.411,0.1571 0.163,0.0393 0.34,0.0786 0.529,0.1179 0.195,0.0349 0.373,0.0873 0.537,0.1571 0.163,0.0698 0.3,0.1637 0.41,0.2815 0.11,0.1179 0.165,0.2772 0.165,0.478 0,0.3012 -0.121,0.55 -0.364,0.7464 -0.238,0.1964 -0.598,0.2946 -1.079,0.2946 -0.145,0 -0.289,-0.0131 -0.43,-0.0393 -0.141,-0.0262 -0.274,-0.0611 -0.397,-0.1047 -0.124,-0.0437 -0.236,-0.0917 -0.338,-0.1441 -0.101,-0.0567 -0.185,-0.1134 -0.2512,-0.1702 L 100.2,36.1095 c 0.053,0.0524 0.123,0.107 0.211,0.1637 0.089,0.0524 0.186,0.1004 0.292,0.1441 0.106,0.0436 0.218,0.0785 0.337,0.1047 0.124,0.0262 0.247,0.0393 0.371,0.0393 0.119,0 0.229,-0.0087 0.331,-0.0262 0.106,-0.0218 0.198,-0.0524 0.278,-0.0917 0.079,-0.0436 0.141,-0.0982 0.185,-0.1636 0.049,-0.0699 0.073,-0.1528 0.073,-0.2488 z"
         fill="#DBE2EA"
         id="path35"
         style="fill:#000000" /><path
         d="m 103.553,33.6412 h 0.788 V 32.993 l 0.516,-0.144 v 0.7922 h 1.768 v 0.4387 h -1.768 v 1.5451 c 0,0.3187 0.077,0.5544 0.232,0.7071 0.159,0.1528 0.384,0.2292 0.675,0.2292 0.199,0 0.371,-0.0371 0.516,-0.1113 0.15,-0.0742 0.285,-0.155 0.404,-0.2423 l 0.172,0.3863 c -0.154,0.1222 -0.34,0.2205 -0.556,0.2947 -0.212,0.0742 -0.43,0.1113 -0.655,0.1113 -0.177,0 -0.344,-0.0262 -0.503,-0.0786 -0.155,-0.048 -0.292,-0.1244 -0.411,-0.2292 -0.119,-0.1047 -0.214,-0.2378 -0.284,-0.3993 -0.071,-0.1659 -0.106,-0.3623 -0.106,-0.5893 v -1.6237 h -0.788 z"
         fill="#DBE2EA"
         id="path36"
         style="fill:#000000" /><path
         d="m 110.819,36.5024 c -0.08,0.0698 -0.175,0.1353 -0.285,0.1964 -0.106,0.0611 -0.223,0.1135 -0.351,0.1571 -0.128,0.0437 -0.262,0.0764 -0.404,0.0982 -0.136,0.0262 -0.275,0.0393 -0.417,0.0393 -0.264,0 -0.498,-0.0393 -0.701,-0.1178 -0.203,-0.083 -0.373,-0.1986 -0.51,-0.347 -0.137,-0.1528 -0.24,-0.334 -0.311,-0.5435 -0.071,-0.2095 -0.106,-0.4452 -0.106,-0.7071 0,-0.275 0.037,-0.5194 0.113,-0.7333 0.079,-0.2139 0.191,-0.3928 0.337,-0.5369 0.146,-0.144 0.322,-0.2531 0.53,-0.3273 0.207,-0.0786 0.439,-0.1179 0.695,-0.1179 0.185,0 0.368,0.024 0.549,0.072 0.181,0.0481 0.34,0.1397 0.477,0.275 0.141,0.131 0.249,0.3143 0.324,0.55 0.075,0.2313 0.102,0.5325 0.08,0.9035 h -2.562 c 0,0.3929 0.106,0.6875 0.318,0.8839 0.216,0.1921 0.503,0.2881 0.86,0.2881 0.119,0 0.236,-0.0131 0.351,-0.0393 0.119,-0.0305 0.232,-0.0655 0.337,-0.1047 0.106,-0.0393 0.199,-0.083 0.278,-0.131 0.084,-0.048 0.148,-0.0916 0.192,-0.1309 z m -1.397,-2.5077 c -0.146,0 -0.285,0.0153 -0.417,0.0459 -0.128,0.0305 -0.243,0.0829 -0.344,0.1571 -0.097,0.0698 -0.179,0.1637 -0.245,0.2815 -0.062,0.1135 -0.102,0.2554 -0.119,0.4256 h 2.058 c -0.022,-0.2881 -0.117,-0.5107 -0.284,-0.6678 -0.164,-0.1615 -0.38,-0.2423 -0.649,-0.2423 z"
         fill="#DBE2EA"
         id="path37"
         style="fill:#000000" /><path
         d="m 112.074,32.3317 h 1.099 v 3.4832 c 0,0.2663 0.044,0.454 0.132,0.5631 0.093,0.1091 0.227,0.1637 0.404,0.1637 0.123,0 0.24,-0.0219 0.351,-0.0655 0.114,-0.0437 0.24,-0.1179 0.377,-0.2226 l 0.238,0.3601 c -0.07,0.0611 -0.148,0.1156 -0.231,0.1637 -0.084,0.048 -0.17,0.0894 -0.259,0.1244 -0.088,0.0305 -0.176,0.0545 -0.264,0.072 -0.089,0.0174 -0.17,0.0262 -0.245,0.0262 -0.164,0 -0.309,-0.0219 -0.437,-0.0655 -0.128,-0.0393 -0.236,-0.1048 -0.325,-0.1964 -0.083,-0.0917 -0.147,-0.2117 -0.192,-0.3601 -0.044,-0.1528 -0.066,-0.3405 -0.066,-0.5631 v -3.0445 h -0.582 z"
         fill="#DBE2EA"
         id="path38"
         style="fill:#000000" /><path
         d="m 115.632,35.278 c 0,-0.5281 0.139,-0.945 0.417,-1.2505 0.279,-0.3099 0.676,-0.4649 1.192,-0.4649 0.278,0 0.516,0.0458 0.715,0.1375 0.203,0.0873 0.371,0.2073 0.503,0.3601 0.132,0.1528 0.229,0.3339 0.291,0.5434 0.066,0.2096 0.1,0.4343 0.1,0.6744 0,0.2619 -0.036,0.4998 -0.106,0.7137 -0.071,0.2095 -0.175,0.3885 -0.312,0.5369 -0.136,0.1484 -0.306,0.264 -0.509,0.347 -0.199,0.0785 -0.426,0.1178 -0.682,0.1178 -0.274,0 -0.512,-0.0436 -0.715,-0.1309 -0.203,-0.0917 -0.371,-0.2139 -0.503,-0.3667 -0.132,-0.1527 -0.232,-0.3339 -0.298,-0.5434 -0.062,-0.2095 -0.093,-0.4343 -0.093,-0.6744 z m 0.55,0 c 0,0.1528 0.018,0.3056 0.053,0.4583 0.04,0.1528 0.101,0.2903 0.185,0.4125 0.084,0.1222 0.192,0.2204 0.325,0.2946 0.136,0.0742 0.302,0.1114 0.496,0.1114 0.353,0 0.618,-0.107 0.794,-0.3209 0.181,-0.2182 0.272,-0.5369 0.272,-0.9559 0,-0.1571 -0.02,-0.3099 -0.06,-0.4583 -0.035,-0.1528 -0.097,-0.2903 -0.185,-0.4125 -0.084,-0.1222 -0.194,-0.2204 -0.331,-0.2946 -0.133,-0.0742 -0.296,-0.1113 -0.49,-0.1113 -0.353,0 -0.618,0.1069 -0.794,0.3208 -0.177,0.2139 -0.265,0.5325 -0.265,0.9559 z"
         fill="#DBE2EA"
         id="path39"
         style="fill:#000000" /></g></g></svg>
