<?xml version="1.0" encoding="UTF-8" standalone="no"?>
<!-- Created with Inkscape (http://www.inkscape.org/) -->

<svg
   width="322"
   height="200"
   viewBox="0 0 85.195834 52.916666"
   version="1.1"
   id="svg1"
   inkscape:version="1.4 (e7c3feb100, 2024-10-09)"
   sodipodi:docname="ebi.svg"
   xml:space="preserve"
   xmlns:inkscape="http://www.inkscape.org/namespaces/inkscape"
   xmlns:sodipodi="http://sodipodi.sourceforge.net/DTD/sodipodi-0.dtd"
   xmlns:xlink="http://www.w3.org/1999/xlink"
   xmlns="http://www.w3.org/2000/svg"
   xmlns:svg="http://www.w3.org/2000/svg"><sodipodi:namedview
     id="namedview1"
     pagecolor="#ffffff"
     bordercolor="#000000"
     borderopacity="0.25"
     inkscape:showpageshadow="2"
     inkscape:pageopacity="0.0"
     inkscape:pagecheckerboard="0"
     inkscape:deskcolor="#d1d1d1"
     inkscape:document-units="mm"
     inkscape:zoom="2"
     inkscape:cx="124.25"
     inkscape:cy="50.5"
     inkscape:window-width="2556"
     inkscape:window-height="1383"
     inkscape:window-x="0"
     inkscape:window-y="36"
     inkscape:window-maximized="1"
     inkscape:current-layer="layer1" /><defs
     id="defs1"><circle
       id="a"
       r="7.5"
       fill="#6DAB49" /><circle
       id="b"
       r="7.5"
       fill="#DA0F21" /></defs><g
     inkscape:label="Layer 1"
     inkscape:groupmode="layer"
     id="layer1"><g
       id="g1"
       transform="matrix(0.13302054,0,0,0.13302054,3.4532268,14.51974)"><use
         xlink:href="#a"
         transform="translate(467,28.1)"
         id="use1" /><use
         xlink:href="#a"
         transform="translate(467,48.7)"
         id="use2" /><use
         xlink:href="#a"
         transform="translate(467,69.2)"
         id="use3" /><use
         xlink:href="#a"
         transform="translate(467,89.7)"
         id="use4" /><use
         xlink:href="#a"
         transform="translate(467,130.9)"
         id="use5" /><use
         xlink:href="#a"
         transform="translate(467,151.5)"
         id="use6" /><use
         xlink:href="#a"
         transform="translate(430,48.6)"
         id="use7" /><use
         xlink:href="#a"
         transform="translate(430,69.3)"
         id="use8" /><use
         xlink:href="#a"
         transform="translate(430,89.7)"
         id="use9" /><use
         xlink:href="#a"
         transform="translate(430,110.3)"
         id="use10" /><use
         xlink:href="#a"
         transform="translate(430,130.8)"
         id="use11" /><use
         xlink:href="#a"
         transform="translate(449,38.4)"
         id="use12" /><use
         xlink:href="#a"
         transform="translate(449,59)"
         id="use13" /><use
         xlink:href="#a"
         transform="translate(449,79.5)"
         id="use14" /><use
         xlink:href="#a"
         transform="translate(449,100)"
         id="use15" /><use
         xlink:href="#a"
         transform="translate(449,120.5)"
         id="use16" /><use
         xlink:href="#a"
         transform="translate(449,141)"
         id="use17" /><use
         xlink:href="#a"
         transform="translate(576.7,48.6)"
         id="use18" /><use
         xlink:href="#a"
         transform="translate(576.7,69)"
         id="use19" /><use
         xlink:href="#a"
         transform="translate(576.7,89.7)"
         id="use20" /><use
         xlink:href="#a"
         transform="translate(576.7,110)"
         id="use21" /><use
         xlink:href="#a"
         transform="translate(576.7,131)"
         id="use22" /><use
         xlink:href="#a"
         transform="translate(558,38.4)"
         id="use23" /><use
         xlink:href="#a"
         transform="translate(558,59)"
         id="use24" /><use
         xlink:href="#a"
         transform="translate(558,79.5)"
         id="use25" /><use
         xlink:href="#a"
         transform="translate(558,100)"
         id="use26" /><use
         xlink:href="#a"
         transform="translate(558,120.5)"
         id="use27" /><use
         xlink:href="#a"
         transform="translate(558,141)"
         id="use28" /><use
         xlink:href="#a"
         transform="translate(540,28)"
         id="use29" /><use
         xlink:href="#a"
         transform="translate(540,48.7)"
         id="use30" /><use
         xlink:href="#a"
         transform="translate(540,69)"
         id="use31" /><use
         xlink:href="#a"
         transform="translate(540,89.7)"
         id="use32" /><use
         xlink:href="#a"
         transform="translate(540,110)"
         id="use33" /><use
         xlink:href="#a"
         transform="translate(540,131)"
         id="use34" /><use
         xlink:href="#a"
         transform="translate(540,151.5)"
         id="use35" /><use
         xlink:href="#b"
         transform="translate(467,110)"
         id="use36" /><use
         xlink:href="#a"
         transform="translate(522,18)"
         id="use37" /><use
         xlink:href="#a"
         transform="translate(522,38)"
         id="use38" /><use
         xlink:href="#a"
         transform="translate(522,59)"
         id="use39" /><use
         xlink:href="#a"
         transform="translate(522,79)"
         id="use40" /><use
         xlink:href="#a"
         transform="translate(522,100)"
         id="use41" /><use
         xlink:href="#a"
         transform="translate(522,120.5)"
         id="use42" /><use
         xlink:href="#a"
         transform="translate(522,141)"
         id="use43" /><use
         xlink:href="#a"
         transform="translate(522,161.6)"
         id="use44" /><use
         xlink:href="#a"
         transform="translate(503.5,7.5)"
         id="use45" /><use
         xlink:href="#a"
         transform="translate(503.5,28)"
         id="use46" /><use
         xlink:href="#a"
         transform="translate(503.5,48.6)"
         id="use47" /><use
         xlink:href="#a"
         transform="translate(503.5,69)"
         id="use48" /><use
         xlink:href="#a"
         transform="translate(503.5,90)"
         id="use49" /><use
         xlink:href="#a"
         transform="translate(503.5,110.3)"
         id="use50" /><use
         xlink:href="#a"
         transform="translate(503.5,131)"
         id="use51" /><use
         xlink:href="#a"
         transform="translate(503.5,151.4)"
         id="use52" /><use
         xlink:href="#a"
         transform="translate(485,17.7)"
         id="use53" /><use
         xlink:href="#a"
         transform="translate(485,38.3)"
         id="use54" /><use
         xlink:href="#a"
         transform="translate(485,58.8)"
         id="use55" /><use
         xlink:href="#a"
         transform="translate(485,79.4)"
         id="use56" /><use
         xlink:href="#a"
         transform="translate(485,100)"
         id="use57" /><use
         xlink:href="#a"
         transform="translate(485,120.5)"
         id="use58" /><use
         xlink:href="#a"
         transform="translate(485,141)"
         id="use59" /><use
         xlink:href="#a"
         transform="translate(485,161.6)"
         id="use60" /><use
         xlink:href="#a"
         transform="translate(503.5,172)"
         id="use61" /><path
         id="E"
         d="M -22.8,31 H 22 V 23.3 H -14.7 V 4.5 h 34 v -7 h -34 v -21 H 22.8 V -31 h -45.6 z"
         transform="matrix(1,0,0,-1,26.2,89.6)" /><path
         d="m -29.6,31 h 12 L 0.2,-21.4 17.8,31 h 12 v -62 h -8 V 21.3 L 4.2,-30.7 H -4 l -17.8,52 v -52 h -8 z"
         transform="matrix(1,0,0,-1,86,90)"
         id="path61" /><path
         id="B"
         d="M -24,30.8 H 2.3 C 11.7,30.8 24,26.1 24,12.8 24,1.4 16,-1.2 12.7,-2.4 15,-3.4 21,-6.7 21,-15.6 21,-28 10,-31 2.8,-31 H -24 V 31 Z M -15.7,-5 v -19 h 15 c 3.8,0 13.4,0.2 13.4,9.4 0,9.6 -9.4,9.8 -13,9.8 H -15.7 Z M 2.5,23.7 H -15.7 V 2 H 1 c 3.6,0 14.7,0.3 14.7,10.4 0,9.7 -8,11.3 -13.2,11.2 z"
         transform="translate(155,90)" /><path
         id="I"
         d="M -4.2,31 H 4.2 V -31 H -4.2 Z"
         transform="translate(193,90)" /><use
         xlink:href="#I"
         transform="matrix(0,0.87,0.64,0,151.5,-50.35)"
         id="use62" /><use
         xlink:href="#I"
         transform="matrix(0,0.75,0.4,0,210,-58)"
         id="use63" /><use
         xlink:href="#E"
         transform="translate(267.8)"
         id="use64" /><use
         xlink:href="#B"
         transform="translate(193.4)"
         id="use65" /><use
         xlink:href="#I"
         transform="translate(192)"
         id="use66" /></g></g></svg>
