<?xml version="1.0" encoding="UTF-8" standalone="no"?>
<!-- Created with Inkscape (http://www.inkscape.org/) -->

<svg
   width="322"
   height="200"
   viewBox="0 0 85.195834 52.916666"
   version="1.1"
   id="svg1"
   inkscape:version="1.4 (e7c3feb100, 2024-10-09)"
   sodipodi:docname="gwas-catalog.svg"
   xml:space="preserve"
   xmlns:inkscape="http://www.inkscape.org/namespaces/inkscape"
   xmlns:sodipodi="http://sodipodi.sourceforge.net/DTD/sodipodi-0.dtd"
   xmlns="http://www.w3.org/2000/svg"
   xmlns:svg="http://www.w3.org/2000/svg"><sodipodi:namedview
     id="namedview1"
     pagecolor="#ffffff"
     bordercolor="#000000"
     borderopacity="0.25"
     inkscape:showpageshadow="2"
     inkscape:pageopacity="0.0"
     inkscape:pagecheckerboard="0"
     inkscape:deskcolor="#d1d1d1"
     inkscape:document-units="mm"
     inkscape:zoom="2"
     inkscape:cx="152.5"
     inkscape:cy="61.000001"
     inkscape:window-width="2556"
     inkscape:window-height="1275"
     inkscape:window-x="0"
     inkscape:window-y="144"
     inkscape:window-maximized="1"
     inkscape:current-layer="layer1" /><defs
     id="defs1" /><g
     inkscape:label="Layer 1"
     inkscape:groupmode="layer"
     id="layer1"><g
       id="g16536"
       transform="matrix(0.4705449,0,0,0.4705449,76.651748,110.82186)"><g
         id="g16506"><path
           style="opacity:1;fill:#707070;fill-opacity:1;stroke:none;stroke-width:1.05833;stroke-linecap:round;stroke-linejoin:round;stroke-miterlimit:4;stroke-dasharray:none;stroke-opacity:1"
           d="m -75.399303,-227.13746 a 47.794696,47.794696 0 0 0 -19.873198,4.38164 c -0.572968,-0.0801 -2.609726,-0.3607 -3.376538,-0.3607 -3.433021,-0.0124 -6.463141,0.7265 -9.043381,1.757 -2.58024,1.0305 -3.98212,2.6691 -5.27099,4.75423 -0.56843,0.82682 -0.62012,2.22209 -0.62012,2.22209 v 6.37222 a 47.794696,47.794696 0 0 0 -9.61078,28.66802 47.794696,47.794696 0 0 0 9.3617,28.31972 v 8.36848 c 0,0 0.17737,1.81527 1.03353,3.15226 1.419,2.44417 3.83385,3.92368 6.25233,4.70256 1.65363,0.51676 3.35898,0.8785 4.54753,0.98185 1.18854,0.10336 3.875741,0.155 4.754229,0.0517 0.878488,-0.10335 3.358975,-0.36174 3.875733,-0.56844 0.30104,-0.12042 0.741164,-0.20935 1.179772,-0.32091 a 47.794696,47.794696 0 0 0 16.790183,3.10782 47.794696,47.794696 0 0 0 45.55381,-33.507 14.588125,14.588125 0 0 0 8.297691,-13.147 14.588125,14.588125 0 0 0 -7.55717,-12.77958 47.794696,47.794696 0 0 0 -46.294331,-36.15594 z"
           id="path15932-6-0-4"
           inkscape:connector-curvature="0" /></g><g
         id="g16503"><circle
           style="opacity:1;fill:#ffffff;fill-opacity:1;stroke:#000000;stroke-width:1.05833;stroke-linecap:round;stroke-linejoin:round;stroke-miterlimit:4;stroke-dasharray:none;stroke-opacity:1"
           id="path15932-68"
           cx="179.0016"
           cy="-75.54567"
           r="42.605976"
           transform="rotate(-90)" /><g
           id="g16476"><g
             id="g16431"><path
               style="fill:#ffffff;stroke:none;stroke-width:1.05833;stroke-linecap:butt;stroke-linejoin:miter;stroke-miterlimit:4;stroke-dasharray:none;stroke-opacity:1"
               d="m -99.248327,-137.90102 c 0,0 2.66465,0.008 3.82362,-0.20671 1.15897,-0.21433 2.4797,-0.56085 4.45039,-2.12237 1.97069,-1.56153 1.85406,-3.25191 1.85406,-3.25191 v -42.89089 c 0,0 0.22408,-2.41504 -1.24022,-4.34076 -1.4643,-1.92572 -4.07872,-2.24347 -4.07872,-2.24347 0,0 2.24409,0.0246 3.87201,-2.1161 1.62793,-2.14073 1.44693,-2.97839 1.44693,-2.97839 v -15.50273 c 0,0 -0.54125,-1.63762 -2.9732,-3.016 -2.43194,-1.37838 -7.15487,-1.63482 -7.15487,-1.63482 0,0 -4.722923,0.25644 -7.154863,1.63482 -2.43195,1.37838 -2.9732,3.016 -2.9732,3.016 v 15.50273 c 0,0 -0.181,0.83766 1.44692,2.97839 1.62793,2.14073 3.87201,2.1161 3.87201,2.1161 0,0 -2.61441,0.31775 -4.07871,2.24347 -1.4643,1.92572 -1.24022,4.34076 -1.24022,4.34076 v 42.89089 c 0,0 -0.11663,1.69038 1.85406,3.25192 1.97069,1.56152 3.29142,1.90804 4.45039,2.12236 1.15897,0.21433 3.823613,0.20671 3.823613,0.20671 z"
               id="path15949-6-6"
               inkscape:connector-curvature="0"
               sodipodi:nodetypes="czzcczczcczczcczczcczzcc" /><g
               id="g16367"><path
                 inkscape:connector-curvature="0"
                 id="path15949-6-3-5"
                 d="m -109.11712,-197.57398 c 0.17732,0.47855 0.53446,1.17539 1.28209,2.15852 1.62793,2.14074 3.8716,2.11616 3.8716,2.11616 0,0 -2.61401,0.31754 -4.07832,2.24327 -0.22841,0.3004 -0.41182,0.61285 -0.56533,0.92604 h 18.90582 c -0.153511,-0.31319 -0.336417,-0.62564 -0.564832,-0.92604 -1.464284,-1.92573 -4.078817,-2.24327 -4.078817,-2.24327 0,0 2.244196,0.0245 3.872124,-2.11616 0.747634,-0.98313 1.104239,-1.67997 1.281563,-2.15852 z"
                 style="opacity:1;fill:#dadada;fill-opacity:1;stroke:none;stroke-width:1.05833;stroke-linecap:butt;stroke-linejoin:miter;stroke-miterlimit:4;stroke-dasharray:none;stroke-opacity:1" /><path
                 inkscape:connector-curvature="0"
                 id="path15949-6-3-4"
                 d="m -109.47568,-165.72295 v 22.09581 c 0,0 -0.11655,1.69046 1.85414,3.252 1.9707,1.56152 3.29142,1.90803 4.45037,2.12235 1.15898,0.21433 3.823548,0.2067 3.823548,0.2067 0,0 2.6651,0.008 3.82405,-0.2067 1.15898,-0.21433 2.4797,-0.56083 4.45037,-2.12235 1.9707,-1.56153 1.85364,-3.252 1.85364,-3.252 v -22.09581 z"
                 style="opacity:1;fill:#dadada;fill-opacity:1;stroke:none;stroke-width:1.05833;stroke-linecap:butt;stroke-linejoin:miter;stroke-miterlimit:4;stroke-dasharray:none;stroke-opacity:1" /><path
                 inkscape:connector-curvature="0"
                 id="path15949-6-3-46"
                 d="m -109.34068,-212.48642 v 6.82387 h 20.256116 v -6.82387 z"
                 style="opacity:1;fill:#dadada;fill-opacity:1;stroke:none;stroke-width:1.05833;stroke-linecap:butt;stroke-linejoin:miter;stroke-miterlimit:4;stroke-dasharray:none;stroke-opacity:1" /><path
                 sodipodi:nodetypes="czzcczczcczczcczczcczzcc"
                 inkscape:connector-curvature="0"
                 id="path15949-6"
                 d="m -99.248327,-137.90102 c 0,0 2.66465,0.008 3.82362,-0.20671 1.15897,-0.21433 2.4797,-0.56085 4.45039,-2.12237 1.97069,-1.56153 1.85406,-3.25191 1.85406,-3.25191 v -42.89089 c 0,0 0.22408,-2.41504 -1.24022,-4.34076 -1.4643,-1.92572 -4.07872,-2.24347 -4.07872,-2.24347 0,0 2.24409,0.0246 3.87201,-2.1161 1.62793,-2.14073 1.44693,-2.97839 1.44693,-2.97839 v -15.50273 c 0,0 -0.54125,-1.63762 -2.9732,-3.016 -2.43194,-1.37838 -7.15487,-1.63482 -7.15487,-1.63482 0,0 -4.722923,0.25644 -7.154863,1.63482 -2.43195,1.37838 -2.9732,3.016 -2.9732,3.016 v 15.50273 c 0,0 -0.181,0.83766 1.44692,2.97839 1.62793,2.14073 3.87201,2.1161 3.87201,2.1161 0,0 -2.61441,0.31775 -4.07871,2.24347 -1.4643,1.92572 -1.24022,4.34076 -1.24022,4.34076 v 42.89089 c 0,0 -0.11663,1.69038 1.85406,3.25192 1.97069,1.56152 3.29142,1.90804 4.45039,2.12236 1.15897,0.21433 3.823613,0.20671 3.823613,0.20671 z"
                 style="fill:none;stroke:#000000;stroke-width:1.05833;stroke-linecap:butt;stroke-linejoin:miter;stroke-miterlimit:4;stroke-dasharray:none;stroke-opacity:1" /><path
                 inkscape:connector-curvature="0"
                 id="path15967-5"
                 d="m -108.8766,-185.81174 h 19.238463"
                 style="fill:none;stroke:#000000;stroke-width:1.05833;stroke-linecap:butt;stroke-linejoin:miter;stroke-miterlimit:4;stroke-dasharray:none;stroke-opacity:1" /><path
                 inkscape:connector-curvature="0"
                 id="path15967-7-34"
                 d="m -108.8766,-177.80185 h 19.238463"
                 style="fill:none;stroke:#000000;stroke-width:1.05833;stroke-linecap:butt;stroke-linejoin:miter;stroke-miterlimit:4;stroke-dasharray:none;stroke-opacity:1" /><path
                 inkscape:connector-curvature="0"
                 id="path15967-3-7"
                 d="m -108.8766,-170.80308 h 19.238463"
                 style="fill:none;stroke:#000000;stroke-width:1.05833;stroke-linecap:butt;stroke-linejoin:miter;stroke-miterlimit:4;stroke-dasharray:none;stroke-opacity:1" /><path
                 inkscape:connector-curvature="0"
                 id="path15967-7-3-4"
                 d="m -108.8766,-179.25706 h 19.238463"
                 style="fill:none;fill-opacity:1;stroke:#9c9c9c;stroke-width:1.85208;stroke-linecap:butt;stroke-linejoin:miter;stroke-miterlimit:4;stroke-dasharray:none;stroke-opacity:1" /><path
                 inkscape:connector-curvature="0"
                 id="path15967-7-3-2-7"
                 d="m -108.8766,-176.34664 h 19.238463"
                 style="fill:none;fill-opacity:1;stroke:#9c9c9c;stroke-width:1.85208;stroke-linecap:butt;stroke-linejoin:miter;stroke-miterlimit:4;stroke-dasharray:none;stroke-opacity:1" /></g></g><g
             id="g16451"><g
               id="g16439"><ellipse
                 ry="9.1429644"
                 rx="9.1429567"
                 cy="-177.80185"
                 cx="-72.803543"
                 id="path15891-91"
                 style="opacity:1;fill:#eb448f;fill-opacity:1;stroke:#000000;stroke-width:1.05833;stroke-linecap:round;stroke-linejoin:round;stroke-miterlimit:4;stroke-dasharray:none;stroke-opacity:1" /><ellipse
                 ry="9.1429644"
                 rx="9.1429567"
                 cy="-196.54092"
                 cx="-72.803543"
                 id="path15891-0-5"
                 style="opacity:1;fill:#eb448f;fill-opacity:1;stroke:#000000;stroke-width:1.05833;stroke-linecap:round;stroke-linejoin:round;stroke-miterlimit:4;stroke-dasharray:none;stroke-opacity:1" /><ellipse
                 ry="9.1429644"
                 rx="9.1429567"
                 cy="-159.25897"
                 cx="-72.803543"
                 id="path15891-9-0"
                 style="opacity:1;fill:#f8ec88;fill-opacity:1;stroke:#000000;stroke-width:1.05833;stroke-linecap:round;stroke-linejoin:round;stroke-miterlimit:4;stroke-dasharray:none;stroke-opacity:1" /><ellipse
                 ry="9.1429644"
                 rx="9.1429567"
                 cy="-177.80185"
                 cx="-54.269581"
                 id="path15891-5-9"
                 style="opacity:1;fill:#afce7e;fill-opacity:1;stroke:#000000;stroke-width:1.05833;stroke-linecap:round;stroke-linejoin:round;stroke-miterlimit:4;stroke-dasharray:none;stroke-opacity:1" /><ellipse
                 ry="9.1429644"
                 rx="9.1429567"
                 cy="-196.54092"
                 cx="-54.269581"
                 id="path15891-2-4"
                 style="opacity:1;fill:#fab375;fill-opacity:1;stroke:#000000;stroke-width:1.05833;stroke-linecap:round;stroke-linejoin:round;stroke-miterlimit:4;stroke-dasharray:none;stroke-opacity:1" /><ellipse
                 ry="9.1429644"
                 rx="9.1429567"
                 cy="-177.80185"
                 cx="-36.007488"
                 id="path15891-1-9"
                 style="opacity:1;fill:#8ecdc4;fill-opacity:1;stroke:#000000;stroke-width:1.05833;stroke-linecap:round;stroke-linejoin:round;stroke-miterlimit:4;stroke-dasharray:none;stroke-opacity:1" /></g><path
               style="fill:none;stroke:#000000;stroke-width:1.05833;stroke-linecap:square;stroke-linejoin:miter;stroke-miterlimit:4;stroke-dasharray:none;stroke-opacity:1"
               d="m -88.563527,-186.44241 7.81803,-4.79556"
               id="path15967-38-1"
               inkscape:connector-curvature="0" /><path
               style="fill:none;stroke:#000000;stroke-width:1.05833;stroke-linecap:square;stroke-linejoin:miter;stroke-miterlimit:4;stroke-dasharray:none;stroke-opacity:1"
               d="m -88.898777,-170.37358 7.89074,5.81197"
               id="path15967-38-6-4"
               inkscape:connector-curvature="0" /><path
               style="fill:none;stroke:#000000;stroke-width:1.05833;stroke-linecap:square;stroke-linejoin:miter;stroke-miterlimit:4;stroke-dasharray:none;stroke-opacity:1"
               d="m -88.925607,-177.80185 h 6.21617"
               id="path15967-1-0"
               inkscape:connector-curvature="0" /></g></g></g></g></g></svg>
