<?xml version="1.0" encoding="UTF-8" standalone="no"?>
<!-- Created with Inkscape (http://www.inkscape.org/) -->

<svg
   width="322"
   height="200"
   viewBox="0 0 85.195834 52.916666"
   version="1.1"
   id="svg1"
   inkscape:version="1.4 (e7c3feb100, 2024-10-09)"
   sodipodi:docname="nencki-institute.svg"
   xml:space="preserve"
   xmlns:inkscape="http://www.inkscape.org/namespaces/inkscape"
   xmlns:sodipodi="http://sodipodi.sourceforge.net/DTD/sodipodi-0.dtd"
   xmlns:xlink="http://www.w3.org/1999/xlink"
   xmlns="http://www.w3.org/2000/svg"
   xmlns:svg="http://www.w3.org/2000/svg"><sodipodi:namedview
     id="namedview1"
     pagecolor="#ffffff"
     bordercolor="#000000"
     borderopacity="0.25"
     inkscape:showpageshadow="2"
     inkscape:pageopacity="0.0"
     inkscape:pagecheckerboard="0"
     inkscape:deskcolor="#d1d1d1"
     inkscape:document-units="mm"
     inkscape:zoom="2.8284271"
     inkscape:cx="177.30703"
     inkscape:cy="54.447223"
     inkscape:window-width="2556"
     inkscape:window-height="1365"
     inkscape:window-x="0"
     inkscape:window-y="54"
     inkscape:window-maximized="1"
     inkscape:current-layer="layer1" /><defs
     id="defs1"><path
       id="cg6ba"
       d="M147.2 32.67h2.95v13.97h-2.95zm1.48-1.13c-1.12 0-1.67-.54-1.67-1.62 0-1.07.55-1.61 1.67-1.61 1.1 0 1.66.54 1.66 1.61 0 1.08-.55 1.62-1.66 1.62zm-6.27.86h2.94l-2.45 6.78 2.77 7.46h-3.11L140 39.05zm-5.47-3.8h2.84v18.04h-2.84zm-9.34 7.64c0-2.64 1.5-3.97 4.52-3.97 1.04 0 2 .12 2.85.35v2.74c-.8-.26-1.6-.4-2.36-.4-.76 0-1.3.12-1.6.35-.31.23-.47.61-.47 1.15v6.12c0 .54.15.92.45 1.15.3.23.84.34 1.62.34.78 0 1.58-.13 2.39-.39v2.72c-.85.24-1.8.37-2.88.37-3.01 0-4.52-1.33-4.52-3.97zm-8.15-3.2a6.18 6.18 0 0 1 2.8-.72c.92 0 1.67.27 2.23.8.57.53.85 1.3.85 2.34v11.18h-2.99V36.1c0-.7-.35-1.05-1.07-1.05-.55 0-1.1.16-1.65.47v11.13h-2.95V32.4h2.78zm-10.73 5.4h3.05v-2.37c0-.96-.51-1.45-1.53-1.45-1.01 0-1.52.49-1.52 1.45zm-2.85 4.31v-6.7c0-1.21.36-2.16 1.09-2.86.72-.7 1.8-1.04 3.27-1.04 1.46 0 2.53.35 3.22 1.04.69.7 1.03 1.65 1.03 2.85v4.7h-5.76v1.8c0 .58.17 1 .51 1.26.34.26.99.4 1.95.4.95 0 1.93-.16 2.94-.47v2.62c-1 .3-2.12.44-3.36.44-3.26 0-4.89-1.35-4.89-4.04zm-8.15-9.72a6.18 6.18 0 0 1 2.8-.7c.93 0 1.67.26 2.24.79.57.53.85 1.3.85 2.34v11.18h-3V36.1c0-.7-.35-1.05-1.06-1.05-.55 0-1.1.16-1.66.47v11.13h-2.94V32.4h2.77z" /><path
       id="cg6bb"
       d="M225.86 39.1V36.3c0-1.54-.75-2.3-2.25-2.3-1.51 0-2.26.76-2.26 2.3v2.82zm-6.22 4v-6.81c0-1.16.33-2.09.99-2.78.65-.7 1.65-1.04 2.98-1.04s2.31.34 2.95 1.04c.64.7.96 1.62.96 2.78v4.26h-6.17v2.47c0 .74.22 1.28.68 1.64.45.36 1.16.54 2.11.54.96 0 1.95-.15 2.97-.44v1.62c-.81.26-1.78.39-2.9.39-3.04 0-4.57-1.23-4.57-3.67zm-5.13-12.9v2.51h3.1v1.54h-3.1v9.3c0 .57.14.99.42 1.24.27.25.7.38 1.26.38.57 0 1.12-.1 1.66-.27v1.59c-.65.16-1.26.24-1.83.24-2.17 0-3.26-1.03-3.26-3.1v-9.38h-1.51v-1.54h1.58l.49-2.52zm-9.12 14.95a4.1 4.1 0 0 0 2.34-.76V32.7h1.72v13.93h-1.65v-.66c-.94.47-1.9.71-2.89.71-.98 0-1.76-.3-2.34-.9-.59-.59-.88-1.45-.88-2.58v-10.5h1.73v10.36c0 1.38.66 2.08 1.97 2.08zm-8.95-14.96v2.52h3.08v1.54h-3.08v9.3c0 .57.13.99.4 1.24.28.25.7.38 1.27.38.57 0 1.12-.1 1.66-.27v1.59a7.5 7.5 0 0 1-1.83.24c-2.17 0-3.26-1.03-3.26-3.1v-9.38h-1.5v-1.54h1.58l.48-2.52zm-6.8 2.62h1.74v13.83h-1.73zm.87-1.66c-.7 0-1.06-.38-1.06-1.13 0-.75.36-1.13 1.06-1.13.7 0 1.06.38 1.06 1.13 0 .75-.35 1.13-1.06 1.13zm-6.24-.96v2.52h3.1v1.54h-3.1v9.3c0 .57.14.99.42 1.24.27.25.7.38 1.26.38.57 0 1.12-.1 1.66-.27v1.59c-.65.16-1.26.24-1.83.24-2.17 0-3.26-1.03-3.26-3.1v-9.38h-1.5v-1.54h1.57l.5-2.52zM172.8 36c0-1.14.32-2 .97-2.56.65-.56 1.71-.84 3.19-.84.9 0 1.8.14 2.7.42v1.61c-.81-.3-1.7-.44-2.68-.44-.97 0-1.63.14-1.97.43-.34.28-.5.76-.5 1.43v.64c0 .52.1.92.3 1.2.2.27.58.54 1.13.78l2.09 1.03c1.46.72 2.19 1.71 2.19 2.99v.66c0 2.28-1.47 3.42-4.4 3.42-1.1 0-2.08-.13-2.92-.39v-1.61c.84.29 1.78.44 2.8.44 1.04 0 1.76-.16 2.17-.48.42-.32.62-.79.62-1.4v-.5c0-.45-.1-.81-.31-1.06a3.8 3.8 0 0 0-1.24-.82l-2.1-1c-1.36-.66-2.04-1.7-2.04-3.12zm-8.32-2.64a7.75 7.75 0 0 1 2.98-.69c.9 0 1.64.28 2.22.85.59.56.88 1.36.88 2.38v10.75h-1.73V36.07c0-1.2-.6-1.8-1.8-1.8-.76 0-1.59.22-2.48.65v11.72h-1.72V32.71h1.65zm-6.74-.54h1.73v13.83h-1.73zm.87-1.66c-.71 0-1.06-.38-1.06-1.13 0-.75.35-1.13 1.06-1.13.7 0 1.05.38 1.05 1.13 0 .75-.35 1.13-1.05 1.13z" /><path
       id="cg6bc"
       d="M227.38 53l-2.44 11.3h-1.07l.49-2.35h-.55L221.87 53H223l.93 4.45.7 3.71c.2-1.23.43-2.47.68-3.71l.96-4.45zm-7.98 3.4v-1.26c0-.46-.12-.8-.35-1.01-.24-.22-.62-.33-1.15-.33-.53 0-.92.1-1.15.33-.24.22-.35.55-.35 1v1.27c0 .45.11.78.35 1 .23.22.62.33 1.15.33.53 0 .91-.1 1.15-.33.23-.22.35-.55.35-1zm1.86-3h-.53c-.27 0-.5.07-.7.2.32.4.48.9.48 1.54v1.26a2.2 2.2 0 0 1-.64 1.67c-.43.4-1.08.61-1.94.62-.6 0-.9.28-.9.84 0 .25.09.43.24.55.16.11.42.17.78.17h.93c1.43 0 2.14.61 2.14 1.83v.2c0 1.34-.94 2.02-2.83 2.02h-.64a5 5 0 0 1-2.44-.5v-1.06c.69.39 1.5.58 2.44.58h.56c1.23 0 1.85-.35 1.85-1.04v-.16c0-.3-.08-.53-.23-.68-.15-.15-.46-.23-.92-.23h-.93c-.63 0-1.11-.11-1.44-.34-.34-.24-.5-.57-.5-1.01v-.25c0-.28.07-.5.22-.68.15-.18.34-.3.57-.36-1.03-.3-1.54-1.02-1.54-2.17v-1.26c0-.72.21-1.28.64-1.69.44-.4 1.05-.61 1.86-.61.8 0 1.4.14 1.81.42.21-.63.68-.94 1.43-.94h.23zm-12.65 1.88c0-.75.2-1.34.62-1.78.42-.44 1.06-.66 1.91-.66.86 0 1.5.22 1.9.66.43.44.63 1.03.63 1.78v4.39c0 .74-.2 1.34-.62 1.78-.42.44-1.05.66-1.91.66-.85 0-1.49-.22-1.9-.66a2.48 2.48 0 0 1-.63-1.78zm3.97.01c0-.97-.48-1.46-1.44-1.46s-1.44.49-1.44 1.46v4.36c0 .99.48 1.48 1.44 1.48s1.44-.49 1.44-1.48zm-7.09-4.67h1.12v11.34h-1.12zm-7.07 4.66c0-.75.21-1.34.63-1.78.42-.44 1.05-.66 1.9-.66.86 0 1.5.22 1.92.66.41.44.62 1.03.62 1.78v4.39c0 .74-.2 1.34-.62 1.78-.42.44-1.06.66-1.91.66-.86 0-1.5-.22-1.9-.66a2.48 2.48 0 0 1-.64-1.78zm3.98.01c0-.97-.48-1.46-1.44-1.46s-1.44.49-1.44 1.46v4.36c0 .99.48 1.48 1.44 1.48s1.44-.49 1.44-1.48zm-7.09-2.23h1.12v8.9h-1.12zm.56-1.07c-.46 0-.68-.24-.68-.72 0-.49.22-.73.68-.73.45 0 .68.24.68.73 0 .48-.23.72-.68.72zm-7.55-1.37h1.1v2.72c.62-.26 1.24-.39 1.86-.39.61 0 1.1.18 1.48.55.38.37.57.88.57 1.54v4.59c0 .74-.22 1.32-.64 1.72-.42.4-.99.6-1.7.6h-2.67zm3.88 4.53c0-.76-.38-1.15-1.14-1.15-.42 0-.96.13-1.63.38v6.55h1.3c.98 0 1.47-.46 1.47-1.39zm-11.58-4.53h1.11v11.34h-1.11zm-4.74 2.3c1.77 0 2.66.76 2.66 2.28v6.75h-1.07v-.65c-.53.47-1.16.71-1.9.71-1.45 0-2.18-.72-2.18-2.16v-.5c0-1.09.63-1.81 1.9-2.17l2.18-.61V55.2c0-.43-.13-.75-.36-.95-.23-.2-.69-.3-1.38-.3-.7 0-1.33.11-1.92.32v-1.05c.6-.2 1.29-.3 2.07-.3zm-1.4 6.48v.47c0 .42.09.73.29.93.2.2.57.3 1.13.3.55 0 1.07-.2 1.56-.62v-2.94l-1.78.5c-.47.14-.8.31-.96.51-.17.2-.25.48-.25.85zm-3.97-8.03V53h1.99v1h-1.99v5.97c0 .37.1.64.27.8.18.16.45.24.81.24.37 0 .72-.06 1.07-.17v1.02c-.42.1-.81.16-1.18.16-1.4 0-2.1-.67-2.1-2V54h-.96v-1h1.01l.32-1.62zm-7.08 2.04c.7-.3 1.34-.45 1.91-.45.58 0 1.06.19 1.44.55.37.36.56.87.56 1.53v6.92h-1.11v-6.8c0-.77-.39-1.16-1.16-1.16-.49 0-1.02.14-1.6.41v7.55h-1.1V53h1.06zm-6.95 3.7h2.91v-1.82c0-.98-.48-1.48-1.45-1.48s-1.46.5-1.46 1.48zm-1.09 2.56v-4.38c0-.74.21-1.34.63-1.78.43-.45 1.06-.67 1.92-.67.85 0 1.49.22 1.9.67.41.44.62 1.04.62 1.78v2.74h-3.98v1.6c0 .46.15.82.44 1.05.3.23.75.34 1.36.34.62 0 1.25-.1 1.91-.28v1.04a6.1 6.1 0 0 1-1.86.25c-1.96 0-2.94-.79-2.94-2.36zm-6.26-6.06a4.15 4.15 0 0 1 2.15-.65c.7 0 1.25.19 1.62.55.38.36.57.87.57 1.53v6.92h-1.13v-6.8c0-.77-.38-1.16-1.14-1.16a3.2 3.2 0 0 0-1.7.52c.06.16.09.37.09.63v6.8h-1.11v-6.8c0-.76-.39-1.15-1.16-1.15-.5 0-1.02.14-1.6.41v7.55h-1.1V53h1.06v.4c.7-.29 1.3-.44 1.83-.44.7 0 1.25.22 1.62.65zm-7.79-.55h1.12v8.9h-1.12zm.56-1.07c-.45 0-.68-.24-.68-.72 0-.49.23-.73.68-.73.45 0 .68.24.68.73 0 .48-.23.72-.68.72zm-2.1.96h.38v1.07h-.53c-.37 0-.71.1-1.01.3l-.61.42v7.22h-1.11V53h1.06v.67a9.29 9.29 0 0 0 .48-.34 16.27 16.27 0 0 1 .45-.23l.24-.07c.16-.06.37-.08.64-.08zm-8.76 4.15h2.9v-1.8c0-1-.48-1.49-1.45-1.49s-1.45.5-1.45 1.48zm-1.1 2.57v-4.38c0-.74.21-1.34.64-1.78.42-.45 1.06-.67 1.91-.67.86 0 1.49.22 1.9.67.41.44.62 1.04.62 1.78v2.74h-3.97v1.6c0 .46.14.82.43 1.05.3.23.75.34 1.37.34.61 0 1.25-.1 1.9-.28v1.04c-.52.17-1.14.25-1.86.25-1.96 0-2.94-.79-2.94-2.36zm-5.77-6.25c.7-.3 1.34-.46 1.92-.46.59 0 1.07.19 1.45.55.38.36.57.87.57 1.53v4.57a2.3 2.3 0 0 1-.63 1.72 2.3 2.3 0 0 1-1.68.63h-1.58v2.34h-1.11V53h1.06zm2.82 1.73c0-.76-.39-1.15-1.16-1.15-.5 0-1.04.14-1.61.41v6.52h1.31c.97 0 1.46-.47 1.46-1.4zM120.73 53h1.16l-2.13 4.47 2.13 4.48h-1.16l-1.53-3.38-1.52 3.38h-1.17l2.1-4.48-2.1-4.47h1.17l1.52 3.35zm-9.17 4.1h2.91v-1.8c0-1-.48-1.49-1.45-1.49s-1.46.5-1.46 1.48zm-1.09 2.57v-4.38c0-.74.21-1.34.63-1.78.43-.45 1.06-.67 1.92-.67.85 0 1.49.22 1.9.67.41.44.62 1.04.62 1.78v2.74h-3.98v1.6c0 .46.15.82.44 1.05.3.23.75.34 1.36.34.62 0 1.25-.1 1.91-.28v1.04c-.52.17-1.14.25-1.86.25-1.96 0-2.94-.79-2.94-2.36zm-8.22-7.21c0-.68.18-1.2.55-1.58.36-.37.9-.56 1.6-.56.26 0 .5.02.71.05v.96a2.49 2.49 0 0 0-.62-.07c-.75 0-1.13.4-1.13 1.18V53h1.66v.96h-1.66v8h-1.11v-8h-.9V53h.9zm-7.4 2.82c0-.75.21-1.34.63-1.78.42-.44 1.05-.66 1.9-.66.86 0 1.5.22 1.91.66.42.44.63 1.03.63 1.78v4.39c0 .74-.2 1.34-.63 1.78-.41.44-1.05.66-1.9.66-.86 0-1.5-.22-1.91-.66a2.48 2.48 0 0 1-.63-1.78zm3.98.01c0-.97-.48-1.46-1.44-1.46s-1.44.49-1.44 1.46v4.36c0 .99.48 1.48 1.44 1.48s1.44-.49 1.44-1.48z" /><path
       id="cg6bd"
       d="M34.12 28.93c2.76.58 5.02.93 6.82.84 4.84-.21 6.5-4.45 6.39-18.42H51c.07 16.75-2.44 21.8-9.89 22.14-2.26.1-4.93-.32-8.13-1zm8.78 33.49l-3-2.2c2.06-3.48 3.6-6.26 4.22-8.52 1.23-4.49-1.9-7.33-13.7-11.24l1.13-3.5c14.4 4.84 18.04 8.77 16.13 15.73-.75 2.75-2.48 5.86-4.78 9.73zm33.8 1l-3 2.2c-3.42-3.97-6.05-7-8.37-8.55-3.96-2.63-7.7-.33-15.44 10.45l-2.97-2.17c9.41-13 14.33-15.46 20.45-11.39 2.8 1.86 5.62 5.15 9.33 9.46zm9.6-36.14l1.16 3.54-.8.34c-4.95 2.1-8.74 3.71-10.95 5.49-4.11 3.3-2.42 8.21 7.88 21.72l-2.98 2.19c-11.94-15.76-13.46-21.8-7.2-26.82 2.61-2.1 6.6-3.79 11.8-6zm-1.43-4.44c-18.55 6.54-24.72 6.12-27.53-1.41-.95-2.55-1.37-5.88-1.75-10.08h3.7c.35 3.74.74 6.69 1.51 8.77 1.85 4.95 7.01 4.86 22.93-.81z" /><path
       id="cg6be"
       d="M58.33 33.87a5.54 5.54 0 0 0-5.53 5.56A5.54 5.54 0 0 0 58.33 45a5.54 5.54 0 0 0 5.53-5.56 5.54 5.54 0 0 0-5.53-5.56" /></defs><g
     inkscape:label="Layer 1"
     inkscape:groupmode="layer"
     id="layer1"><g
       id="g6"
       transform="matrix(0.3919753,0,0,0.3919753,-8.018392,11.000787)"><g
         id="g1"><use
           fill="#e15d29"
           xlink:href="#cg6ba"
           id="use1" /></g><g
         id="g2"><use
           fill="#11284f"
           xlink:href="#cg6bb"
           id="use2" /></g><g
         id="g3"><use
           fill="#11284f"
           xlink:href="#cg6bc"
           id="use3" /></g><g
         id="g4"><use
           fill="#11284f"
           xlink:href="#cg6bd"
           id="use4" /></g><g
         id="g5"><use
           fill="#e15d29"
           xlink:href="#cg6be"
           id="use5" /></g></g></g></svg>
