<?xml version="1.0" encoding="UTF-8" standalone="no"?>
<!-- Created with Inkscape (http://www.inkscape.org/) -->

<svg
   width="322"
   height="200"
   viewBox="0 0 85.195834 52.916666"
   version="1.1"
   id="svg1"
   inkscape:version="1.4 (e7c3feb100, 2024-10-09)"
   sodipodi:docname="pfizer.svg"
   xml:space="preserve"
   xmlns:inkscape="http://www.inkscape.org/namespaces/inkscape"
   xmlns:sodipodi="http://sodipodi.sourceforge.net/DTD/sodipodi-0.dtd"
   xmlns="http://www.w3.org/2000/svg"
   xmlns:svg="http://www.w3.org/2000/svg"><sodipodi:namedview
     id="namedview1"
     pagecolor="#ffffff"
     bordercolor="#000000"
     borderopacity="0.25"
     inkscape:showpageshadow="2"
     inkscape:pageopacity="0.0"
     inkscape:pagecheckerboard="0"
     inkscape:deskcolor="#d1d1d1"
     inkscape:document-units="mm"
     inkscape:zoom="2"
     inkscape:cx="96.000001"
     inkscape:cy="46.5"
     inkscape:window-width="2556"
     inkscape:window-height="1365"
     inkscape:window-x="0"
     inkscape:window-y="54"
     inkscape:window-maximized="1"
     inkscape:current-layer="layer1" /><defs
     id="defs1" /><g
     inkscape:label="Layer 1"
     inkscape:groupmode="layer"
     id="layer1"><g
       id="g22"
       transform="matrix(0.05150555,0,0,0.05150555,3.7870338,10.424656)"><path
         d="m 6.2,336.3 c 18.1,-51.9 121.2,-73.8 271.5,-55.7 l 29.1,-107 C 158,154.7 49.4,176 31.3,243.7 Z"
         id="path2"
         inkscape:connector-curvature="0"
         style="fill:#0095ff" /><path
         d="m 549.2,224.9 c -18.1,51.9 -121.1,73.7 -271.5,55.6 l -29.1,107 c 148.8,18.9 257.4,-2.4 275.5,-70.1 z"
         id="path4"
         inkscape:connector-curvature="0"
         style="fill:#0000c9" /><path
         d="M 101.4,112.1 C 321,127.9 545.3,236.5 524.1,317.6 l 19.7,-72.4 c 6.3,-22.8 9.4,-34.6 9.4,-44.1 0,-82.6 -216.5,-183.4 -422.7,-196 z"
         id="path6"
         inkscape:connector-curvature="0"
         style="fill:#0095ff" /><g
         id="g20"
         style="fill:#0000c9"><path
           d="M 454,449 C 234.4,433.3 10.1,324.7 31.4,243.6 L 11.7,316 c -6.3,22.8 -9.4,34.6 -9.4,44.1 0,82.6 216.5,183.4 422.7,196 z"
           id="path8"
           inkscape:connector-curvature="0" /><path
           d="m 1255,423.8 c -27.8,0.4 -42.6,-17.3 -42.6,-48.7 0,-2.1 0.1,-4.1 0.2,-6.1 h 109.2 c 2.2,-8.3 3.6,-17.3 3.6,-25.6 0,-38.3 -23.5,-67.5 -71.5,-67.5 -49.1,0 -92.7,48.4 -92.7,99.2 0,48.7 31.8,78.3 84.8,78.3 23.5,0 46.6,-7.9 62.8,-20.2 l -10.1,-25.3 c -12.6,9.8 -28.1,15.6 -43.7,15.9 z m -0.3,-120.5 c 16.2,0 24.5,10.5 24.5,33.6 0,2.2 -0.1,4.5 -0.4,6.9 h -62.3 c 6.8,-24.4 21.3,-40.5 38.2,-40.5 z"
           id="path10"
           inkscape:connector-curvature="0" /><path
           d="m 822.7,265.1 c 0,-39.7 -31,-68.6 -78,-68.6 h -90.9 l -68.6,252.6 h 57.4 L 667.9,356 h 49.8 c 57,0 105,-36.8 105,-90.9 z m -127,61.3 H 676 l 27.2,-100.3 h 20.7 c 26.1,0 40.8,17.7 40.8,41.1 -0.1,37.5 -29.5,59.2 -69,59.2 z"
           id="path12"
           inkscape:connector-curvature="0" /><path
           d="m 897.5,280.6 6.4,-23.5 c 3.2,-12.3 8.7,-33.2 16.2,-57.4 7.9,-24.9 22.4,-40.4 41.9,-40.4 9.4,0 15.2,4.3 15.2,11.5 -0.4,7.9 -6.9,12.6 -6.9,25.3 0,14.8 12.6,26.3 28.9,26.3 20.2,0 36.4,-16.2 36.4,-36.1 0,-30.7 -26.3,-50.9 -66.4,-50.9 -58.8,0 -97.4,37.5 -121.6,125.2 L 749.4,617.5 H 805 l 84.8,-309.3 h 57.8 l -38,140.7 h 55.6 l 45.5,-168.5 H 897.5 Z"
           id="path14"
           inkscape:connector-curvature="0" /><path
           d="m 1178.9,280.6 h -147.2 l -7.3,27.8 h 71.3 L 985.1,449.1 H 1141 l 7.2,-27.8 H 1068 Z"
           id="path16"
           inkscape:connector-curvature="0" /><path
           d="m 1470.5,277.7 c -19.9,0 -41.1,12.9 -57.7,39.6 l 9.7,-36.7 h -55.6 l -45.5,168.5 h 55.6 l 20.6,-75.8 c 8.3,-31 28.5,-61.3 41.9,-61.3 14.4,0 9,27.1 33.9,27.1 18,0 28.9,-16.6 28.9,-31.8 -0.1,-17.7 -14.1,-29.6 -31.8,-29.6 z"
           id="path18"
           inkscape:connector-curvature="0" /></g></g></g></svg>
