<?xml version="1.0" encoding="UTF-8" standalone="no"?>
<!-- Created with Inkscape (http://www.inkscape.org/) -->

<svg
   width="322"
   height="200"
   viewBox="0 0 85.195834 52.916666"
   version="1.1"
   id="svg1"
   inkscape:version="1.4 (e7c3feb100, 2024-10-09)"
   sodipodi:docname="pgs-catalog.svg"
   xml:space="preserve"
   xmlns:inkscape="http://www.inkscape.org/namespaces/inkscape"
   xmlns:sodipodi="http://sodipodi.sourceforge.net/DTD/sodipodi-0.dtd"
   xmlns="http://www.w3.org/2000/svg"
   xmlns:svg="http://www.w3.org/2000/svg"><sodipodi:namedview
     id="namedview1"
     pagecolor="#ffffff"
     bordercolor="#000000"
     borderopacity="0.25"
     inkscape:showpageshadow="2"
     inkscape:pageopacity="0.0"
     inkscape:pagecheckerboard="0"
     inkscape:deskcolor="#d1d1d1"
     inkscape:document-units="mm"
     inkscape:zoom="1.4142136"
     inkscape:cx="230.51681"
     inkscape:cy="90.509669"
     inkscape:window-width="2556"
     inkscape:window-height="1293"
     inkscape:window-x="0"
     inkscape:window-y="126"
     inkscape:window-maximized="1"
     inkscape:current-layer="layer1" /><defs
     id="defs1"><linearGradient
       x1="0"
       y1="0"
       x2="1"
       y2="0"
       gradientUnits="userSpaceOnUse"
       gradientTransform="matrix(183.0199,0,0,-184.7291,879.5138,373)"
       spreadMethod="pad"
       id="linearGradient41116"><stop
         style="stop-opacity:1;stop-color:#ffffff"
         offset="0"
         id="stop41112" /><stop
         style="stop-opacity:1;stop-color:#eeeeec"
         offset="1"
         id="stop41114" /></linearGradient></defs><g
     inkscape:label="Layer 1"
     inkscape:groupmode="layer"
     id="layer1"><g
       id="g33784"
       transform="matrix(0.38090814,0,0,0.38090814,22.222455,2.8102222)"><rect
         style="fill:#ffffff;fill-opacity:1;stroke:#737070;stroke-width:6.20202;stroke-linecap:butt;stroke-miterlimit:4;stroke-dasharray:none;stroke-opacity:1"
         id="rect30803"
         width="94.779762"
         height="94.834587"
         x="6.1019192"
         y="23.123617"
         ry="6.065681"
         rx="6.065681" /><rect
         style="fill:#ffffff;fill-opacity:1;stroke:#000000;stroke-width:1.302;stroke-linecap:butt;stroke-miterlimit:4;stroke-dasharray:none"
         id="rect30801"
         width="90.311401"
         height="78.792068"
         x="8.2063236"
         y="25.529659"
         ry="3.7052586"
         rx="3.7052586" /><path
         style="fill:#e54792;fill-opacity:1;stroke:#000000;stroke-width:1px;stroke-linecap:butt;stroke-linejoin:miter;stroke-opacity:1"
         d="m 7.8914332,84.304474 c 0,0 3.2436518,-0.400591 4.9038438,-0.695408 1.660192,-0.294817 3.810793,-0.613698 5.049965,-1.07967 1.239172,-0.465972 1.621903,-0.821436 2.427283,-1.353672 0.80538,-0.532236 1.617403,-1.105755 2.381643,-1.845364 0.76424,-0.739609 1.531724,-1.738226 2.14909,-2.593545 0.617366,-0.855319 0.824486,-1.215803 1.568887,-2.511038 0.744401,-1.295235 1.826476,-3.10988 2.79739,-5.310909 0.970914,-2.201029 1.93832,-5.005391 2.860096,-7.931445 0.921776,-2.926054 1.911012,-6.737991 2.605705,-9.629166 0.694693,-2.891175 1.029916,-4.777006 1.619161,-7.696822 0.589245,-2.919816 1.277417,-6.873295 1.898953,-9.82496 0.621536,-2.951665 1.180451,-5.218707 1.798609,-7.889145 0.618158,-2.670438 1.168173,-5.485153 1.91117,-8.133198 0.742997,-2.648045 1.646675,-5.669401 2.534194,-7.742951 0.887519,-2.0735498 1.773337,-3.6972819 2.546849,-4.745694 0.773512,-1.0484121 1.653181,-1.8432048 2.824644,-1.846297 1.171463,-0.00309 2.170222,1.2125606 3.185315,2.9436239 1.015093,1.7310633 3.047621,6.7872021 3.791856,9.2819881 0.744235,2.494786 1.011242,4.041005 1.761443,7.171055 0.750201,3.13005 1.939156,8.051847 2.714841,11.614903 0.775685,3.563056 1.27832,6.454756 1.9682,9.754527 0.68988,3.299771 1.455692,7.071065 2.173202,10.04315 0.71751,2.972085 1.326248,5.529605 2.079639,7.796629 0.753391,2.267024 1.402687,4.101084 2.329522,5.815128 0.926835,1.714044 1.952027,2.973804 3.110691,4.447156 1.158664,1.473352 2.585498,3.108089 3.847639,4.365517 1.262141,1.257428 2.283132,2.176408 3.66591,3.206738 1.382778,1.03033 3.108614,2.075167 4.720168,2.83242 1.611555,0.757254 3.28028,1.185667 5.401126,1.59277 l 3.485353,0.402769"
         id="path30797"
         sodipodi:nodetypes="czzzzzzzzzzzzzzzzzzzzzzzzzzzzcc" /><path
         style="fill:#92cec4;fill-opacity:0.916674;stroke:#000000;stroke-width:1px;stroke-linecap:butt;stroke-linejoin:miter;stroke-opacity:1"
         d="M 8.3117169,84.828 19.01649,84.45946 c 0,0 7.562402,-1.099455 9.693619,-1.577221 2.121026,-0.52354 4.010815,-0.996461 5.652873,-2.123965 0.809902,-0.564641 1.483286,-1.25978 2.271485,-2.176524 6.947005,-9.631341 10.817764,-22.923777 12.75974,-30.834172 2.032168,-7.932667 3.392081,-15.123266 5.399355,-22.734668 0.528333,-1.993888 0.862848,-3.292706 1.357002,-4.72538 0.494154,-1.432674 1.076495,-2.843531 1.567148,-3.87148 0.490653,-1.027949 0.893978,-1.807285 1.288183,-2.32455 0.394205,-0.517265 1.464852,-1.894422 2.677325,-1.898714 1.212473,-0.0043 2.028113,0.692424 2.741484,1.932662 0.71337,1.240239 1.202399,2.561129 1.79486,4.168987 6.26904,24.549861 8.986988,50.015164 19.266827,60.371681 0.941618,0.847354 1.785418,1.513877 2.908221,2.22163 1.122803,0.707753 2.559375,1.435019 3.832227,1.958808 2.032242,0.912584 4.127743,1.545127 6.305363,1.981446"
         id="path30799"
         sodipodi:nodetypes="ccccccczzzzzcczcc" /><rect
         style="fill:#b3b2b2;fill-opacity:1;stroke:#000000;stroke-width:1.302;stroke-linecap:butt;stroke-miterlimit:4;stroke-dasharray:none;stroke-opacity:1"
         id="rect30827"
         width="90.036293"
         height="22.661345"
         x="8.311717"
         y="84.828003"
         ry="0"
         rx="0" /><rect
         style="fill:#000000;fill-opacity:1;stroke:none;stroke-width:1.702;stroke-linecap:butt;stroke-miterlimit:4;stroke-dasharray:none;stroke-opacity:1"
         id="rect30823"
         width="6.91186"
         height="4.0736742"
         x="32.502697"
         y="110.78505"
         ry="0"
         rx="0" /><path
         sodipodi:nodetypes="czzcczczcczczcczczcczzcc"
         inkscape:connector-curvature="0"
         id="path15949-6-6-6-8"
         d="m 101.7593,105.27663 c 0,0 0.009,-3.28408 -0.24708,-4.71247 -0.25619,-1.428385 -0.6704,-3.056134 -2.536903,-5.484939 -1.866518,-2.428794 -3.887044,-2.285055 -3.887044,-2.285055 h -51.26802 c 0,0 -2.886728,-0.276175 -5.188569,1.528522 -2.301841,1.804698 -2.681653,5.026867 -2.681653,5.026867 0,0 0.02938,-2.765755 -2.529391,-4.772101 -2.558845,-2.006358 -3.560114,-1.783288 -3.560114,-1.783288 H 11.329922 c 0,0 -1.9574743,0.66707 -3.6050638,3.664358 -1.6476009,2.997276 -1.9541228,8.818106 -1.9541228,8.818106 0,0 0.3065219,5.82083 1.9541228,8.8181 1.6475895,2.99729 3.6050638,3.66436 3.6050638,3.66436 h 18.530604 c 0,0 1.001269,0.22307 3.560114,-1.78327 2.558833,-2.00637 2.529391,-4.77212 2.529391,-4.77212 0,0 0.379812,3.22217 2.681653,5.02686 2.301841,1.80469 5.188569,1.52853 5.188569,1.52853 h 51.26802 c 0,0 2.020526,0.14374 3.887056,-2.28507 1.866511,-2.42879 2.280711,-4.05655 2.536891,-5.48493 0.25618,-1.42839 0.24708,-4.71246 0.24708,-4.71246 z"
         style="fill:#f7ee79;fill-opacity:1;stroke:none;stroke-width:1.10209;stroke-linecap:butt;stroke-linejoin:miter;stroke-miterlimit:4;stroke-dasharray:none;stroke-opacity:1" /><path
         style="fill:#f8b46b;fill-opacity:1;stroke:none;stroke-width:1.10209;stroke-linecap:butt;stroke-linejoin:miter;stroke-miterlimit:4;stroke-dasharray:none;stroke-opacity:1"
         d="m 30.431455,117.43954 c 0.572019,-0.21854 1.404957,-0.65869 2.580103,-1.58012 2.558856,-2.00636 2.529482,-4.77161 2.529482,-4.77161 0,0 0.37956,3.22167 2.681401,5.02638 0.35907,0.2815 0.732546,0.50756 1.106906,0.69676 V 93.510234 c -0.37436,0.189187 -0.747836,0.414612 -1.106906,0.696126 -2.301841,1.804673 -2.681401,5.026997 -2.681401,5.026997 0,0 0.02927,-2.765897 -2.529482,-4.772256 -1.175146,-0.921421 -2.008084,-1.360934 -2.580103,-1.579472 z"
         id="path15949-6-3-5-3-7"
         inkscape:connector-curvature="0" /><path
         style="fill:#f8b46b;fill-opacity:1;stroke:none;stroke-width:1.10209;stroke-linecap:butt;stroke-linejoin:miter;stroke-miterlimit:4;stroke-dasharray:none;stroke-opacity:1"
         d="m 68.503401,117.88146 h 26.411397 c 0,0 2.020629,0.14364 3.887148,-2.28517 1.866504,-2.4288 2.280694,-4.05654 2.536874,-5.4849 0.25619,-1.42841 0.24708,-4.71238 0.24708,-4.71238 0,0 0.009,-3.28463 -0.24708,-4.713 -0.25619,-1.428403 -0.67037,-3.05614 -2.536874,-5.48491 -1.866507,-2.428817 -3.887148,-2.284545 -3.887148,-2.284545 H 68.503401 Z"
         id="path15949-6-3-4-0-0"
         inkscape:connector-curvature="0" /><path
         style="fill:#f8b46b;fill-opacity:1;stroke:none;stroke-width:1.10209;stroke-linecap:butt;stroke-linejoin:miter;stroke-miterlimit:4;stroke-dasharray:none;stroke-opacity:1"
         d="m 12.606435,117.71508 h 8.156656 V 92.750175 h -8.156656 z"
         id="path15949-6-3-46-8-5"
         inkscape:connector-curvature="0" /><path
         style="fill:#f8b46b;fill-opacity:1;stroke:none;stroke-width:1.10209;stroke-linecap:butt;stroke-linejoin:miter;stroke-miterlimit:4;stroke-dasharray:none;stroke-opacity:1"
         d="m 51.343691,117.82299 h 5.407166 v -24.9649 h -5.407166 z"
         id="path15949-6-3-46-8-5-5"
         inkscape:connector-curvature="0" /><path
         style="fill:none;stroke:#000000;stroke-width:1.702;stroke-linecap:butt;stroke-linejoin:miter;stroke-miterlimit:4;stroke-dasharray:none;stroke-opacity:1"
         d="m 101.7593,105.27663 c 0,0 0.009,-3.28408 -0.24708,-4.71247 -0.25619,-1.428385 -0.6704,-3.056134 -2.536903,-5.484939 -1.866518,-2.428794 -3.887044,-2.285055 -3.887044,-2.285055 h -51.26802 c 0,0 -2.886728,-0.276175 -5.188569,1.528522 -2.301841,1.804698 -2.681653,5.026867 -2.681653,5.026867 0,0 0.02938,-2.765755 -2.529391,-4.772101 -2.558845,-2.006358 -3.560114,-1.783288 -3.560114,-1.783288 H 11.329922 c 0,0 -1.9574743,0.66707 -3.6050638,3.664358 -1.6476009,2.997276 -1.9541228,8.818106 -1.9541228,8.818106 0,0 0.3065219,5.82083 1.9541228,8.8181 1.6475895,2.99729 3.6050638,3.66436 3.6050638,3.66436 h 18.530604 c 0,0 1.001269,0.22307 3.560114,-1.78327 2.558833,-2.00637 2.529391,-4.77212 2.529391,-4.77212 0,0 0.379812,3.22217 2.681653,5.02686 2.301841,1.80469 5.188569,1.52853 5.188569,1.52853 h 51.26802 c 0,0 2.020526,0.14374 3.887056,-2.28507 1.866511,-2.42879 2.280711,-4.05655 2.536891,-5.48493 0.25618,-1.42839 0.24708,-4.71246 0.24708,-4.71246 z"
         id="path15949-6-7-1"
         inkscape:connector-curvature="0"
         sodipodi:nodetypes="czzcczczcczczcczczcczzcc" /><path
         style="fill:none;stroke:#000000;stroke-width:1.702;stroke-linecap:butt;stroke-linejoin:miter;stroke-miterlimit:4;stroke-dasharray:none;stroke-opacity:1"
         d="M 44.49101,117.70778 V 92.788878"
         id="path15967-5-6-1"
         inkscape:connector-curvature="0"
         sodipodi:nodetypes="cc" /><path
         style="fill:none;stroke:#000000;stroke-width:1.702;stroke-linecap:butt;stroke-linejoin:miter;stroke-miterlimit:4;stroke-dasharray:none;stroke-opacity:1"
         d="M 54.06533,117.88004 V 92.72828"
         id="path15967-7-34-5-0"
         inkscape:connector-curvature="0"
         sodipodi:nodetypes="cc" /><path
         style="fill:none;stroke:#000000;stroke-width:1.702;stroke-linecap:butt;stroke-linejoin:miter;stroke-miterlimit:4;stroke-dasharray:none;stroke-opacity:1"
         d="M 62.431045,117.76218 V 92.474421"
         id="path15967-3-7-2-3"
         inkscape:connector-curvature="0"
         sodipodi:nodetypes="cc" /></g></g></svg>
