<?xml version="1.0" encoding="UTF-8" standalone="no"?>
<!-- Created with Inkscape (http://www.inkscape.org/) -->

<svg
   width="322"
   height="200"
   viewBox="0 0 85.195834 52.916666"
   version="1.1"
   id="svg1"
   inkscape:version="1.4 (e7c3feb100, 2024-10-09)"
   sodipodi:docname="rise-health.svg"
   xml:space="preserve"
   xmlns:inkscape="http://www.inkscape.org/namespaces/inkscape"
   xmlns:sodipodi="http://sodipodi.sourceforge.net/DTD/sodipodi-0.dtd"
   xmlns="http://www.w3.org/2000/svg"
   xmlns:svg="http://www.w3.org/2000/svg"><sodipodi:namedview
     id="namedview1"
     pagecolor="#ffffff"
     bordercolor="#000000"
     borderopacity="0.25"
     inkscape:showpageshadow="2"
     inkscape:pageopacity="0.0"
     inkscape:pagecheckerboard="0"
     inkscape:deskcolor="#d1d1d1"
     inkscape:document-units="mm"
     inkscape:zoom="1.4142136"
     inkscape:cx="197.63634"
     inkscape:cy="-24.04163"
     inkscape:window-width="2556"
     inkscape:window-height="1383"
     inkscape:window-x="0"
     inkscape:window-y="36"
     inkscape:window-maximized="1"
     inkscape:current-layer="layer1" /><defs
     id="defs1"><clipPath
       clipPathUnits="userSpaceOnUse"
       id="clipPath1"><rect
         id="rect1"
         data-name="Rectangle 4"
         width="77.258331"
         height="14.345457"
         fill="none"
         x="3.8404171"
         y="17.624617"
         style="stroke-width:0.34989"
         transform="rotate(86.134)" /></clipPath></defs><g
     inkscape:label="Layer 1"
     inkscape:groupmode="layer"
     id="layer1"><path
       id="Path_1"
       data-name="Path 1"
       d="m 34.057547,31.457486 v 0.322598 H 31.3634 c -1.669671,0 -2.447125,-0.322598 -3.794198,-2.694147 -1.593745,-2.769723 -1.935237,-3.37678 -2.826755,-3.37678 h -0.322598 v 3.586014 c 0,1.707459 0.227778,2.067845 0.891518,2.162665 v 0.322598 h -4.818324 v -0.322948 c 0.645196,-0.09482 0.872624,-0.454856 0.872624,-2.162665 v -8.308819 c 0,-1.707109 -0.227428,-2.067845 -0.872624,-2.162665 V 18.50039 h 4.513571 c 3.243822,0 4.970175,1.252253 4.970175,3.547526 a 3.4030223,3.4030223 0 0 1 -2.163014,3.035289 c 0.607407,0.322598 1.555957,1.479681 2.449224,2.826755 1.896749,2.826754 2.978257,3.396024 3.794198,3.547526 m -9.636998,-6.260217 c 1.195222,-0.114064 2.447125,-1.100402 2.447125,-2.978607 0,-1.593395 -0.777803,-2.390443 -2.447125,-2.409337 z m 11.14747,-4.211267 c 0,-1.707109 0.227778,-2.067845 0.891518,-2.163015 V 18.50039 h -4.817275 v 0.322597 c 0.645196,0.09482 0.872974,0.454856 0.872974,2.163015 v 3.312052 c 0,1.707109 -0.227778,2.067495 -0.872974,2.162665 v 0.322597 h 4.818674 v -0.322597 c -0.664789,-0.09482 -0.891518,-0.454856 -0.891518,-2.162665 v -3.312052 m 11.552992,6.88617 c 0,-4.078659 -6.165398,-4.173479 -6.165398,-6.60171 0,-1.005581 0.682984,-1.650427 1.897099,-1.650427 a 2.9247237,2.9247237 0 0 1 2.750829,1.650427 l 0.322598,-0.07593 c -0.05703,-0.398523 -0.265566,-2.447474 -0.265566,-2.447474 a 9.311601,9.311601 0 0 0 -3.035289,-0.550026 c -1.422999,0 -4.629034,0.512237 -4.629034,3.85088 0,4.021976 5.767224,4.306436 5.767224,6.602059 0,0.929656 -0.740016,1.593396 -2.143421,1.593396 A 3.3638347,3.3638347 0 0 1 38.339141,27.83403 l -0.360386,0.03814 v 3.035288 a 7.3053364,7.3053364 0 0 0 4.039821,1.060864 c 2.409337,0 5.103134,-0.777803 5.103134,-4.097902 m 10.661473,-0.18964 c -0.18999,1.04337 -0.47445,2.769723 -2.541945,2.769723 h -2.845649 v -4.949532 h 1.479682 c 1.555607,0 2.029357,0.588163 2.162665,1.214115 h 0.18999 V 23.16756 h -0.19174 c -0.132608,0.625951 -0.607057,1.195221 -2.162665,1.195221 H 52.39384 v -4.553108 h 2.883787 c 1.897449,0 2.143771,1.422649 2.314167,2.124527 l 0.360386,-0.03779 -0.417068,-3.396024 h -9.085573 v 0.322597 c 0.645196,0.09482 0.872974,0.454856 0.872974,2.162666 v 8.309518 c 0,1.707459 -0.227428,2.067845 -0.872974,2.162665 v 0.322598 h 9.237075 l 0.454856,-4.058715 z"
       fill="#22536c"
       style="stroke-width:0.349889;fill:#bb6c84;fill-opacity:1" /><path
       id="Path_2"
       data-name="Path 2"
       d="M 16.964761,31.60304 H 4.0188607 V 18.65714 H 16.964761 Z M 17.141805,18.478697 H 3.8404172 V 31.780434 H 17.142155 Z"
       fill="#22526c"
       style="stroke-width:0.349889;fill:#bb6c84;fill-opacity:1" /><path
       id="Path_3"
       data-name="Path 3"
       d="M 11.956796,24.365582 8.3092015,18.59381 8.458954,18.49934 l 3.647595,5.773172 z"
       fill="#22526c"
       style="stroke-width:0.349889;fill:#bb6c84;fill-opacity:1" /><path
       id="Path_4"
       data-name="Path 4"
       d="M 3.9054966,26.433077 3.8624606,26.260932 12.00998,24.231575 12.05302,24.40337 Z"
       fill="#22526c"
       style="stroke-width:0.349889;fill:#bb6c84;fill-opacity:1" /><rect
       id="Rectangle_3"
       data-name="Rectangle 3"
       width="7.3389258"
       height="0.17704391"
       transform="rotate(-86.134)"
       fill="#22526c"
       x="-30.812239"
       y="13.573199"
       style="stroke-width:0.349889;fill:#bb6c84;fill-opacity:1"
       clip-path="url(#clipPath1)" /><path
       id="Path_5"
       data-name="Path 5"
       d="m 17.080225,26.407186 -5.059398,-1.970227 0.06473,-0.164797 5.057999,1.970226 z"
       fill="#22526c"
       style="stroke-width:0.349889;fill:#bb6c84;fill-opacity:1" /><path
       id="Path_6"
       data-name="Path 6"
       d="m 12.064563,24.445007 -0.136107,-0.113364 4.898449,-5.862744 0.136106,0.113364 z"
       fill="#22526c"
       style="stroke-width:0.349889;fill:#bb6c84;fill-opacity:1" /><path
       id="Path_7"
       data-name="Path 7"
       d="m 14.426314,24.812041 -0.176694,-0.0126 a 1.439794,1.439794 0 0 0 -0.886619,-1.434546 l 0.06753,-0.163748 a 1.6171878,1.6171878 0 0 1 0.995784,1.60949"
       fill="#22526c"
       style="stroke-width:0.349889;fill:#bb6c84;fill-opacity:1" /><path
       id="Path_8"
       data-name="Path 8"
       d="m 12.265049,28.359567 -0.04758,-0.170746 c 0.05458,-0.01505 0.109166,-0.03184 0.163399,-0.05038 a 2.7641246,2.7641246 0 0 0 1.872607,-2.489111 l 0.176694,0.0087 a 2.9390692,2.9390692 0 0 1 -1.991919,2.647961 c -0.05808,0.01994 -0.115814,0.03779 -0.174945,0.05353"
       fill="#22526c"
       style="stroke-width:0.349889;fill:#bb6c84;fill-opacity:1" /><path
       id="Path_9"
       data-name="Path 9"
       d="M 10.077192,28.836816 A 4.758493,4.758493 0 0 1 6.0146286,26.556239 l 0.1508023,-0.09272 a 4.5870473,4.5870473 0 0 0 5.0384041,2.056999 l 0.04304,0.171795 a 4.8239223,4.8239223 0 0 1 -1.17003,0.144854"
       fill="#22526c"
       style="stroke-width:0.349889;fill:#bb6c84;fill-opacity:1" /><path
       id="Path_10"
       data-name="Path 10"
       d="m 5.4093203,25.238206 a 7.3000881,7.3000881 0 0 1 2.7760209,-7.613589 l 0.1049667,0.143105 a 7.1188455,7.1188455 0 0 0 -2.7088421,7.428497 z"
       fill="#22526c"
       style="stroke-width:0.349889;fill:#bb6c84;fill-opacity:1" /><path
       id="Path_11"
       data-name="Path 11"
       d="m 12.675469,23.090586 a 0.74981253,0.74981253 0 0 0 -0.877172,-0.04933 l -0.09762,-0.147654 a 0.93035536,0.93035536 0 0 1 1.088505,0.06123 z"
       fill="#22526c"
       style="stroke-width:0.349889;fill:#bb6c84;fill-opacity:1" /><path
       id="Path_12"
       data-name="Path 12"
       d="m 61.228889,27.764406 h -0.366684 v 3.960745 h 0.366684 v -1.945034 h 2.355454 v 1.945034 h 0.366684 v -3.960745 h -0.366684 v 1.70291 h -2.355454 z"
       fill="#22526c"
       style="stroke-width:0.349889;fill:#bb6c84;fill-opacity:1" /><path
       id="Path_13"
       data-name="Path 13"
       d="m 65.131904,29.828402 h 2.044402 v -0.311751 h -2.044402 v -1.440844 h 2.264832 V 27.764056 H 64.76522 v 3.961095 h 2.686799 V 31.4134 h -2.320115 z"
       fill="#22526c"
       style="stroke-width:0.349889;fill:#bb6c84;fill-opacity:1" /><path
       id="Path_14"
       data-name="Path 14"
       d="m 69.64723,27.764406 -1.556307,3.960745 h 0.377181 l 0.468151,-1.245255 h 1.812776 v 0.0024 l 0.454856,1.242806 h 0.377181 l -1.51782,-3.959346 z m -0.586764,2.402689 0.0021,-0.0052 0.780603,-2.093037 0.0038,0.01015 0.779203,2.088489 z"
       fill="#22526c"
       style="stroke-width:0.349889;fill:#bb6c84;fill-opacity:1" /><path
       id="Path_15"
       data-name="Path 15"
       d="m 72.494977,27.764406 h -0.366684 v 3.960745 h 2.49366 V 31.4134 h -2.126976 z"
       fill="#22526c"
       style="stroke-width:0.349889;fill:#bb6c84;fill-opacity:1" /><path
       id="Path_16"
       data-name="Path 16"
       d="m 75.849708,31.725151 h 0.366684 v -3.648994 h 1.256102 v -0.311751 h -2.879238 v 0.311751 h 1.256452 z"
       fill="#22526c"
       style="stroke-width:0.349889;fill:#bb6c84;fill-opacity:1" /><path
       id="Path_17"
       data-name="Path 17"
       d="m 78.376957,27.764406 h -0.366684 v 3.960745 h 0.366684 v -1.945034 h 2.355454 v 1.945034 h 0.366684 v -3.960745 h -0.366684 v 1.70291 h -2.355454 z"
       fill="#22526c"
       style="stroke-width:0.349889;fill:#bb6c84;fill-opacity:1" /></g></svg>
