<?xml version="1.0" encoding="UTF-8" standalone="no"?>
<!-- Created with Inkscape (http://www.inkscape.org/) -->

<svg
   width="322"
   height="200"
   viewBox="0 0 85.195834 52.916666"
   version="1.1"
   id="svg1"
   inkscape:version="1.4 (e7c3feb100, 2024-10-09)"
   sodipodi:docname="ualg.svg"
   xml:space="preserve"
   xmlns:inkscape="http://www.inkscape.org/namespaces/inkscape"
   xmlns:sodipodi="http://sodipodi.sourceforge.net/DTD/sodipodi-0.dtd"
   xmlns="http://www.w3.org/2000/svg"
   xmlns:svg="http://www.w3.org/2000/svg"><sodipodi:namedview
     id="namedview1"
     pagecolor="#ffffff"
     bordercolor="#000000"
     borderopacity="0.25"
     inkscape:showpageshadow="2"
     inkscape:pageopacity="0.0"
     inkscape:pagecheckerboard="0"
     inkscape:deskcolor="#d1d1d1"
     inkscape:document-units="mm"
     inkscape:zoom="1.4142136"
     inkscape:cx="206.47518"
     inkscape:cy="52.325902"
     inkscape:window-width="2556"
     inkscape:window-height="1257"
     inkscape:window-x="0"
     inkscape:window-y="162"
     inkscape:window-maximized="1"
     inkscape:current-layer="layer1" /><defs
     id="defs1" /><g
     inkscape:label="Layer 1"
     inkscape:groupmode="layer"
     id="layer1"><g
       inkscape:label="Layer 1"
       id="layer1-3"
       transform="matrix(0.25626236,0,0,0.25626236,9.043685,-58.20756)"><path
         d="m 78.01663,366.05408 v 1.24375 h -1.075 v 6.0475 c 0,2.9 -1.5425,4.14375 -4.22875,4.14375 -2.70125,0 -4.22625,-1.24375 -4.22625,-4.14375 v -6.0475 h -1.07625 v -1.24375 h 3.73 v 1.24375 h -1.07625 v 6.0475 c 0,1.2425 0.2475,2.9 2.6825,2.9 2.32,0 2.61875,-1.6575 2.61875,-2.9 v -6.0475 h -1.0775 v -1.24375 z"
         style="fill:#59595c;fill-opacity:1;fill-rule:nonzero;stroke:none"
         id="path4261"
         inkscape:connector-curvature="0" /><path
         d="m 89.45088,366.05408 v 1.24375 h -1.07625 v 10.025 h -1.625 l -5.5175,-8.40125 h -0.0337 v 7.15875 h 1.1275 v 1.2425 h -3.6475 v -1.2425 h 1.07625 v -8.7825 h -1.07625 v -1.24375 h 2.6025 l 5.6,8.61875 h 0.035 v -7.375 h -1.11125 v -1.24375 h 3.64625 z"
         style="fill:#59595c;fill-opacity:1;fill-rule:nonzero;stroke:none"
         id="path4265"
         inkscape:connector-curvature="0" /><path
         d="m 91.19038,376.0797 v -8.78125 h -1.07625 v -1.24375 h 3.7275 v 1.24375 h -1.07625 v 8.78125 h 1.07625 v 1.245 h -3.7275 v -1.245 z"
         style="fill:#59595c;fill-opacity:1;fill-rule:nonzero;stroke:none"
         id="path4269"
         inkscape:connector-curvature="0" /><path
         d="m 105.27738,366.05408 v 1.24375 h -0.87875 l -3.4625,10.11 h -2.02375 l -3.58,-10.11 h -0.8275 v -1.24375 h 4.06125 v 1.24375 h -1.49375 l 2.93375,8.48125 h 0.0175 l 2.76875,-8.48125 h -1.495 v -1.24375 z"
         style="fill:#59595c;fill-opacity:1;fill-rule:nonzero;stroke:none"
         id="path4273"
         inkscape:connector-curvature="0" /><path
         d="m 114.30688,366.05408 v 2.4025 h -1.24125 v -1.15875 h -4.475 v 3.56375 h 4.89 v 1.24 h -4.89 v 3.97875 h 4.475 v -1.16 h 1.24125 v 2.4025 h -8.3675 v -1.2425 h 1.07625 v -8.7825 h -1.07625 v -1.24375 z"
         style="fill:#59595c;fill-opacity:1;fill-rule:nonzero;stroke:none"
         id="path4277"
         inkscape:connector-curvature="0" /><path
         d="m 121.10125,366.05533 c 2.2375,0 3.48125,1.375 3.48125,3.36375 0,1.58875 -0.89625,2.83375 -2.42,3.09875 l 2.51875,3.5625 h 0.8125 v 1.24375 h -3.89625 v -1.24375 h 1.09375 l -2.25,-3.315 h -2.405 v 3.315 h 1.07625 v 1.24375 h -3.7275 v -1.24375 h 1.07625 v -8.78375 H 115.385 v -1.24125 z m -3.065,5.46625 h 2.8175 c 1.24,0 2.10375,-0.74375 2.10375,-2.1025 0,-1.29375 -0.7775,-2.1225 -2.02125,-2.1225 h -2.9 z"
         style="fill:#59595c;fill-opacity:1;fill-rule:nonzero;stroke:none"
         id="path4281"
         inkscape:connector-curvature="0" /><path
         d="m 127.81275,374.50383 v 1.29625 c 1.22625,0.28 2.05625,0.36375 2.8175,0.36375 1.74,0 2.40375,-0.9125 2.40375,-1.82375 0,-1.35875 -1.60875,-1.73875 -2.8175,-2.07 -1.84,-0.48 -3.56375,-1.49375 -3.56375,-3.4 0,-2.135 1.74,-2.98375 3.895,-2.98375 1.245,0 2.40375,0.16875 3.81125,0.58 v 2.40375 h -1.24375 v -1.34125 c -1.16,-0.24875 -1.83875,-0.31625 -2.5675,-0.31625 -1.65875,0 -2.23875,0.745 -2.23875,1.625 0,1.27625 1.64125,1.8075 2.90125,2.10375 1.82375,0.415 3.48125,1.2925 3.48125,3.23125 0,2.23875 -1.74,3.315 -4.06125,3.315 -1.24125,0 -2.65,-0.165 -4.05875,-0.58 v -2.40375 z"
         style="fill:#59595c;fill-opacity:1;fill-rule:nonzero;stroke:none"
         id="path4285"
         inkscape:connector-curvature="0" /><path
         d="m 136.84475,376.0797 v -8.78125 h -1.07625 v -1.24375 h 3.72625 v 1.24375 h -1.0775 v 8.78125 h 1.0775 v 1.245 h -3.72625 v -1.245 z"
         style="fill:#59595c;fill-opacity:1;fill-rule:nonzero;stroke:none"
         id="path4289"
         inkscape:connector-curvature="0" /><path
         d="m 145.24675,366.05408 c 3.69375,0 4.77125,2.4025 4.77125,5.55125 0,3.19875 -1.0775,5.7175 -4.77125,5.7175 h -5.08625 v -1.2425 h 1.07375 v -8.7825 h -1.07375 v -1.24375 z m 0,10.02625 c 2.535,0 3.115,-2.0725 3.115,-4.475 0,-2.40375 -0.58,-4.3075 -3.115,-4.3075 h -2.4375 v 8.7825 z"
         style="fill:#59595c;fill-opacity:1;fill-rule:nonzero;stroke:none"
         id="path4293"
         inkscape:connector-curvature="0" /><path
         d="m 156.82888,366.05408 3.3825,10.02625 h 0.91 v 1.245 h -3.895 v -1.245 h 1.27875 l -0.73,-2.19 h -4.22625 l -0.77875,2.19 h 1.22625 v 1.245 h -3.8125 v -1.245 h 1.045 l 3.0975,-8.78375 h -1.21125 v -1.2425 z m -1.11,1.4075 -1.83875,5.27125 h 3.61375 l -1.7575,-5.27125 z"
         style="fill:#59595c;fill-opacity:1;fill-rule:nonzero;stroke:none"
         id="path4297"
         inkscape:connector-curvature="0" /><path
         d="m 166.87163,366.05408 c 3.6975,0 4.77375,2.4025 4.77375,5.55125 0,3.19875 -1.07625,5.7175 -4.77375,5.7175 h -5.085 v -1.2425 h 1.07375 v -8.7825 h -1.07375 v -1.24375 z m 0,10.02625 c 2.53625,0 3.11625,-2.0725 3.11625,-4.475 0,-2.40375 -0.58,-4.3075 -3.11625,-4.3075 h -2.43625 v 8.7825 z"
         style="fill:#59595c;fill-opacity:1;fill-rule:nonzero;stroke:none"
         id="path4301"
         inkscape:connector-curvature="0" /><path
         d="m 180.8425,366.05408 v 2.4025 h -1.245 v -1.15875 h -4.4725 v 3.56375 h 4.88875 v 1.24 H 175.125 v 3.97875 h 4.4725 v -1.16 h 1.245 v 2.4025 h -8.36875 v -1.2425 H 173.55 v -8.7825 h -1.07625 v -1.24375 z"
         style="fill:#59595c;fill-opacity:1;fill-rule:nonzero;stroke:none"
         id="path4305"
         inkscape:connector-curvature="0" /><path
         d="m 189.98925,366.05408 c 3.69625,0 4.7725,2.4025 4.7725,5.55125 0,3.19875 -1.07625,5.7175 -4.7725,5.7175 h -5.085 v -1.2425 h 1.07375 v -8.7825 h -1.07375 v -1.24375 z m 0,10.02625 c 2.53625,0 3.115,-2.0725 3.115,-4.475 0,-2.40375 -0.57875,-4.3075 -3.115,-4.3075 H 187.553 v 8.7825 z"
         style="fill:#59595c;fill-opacity:1;fill-rule:nonzero;stroke:none"
         id="path4309"
         inkscape:connector-curvature="0" /><path
         d="m 196.25263,371.60458 c 0,-3.1475 0.9425,-5.7175 4.80625,-5.7175 3.84375,0 4.805,2.57 4.805,5.7175 0,3.1975 -0.96125,5.88125 -4.805,5.88125 -3.86375,0 -4.80625,-2.68375 -4.80625,-5.88125 m 1.65625,0 c 0,2.4025 0.44875,4.64 3.15,4.64 2.685,0 3.14625,-2.2375 3.14625,-4.64 0,-2.4025 -0.46125,-4.475 -3.14625,-4.475 -2.70125,0 -3.15,2.0725 -3.15,4.475"
         style="fill:#59595c;fill-opacity:1;fill-rule:nonzero;stroke:none"
         id="path4313"
         inkscape:connector-curvature="0" /><path
         d="m 216.56888,366.05408 3.38125,10.02625 h 0.91 v 1.245 h -3.8925 v -1.245 h 1.27625 l -0.72875,-2.19 h -4.2275 l -0.77875,2.19 h 1.22625 v 1.245 h -3.81125 v -1.245 h 1.04375 l 3.09875,-8.78375 h -1.20875 v -1.2425 z m -1.11,1.4075 -1.84,5.27125 h 3.61375 l -1.7575,-5.27125 h -0.0163 z"
         style="fill:#59595c;fill-opacity:1;fill-rule:nonzero;stroke:none"
         id="path4317"
         inkscape:connector-curvature="0" /><path
         d="m 229.80975,374.92008 v 2.4025 h -8.28625 v -1.2425 h 1.07625 v -8.7825 h -1.07625 v -1.24375 h 3.72875 v 1.24375 H 224.176 v 8.7825 h 4.39125 v -1.16 z"
         style="fill:#59595c;fill-opacity:1;fill-rule:nonzero;stroke:none"
         id="path4321"
         inkscape:connector-curvature="0" /><path
         d="m 235.47625,376.16333 c 0.83,0 1.59125,-0.215 2.205,-0.5475 v -2.68375 h -2.155 v -1.24375 h 3.72875 v 4.90375 c -1.1425,0.48375 -2.3025,0.89625 -3.89375,0.89625 -3.6975,0 -4.80625,-2.685 -4.80625,-5.885 0,-3.14625 0.945,-5.71625 4.80625,-5.71625 1.2775,0 2.485,0.1675 3.89375,0.58 v 2.3175 h -1.2425 v -1.3375 c -1.12625,-0.25 -1.7875,-0.3175 -2.53625,-0.3175 -2.60125,0 -3.26375,2.0725 -3.26375,4.47375 0,2.48875 0.82875,4.56 3.26375,4.56"
         style="fill:#59595c;fill-opacity:1;fill-rule:nonzero;stroke:none"
         id="path4325"
         inkscape:connector-curvature="0" /><path
         d="m 247.0595,366.05408 3.3825,10.02625 h 0.91125 v 1.245 h -3.895 v -1.245 h 1.27625 l -0.72875,-2.19 h -4.22625 l -0.78,2.19 h 1.22625 v 1.245 h -3.81 v -1.245 h 1.04375 l 3.09875,-8.78375 h -1.21 v -1.2425 z m -1.11,1.4075 -1.83875,5.27125 h 3.6125 l -1.75625,-5.27125 z"
         style="fill:#59595c;fill-opacity:1;fill-rule:nonzero;stroke:none"
         id="path4329"
         inkscape:connector-curvature="0" /><path
         d="m 257.73338,366.05533 c 2.23625,0 3.48,1.375 3.48,3.36375 0,1.58875 -0.89625,2.83375 -2.41875,3.09875 l 2.5175,3.5625 h 0.81125 v 1.24375 h -3.89375 v -1.24375 h 1.09375 l -2.25375,-3.315 h -2.4025 v 3.315 h 1.07625 v 1.24375 h -3.7275 v -1.24375 h 1.07625 v -8.78375 h -1.07625 v -1.24125 z m -3.06625,5.46625 h 2.81625 c 1.24375,0 2.105,-0.74375 2.105,-2.1025 0,-1.29375 -0.7775,-2.1225 -2.02125,-2.1225 h -2.9 z"
         style="fill:#59595c;fill-opacity:1;fill-rule:nonzero;stroke:none"
         id="path4333"
         inkscape:connector-curvature="0" /><path
         d="m 272.39888,366.05408 v 1.24375 h -0.87625 l -3.465,10.11 h -2.02375 l -3.5775,-10.11 h -0.82875 v -1.24375 h 4.06 v 1.24375 h -1.4925 l 2.93375,8.48125 h 0.0188 l 2.76625,-8.48125 h -1.495 v -1.24375 h 3.98 z"
         style="fill:#59595c;fill-opacity:1;fill-rule:nonzero;stroke:none"
         id="path4337"
         inkscape:connector-curvature="0" /><path
         d="m 281.43088,366.05408 v 2.4025 h -1.2425 v -1.15875 h -4.47375 v 3.56375 h 4.88875 v 1.24 h -4.88875 v 3.97875 h 4.47375 v -1.16 h 1.2425 v 2.4025 h -8.37 v -1.2425 h 1.0775 v -8.7825 h -1.0775 v -1.24375 z"
         style="fill:#59595c;fill-opacity:1;fill-rule:nonzero;stroke:none"
         id="path4341"
         inkscape:connector-curvature="0" /><path
         inkscape:connector-curvature="0"
         id="path4345"
         style="fill:#38a9dc;fill-opacity:1;fill-rule:nonzero;stroke:none"
         d="m 16.80075,356.36408 c -5.135,0 -10,-1.17 -14.335,-3.2525 2.4175,0.6225 4.94125,0.99 7.555,0.99 16.585,0 30.07625,-13.3575 30.07625,-29.7725 0,-16.4175 -13.49125,-29.77375 -30.07625,-29.77375 -4.50375,0 -8.7625,1.015 -12.60375,2.77625 5.44375,-3.93125 12.14375,-6.26 19.38375,-6.26 18.1825,0 32.9775,14.645 32.9775,32.6475 0,18 -14.795,32.645 -32.9775,32.645 m -13.96875,-9.58 c 12.62,0 22.88375,-10.1675 22.88375,-22.65875 0,-12.4925 -10.26375,-22.6575 -22.88375,-22.6575 -2.44625,0 -4.8,0.39 -7.01375,1.09875 4.09625,-2.62875 8.96625,-4.17375 14.2025,-4.17375 14.44625,0 26.19875,11.63375 26.19875,25.93625 0,14.3 -11.7525,25.9325 -26.19875,25.9325 -5.77625,0 -11.10125,-1.8825 -15.43875,-5.0275 2.56375,0.985 5.33875,1.55 8.25,1.55 m -12.69625,-8.69375 c 1.91375,0.87 4.035,1.37 6.2775,1.37 8.315,0 15.08,-6.69375 15.08,-14.93 0,-8.23 -6.765,-14.92625 -15.08,-14.92625 -2.9425,0 -5.68125,0.84875 -8.00375,2.29875 3.48875,-4.03 8.655,-6.595 14.4225,-6.595 10.48125,0 19.01,8.44125 19.01,18.8175 0,10.37375 -8.52875,18.81625 -19.01,18.81625 -4.8825,0 -9.3275,-1.84875 -12.69625,-4.85125 m 26.665,-50.855 c -20.32125,0 -36.85125,16.365 -36.85125,36.48375 0,0.0875 0.004,0.1825 0.005,0.27125 -0.001,0.045 -0.005,0.09 -0.005,0.135 0,0.0363 0.004,0.0675 0.004,0.1 0,0.035 -0.004,0.0663 -0.004,0.10375 0,0.20625 0.025,0.40375 0.0288,0.61 0.015,0.43625 0.0375,0.8675 0.065,1.29625 0.0488,0.7125 0.11625,1.4175 0.21125,2.1125 0.0813,0.6125 0.1725,1.21875 0.28125,1.82125 0.015,0.0675 0.0225,0.13375 0.0362,0.2025 3.17125,16.95 18.20375,29.82875 36.22875,29.82875 20.32125,0 36.85375,-16.36625 36.85375,-36.48125 0,-20.11875 -16.5325,-36.48375 -36.85375,-36.48375" /><path
         d="m 129.08588,305.41071 10.335,33.4025 h 3.2425 v 7.4475 h -16.99875 v -7.4475 h 3.3625 l -1.32125,-4.92625 h -10.99375 l -1.56125,4.92625 h 3.48375 v 7.4475 h -16.52125 v -7.4475 h 3.785 l 8.22875,-25.95375 h -3.90375 v -7.44875 z m -6.60625,8.47 -3.845,13.095 h 7.45125 l -3.54625,-13.095 z"
         style="fill:#59595c;fill-opacity:1;fill-rule:nonzero;stroke:none"
         id="path4241"
         inkscape:connector-curvature="0" /><path
         d="m 144.16525,304.20958 h 12.25625 v 34.60375 h 3.24125 v 7.4475 h -15.4975 v -7.4475 h 3.245 v -27.155 h -3.245 z"
         style="fill:#59595c;fill-opacity:1;fill-rule:nonzero;stroke:none"
         id="path4245"
         inkscape:connector-curvature="0" /><path
         d="m 164.53275,345.11896 c -3.845,-2.5825 -3.1875,-7.86875 2.46125,-10.7525 v -0.1175 c -3.00375,-1.50375 -4.86625,-4.74625 -4.86625,-8.4125 0,-7.03 5.2275,-10.2125 12.975,-10.2125 1.56375,0 3.245,0.24125 4.4475,0.59875 H 190.964 v 5.3475 h -4.32625 v 0.12 c 0.78125,0.9625 1.14125,2.28375 1.14125,4.14625 0,7.09125 -5.3475,10.15125 -12.67625,10.15125 -0.96,0 -2.3425,-0.1775 -3.54375,-0.53875 -1.26125,1.86125 -1.2025,3.3625 0.72,3.48125 l 9.6125,0.425 c 6.06875,0.2375 9.67125,3.2425 9.67125,8.34875 0,7.7475 -5.8275,11.1725 -18.26,11.1725 -9.25375,0 -13.2175,-2.5225 -13.2175,-7.80875 0,-2.585 1.3225,-4.32625 4.4475,-5.8275 z m 10.15125,7.63 c 3.60375,0 7.38625,-0.77875 7.38625,-3.30375 0,-1.26 -1.02,-2.22 -3.0625,-2.4025 l -9.91125,-0.60125 c -0.72125,0.90125 -1.3225,1.4425 -1.3225,3.065 0,3.005 3.605,3.2425 6.91,3.2425 m 4.565,-26.9125 c 0,-3.0625 -1.80375,-4.08625 -4.14625,-4.08625 -2.46125,0 -4.205,1.02375 -4.205,4.08625 0,3.06125 1.8025,4.025 4.205,4.025 2.3425,0 4.14625,-1.0225 4.14625,-4.025"
         style="fill:#59595c;fill-opacity:1;fill-rule:nonzero;stroke:none"
         id="path4257"
         inkscape:connector-curvature="0" /><path
         d="m 104.39725,305.41071 v 7.45 h -3.185 v 18.9825 c 0,10.755 -6.7875,15.02 -16.4625,15.02 -9.6675,0 -16.4575,-4.265 -16.4575,-15.02 v -18.9825 H 65.0485 v -7.45 h 16.04 v 7.45 h -3.24375 v 18.9825 c 0,4.26625 1.5625,7.5675 6.96625,7.5675 5.2275,0 6.85125,-3.30125 6.85125,-7.5675 v -18.9825 h -3.245 v -7.45 z"
         style="fill:#59595c;fill-opacity:1;fill-rule:nonzero;stroke:none"
         id="path4349"
         inkscape:connector-curvature="0" /></g></g></svg>
