<?xml version="1.0" encoding="UTF-8" standalone="no"?>
<!-- Created with Inkscape (http://www.inkscape.org/) -->

<svg
   width="52.916496mm"
   height="59.53125mm"
   viewBox="0 0 52.916499 59.53125"
   version="1.1"
   id="svg14256"
   inkscape:version="1.2.2 (b0a8486541, 2022-12-01)"
   sodipodi:docname="pi-logotype-canonical-whole-white.svg"
   xmlns:inkscape="http://www.inkscape.org/namespaces/inkscape"
   xmlns:sodipodi="http://sodipodi.sourceforge.net/DTD/sodipodi-0.dtd"
   xmlns="http://www.w3.org/2000/svg"
   xmlns:svg="http://www.w3.org/2000/svg">
  <sodipodi:namedview
     id="namedview14258"
     pagecolor="#ffffff"
     bordercolor="#000000"
     borderopacity="0.25"
     inkscape:showpageshadow="2"
     inkscape:pageopacity="0"
     inkscape:pagecheckerboard="0"
     inkscape:deskcolor="#d1d1d1"
     inkscape:document-units="mm"
     showgrid="false"
     inkscape:zoom="2.5877449"
     inkscape:cx="111.29381"
     inkscape:cy="73.036566"
     inkscape:window-width="2556"
     inkscape:window-height="1347"
     inkscape:window-x="0"
     inkscape:window-y="72"
     inkscape:window-maximized="1"
     inkscape:current-layer="layer1" />
  <defs
     id="defs14253" />
  <g
     inkscape:label="Layer 1"
     inkscape:groupmode="layer"
     id="layer1"
     transform="translate(-35.965774,-311.79855)">
    <g
       id="g18902"
       transform="translate(35.965604,74.329818)"
       style="fill:#ffffff">
      <path
         id="rect1006-9-29-0-9-2-9-0-19-6-6-3-3"
         style="fill:#ffffff;fill-opacity:1;stroke-width:0.026458;stroke-miterlimit:7.1;stop-color:#000000"
         d="m 17.197916,237.46873 a 17.197916,17.197916 0 0 0 -14.8936641,8.59896 17.197916,17.197916 0 0 0 0,17.19791 17.197916,17.197916 0 0 0 14.8936641,8.59896 h 1.322917 34.395833 A 34.395832,34.395832 0 0 0 18.520833,237.46873 Z" />
      <path
         id="path1479-7-5-4-2-4-9-4-3-9-0-7-2-11-4-9-4-4-7-2-62-0-3-0-99-5-8-1-1-1-3-2-2-7-0-5-4-1-1-2-5-5"
         style="fill:#ffffff;fill-opacity:1;stroke:none;stroke-width:3.92499;stroke-linecap:round;stroke-linejoin:round"
         d="m 27.789001,275.83331 a 10.583333,10.583333 0 0 0 -9.165849,5.29167 10.583333,10.583333 0 0 0 0,10.58333 10.583333,10.583333 0 0 0 9.165849,5.29167 H 31.75 c 11.689778,0 21.166666,-9.47639 21.166666,-21.16667 H 31.757751 Z" />
    </g>
  </g>
</svg>
