<?xml version="1.0" encoding="UTF-8" standalone="no"?>
<!-- Created with Inkscape (http://www.inkscape.org/) -->

<svg
   width="51.072258mm"
   height="51.072254mm"
   viewBox="0 0 51.072258 51.072254"
   version="1.1"
   id="svg8894"
   sodipodi:docname="pi-logotype3.svg"
   inkscape:version="1.4 (e7c3feb100, 2024-10-09)"
   inkscape:export-filename="pi-logotype.png"
   inkscape:export-xdpi="179.04045"
   inkscape:export-ydpi="179.04045"
   xmlns:inkscape="http://www.inkscape.org/namespaces/inkscape"
   xmlns:sodipodi="http://sodipodi.sourceforge.net/DTD/sodipodi-0.dtd"
   xmlns="http://www.w3.org/2000/svg"
   xmlns:svg="http://www.w3.org/2000/svg">
  <sodipodi:namedview
     id="namedview8896"
     pagecolor="#ffffff"
     bordercolor="#000000"
     borderopacity="0.25"
     inkscape:showpageshadow="2"
     inkscape:pageopacity="0.0"
     inkscape:pagecheckerboard="0"
     inkscape:deskcolor="#d1d1d1"
     inkscape:document-units="mm"
     showgrid="false"
     inkscape:zoom="2.5877449"
     inkscape:cx="105.30404"
     inkscape:cy="88.49404"
     inkscape:window-width="2556"
     inkscape:window-height="1365"
     inkscape:window-x="0"
     inkscape:window-y="54"
     inkscape:window-maximized="1"
     inkscape:current-layer="layer1" />
  <defs
     id="defs8891" />
  <g
     inkscape:label="Layer 1"
     inkscape:groupmode="layer"
     id="layer1"
     transform="translate(-45.894247,-91.297364)">
    <path
       style="fill:#2a6773;fill-opacity:1;stroke:none;stroke-width:0.303067;stroke-miterlimit:7.1;stop-color:#000000"
       d="m 72.48983,123.897 a 7.2580643,6.833142 0 0 0 -6.285621,3.41655 7.2580643,6.833142 0 0 0 0,6.83311 7.2580643,6.833142 0 0 0 6.285621,3.41656 h 2.542678 v -8.5e-4 c 7.516301,-0.0367 13.598222,-6.14041 13.598222,-13.66535 H 75.032508 Z"
       id="path1" />
    <path
       style="fill:#2a6773;fill-opacity:1;stroke:none;stroke-width:0.303067;stroke-miterlimit:7.1;stop-color:#000000"
       d="m 65.232061,96.103751 a 11.038153,11.038153 0 0 0 -8.757219,4.318509 11.038097,11.038097 0 0 1 0,4.3e-4 11.038153,11.038153 0 0 0 -0.801939,1.19983 11.038153,11.038153 0 0 0 -0.340428,0.63742 11.038097,11.038097 0 0 1 0,4.4e-4 11.038153,11.038153 0 0 0 -0.762455,2.02458 11.038097,11.038097 0 0 1 0,4.4e-4 11.038153,11.038153 0 0 0 -0.164072,0.70279 11.038097,11.038097 0 0 0 0,8.5e-4 11.038153,11.038153 0 0 0 -0.117567,0.712 11.038097,11.038097 0 0 1 0,4.4e-4 11.038153,11.038153 0 0 0 -0.07063,0.71858 11.038097,11.038097 0 0 1 0,4.4e-4 11.038153,11.038153 0 0 0 0,1.44331 11.038097,11.038097 0 0 1 0,4.4e-4 11.038153,11.038153 0 0 0 0.07063,0.71814 11.038097,11.038097 0 0 0 0,8.5e-4 11.038153,11.038153 0 0 0 0.117567,0.712 11.038097,11.038097 0 0 1 0,4.4e-4 11.038153,11.038153 0 0 0 0.164072,0.70279 11.038097,11.038097 0 0 0 0,8.5e-4 11.038153,11.038153 0 0 0 0.209702,0.6905 11.038097,11.038097 0 0 1 0,4.4e-4 11.038153,11.038153 0 0 0 0.25444,0.67559 11.038097,11.038097 0 0 1 0,4.4e-4 11.038153,11.038153 0 0 0 0.298313,0.65761 11.038097,11.038097 0 0 1 0,4.3e-4 11.038153,11.038153 0 0 0 0.340428,0.63655 11.038097,11.038097 0 0 1 0,4.3e-4 11.038153,11.038153 0 0 0 0.381228,0.61286 11.038097,11.038097 0 0 0 0.879139,1.14587 11.038153,11.038153 0 0 0 0.493532,0.52688 11.038097,11.038097 0 0 0 7.805259,3.23362 v 4.3e-4 h 1.390668 v -0.002 h 22.043979 a 22.076306,22.076306 0 0 0 -0.0034,-0.39833 22.076193,22.076193 0 0 0 -0.125904,-1.98817 22.076306,22.076306 0 0 1 0,-4.3e-4 22.076193,22.076193 0 0 0 -0.304451,-1.96842 22.076306,22.076306 0 0 1 0,-4.4e-4 22.076193,22.076193 0 0 0 -0.08201,-0.38957 22.076306,22.076306 0 0 1 0,-4.3e-4 22.076193,22.076193 0 0 0 -1.695111,-4.88399 22.076306,22.076306 0 0 0 -0.360607,-0.71069 22.076193,22.076193 0 0 0 -5.212577,-6.48523 22.076306,22.076306 0 0 0 -0.616805,-0.50493 22.076193,22.076193 0 0 0 -4.405809,-2.704987 22.076306,22.076306 0 0 0 -0.362806,-0.164072 22.076193,22.076193 0 0 1 -4.33e-4,0 22.076306,22.076306 0 0 0 -0.36587,-0.157493 22.076193,22.076193 0 0 0 -2.251387,-0.804129 22.076306,22.076306 0 0 0 -0.382976,-0.110114 22.076193,22.076193 0 0 0 -1.160355,-0.28866 22.076306,22.076306 0 0 0 -0.389997,-0.08201 22.076193,22.076193 0 0 0 -4.323336,-0.433436 v -4.33e-4 z"
       id="path42241-0-4-6-2-7-5-3-1-6-7-91" />
  </g>
</svg>
